<?xml version="1.0" encoding="UTF-8" standalone="no"?><svg xmlns="http://www.w3.org/2000/svg" xmlns:xlink="http://www.w3.org/1999/xlink" contentScriptType="application/ecmascript" contentStyleType="text/css" height="171px" preserveAspectRatio="none" style="width:179px;height:171px;" version="1.1" viewBox="0 0 179 171" width="179px" zoomAndPan="magnify"><defs><filter height="300%" id="f110ypn63pxt9t" width="300%" x="-1" y="-1"><feGaussianBlur result="blurOut" stdDeviation="2.0"/><feColorMatrix in="blurOut" result="blurOut2" type="matrix" values="0 0 0 0 0 0 0 0 0 0 0 0 0 0 0 0 0 0 .4 0"/><feOffset dx="4.0" dy="4.0" in="blurOut2" result="blurOut3"/><feBlend in="SourceGraphic" in2="blurOut3" mode="normal"/></filter></defs><g><!--entity Lambda--><path d="M45.8988,17.8259 C48.4638,11.7893 52.434,11.2086 57.2765,15.2565 C60.7724,10.4522 65.934,9.3207 68.9051,15.7975 C70.7201,10.4323 75.2807,10.207 78.7423,14.0356 C82.301,10.0078 88.0415,9.6781 89.9392,15.8576 C93.3776,11.0845 97.7059,9.9358 101.2597,15.734 C105.7738,10.2606 109.2886,10.8011 112.5842,16.9238 C121.7122,19.5851 125.0899,23.9456 119.9225,33.0942 C125.6656,40.058 121.3882,47.3792 113.4515,48.6537 C111.3116,54.0935 107.3219,55.6123 102.6207,51.5835 C99.4415,57.1922 95.0858,57.9254 90.5572,53.1513 C89.0309,59.275 84.976,61.9758 79.2206,57.8113 C74.0438,61.8499 70.3058,59.6187 69.1306,53.74 C63.7901,58.1715 59.2708,57.7882 56.4358,50.924 C52.3968,54.5061 48.2822,53.2207 46.6123,48.2142 C38.0253,44.5586 37.2721,37.6957 43.4753,31.2975 C37.2384,25.4909 37.7324,21.0415 45.8988,17.8259 " fill="#FEFECE" style="stroke: #000000; stroke-width: 1.5;"/><text fill="#000000" font-family="sans-serif" font-size="14" lengthAdjust="spacingAndGlyphs" textLength="54" x="51.5" y="36.5352">Lambda</text><!--entity RDS--><path d="M6,124 C6,114 29.5,114 29.5,114 C29.5,114 53,114 53,124 L53,149.4883 C53,159.4883 29.5,159.4883 29.5,159.4883 C29.5,159.4883 6,159.4883 6,149.4883 L6,124 " fill="#FEFECE" filter="url(#f110ypn63pxt9t)" style="stroke: #000000; stroke-width: 1.5;"/><path d="M6,124 C6,134 29.5,134 29.5,134 C29.5,134 53,134 53,124 " fill="none" style="stroke: #000000; stroke-width: 1.5;"/><text fill="#000000" font-family="sans-serif" font-size="14" lengthAdjust="spacingAndGlyphs" textLength="27" x="16" y="151.5352">RDS</text><!--entity GHPages--><rect fill="#FEFECE" filter="url(#f110ypn63pxt9t)" height="36.4883" style="stroke: #000000; stroke-width: 1.5;" width="80" x="88.5" y="118.5"/><text fill="#000000" font-family="sans-serif" font-size="14" lengthAdjust="spacingAndGlyphs" textLength="60" x="98.5" y="142.0352">GHPages</text><!--link Lambda to RDS--><path d="M67.7467,54.1524 C59.5206,71.8639 48.2374,96.1573 40.0597,113.7643 " fill="none" id="Lambda-RDS" style="stroke: #A80036; stroke-width: 1.0;"/><!--link Lambda to GHPages--><path d="M89.4727,54.1524 C98.6142,73.4409 111.4553,100.5357 119.874,118.2992 " fill="none" id="Lambda-GHPages" style="stroke: #A80036; stroke-width: 1.0;"/><!--
@startuml TopLevel
cloud Lambda
database RDS
rectangle GHPages

Lambda - - RDS
Lambda - - GHPages
@enduml

PlantUML version 1.2019.08(Sat Jul 13 12:25:14 PDT 2019)
(GPL source distribution)
Java Runtime: Java(TM) SE Runtime Environment
JVM: Java HotSpot(TM) 64-Bit Server VM
Java Version: 1.8.0_45-b14
Operating System: Mac OS X
OS Version: 10.14.6
Default Encoding: UTF-8
Language: en
Country: US
--></g></svg>