<?xml version="1.0" encoding="utf-8"?>
<!-- Generator: Adobe Illustrator 21.1.0, SVG Export Plug-In . SVG Version: 6.00 Build 0)  -->
<svg version="1.1" id="Art" xmlns="http://www.w3.org/2000/svg" xmlns:xlink="http://www.w3.org/1999/xlink" x="0px" y="0px"
	 viewBox="0 0 784 240.6" style="enable-background:new 0 0 784 240.6;" xml:space="preserve">
<style type="text/css">
	.st0{fill:#FFFFFF;}
</style>
<g>
	<g>
		<g>
			<path d="M212.8,81.2c0-12,6.5-19.4,18-19.4c11.4,0,17.9,7.4,17.9,19.4c0,12-6.5,19.4-17.9,19.4
				C219.3,100.6,212.8,93.2,212.8,81.2z M239.1,81.2c0-11.8-2.6-16.3-8.4-16.3c-5.8,0-8.4,4.5-8.4,16.3c0,11.7,2.6,16.3,8.4,16.3
				C236.5,97.5,239.1,92.9,239.1,81.2z"/>
			<path d="M266.7,98l-0.8,2h-15.6v-1.8l2.6-1.1V79.6l-2.7-4.2v-0.7l9.6-3.2h1.3L261,78h0.3c1.3-3.3,3.8-6.5,8-6.5
				c3.4,0,5.4,2,5.4,5.1c0,2.9-2,4.7-4.4,4.7c-2.7,0-4.4-1.9-4.4-4.5c-1.6,0.7-3.1,2.2-4.6,4.1v15.9L266.7,98z"/>
			<path d="M290.3,95.2c2.9,0,4.5-0.7,6.9-2.5l1.2,1.4c-2,4.6-5.9,6.4-11.4,6.4c-7.3,0-13-4.7-13-14.2c0-9.6,6.5-14.9,14.2-14.9
				c6.3,0,10.6,3.6,10.6,10.3c0,1-0.1,2.4-0.3,3.6h-16.3C282.3,91.3,284.9,95.2,290.3,95.2z M282.3,82.5h9c0.1-0.5,0.2-1.3,0.2-2.4
				c0-3-0.8-5.7-3.8-5.7C284.9,74.4,282.8,77,282.3,82.5z"/>
			<path d="M319.2,94.4c6.1,0,9.9,2.9,9.9,9.1c0,7.8-7.7,10.7-16.1,10.7c-7.8,0-13.5-1.8-13.5-6.7c0-3.6,2.9-5.3,7.2-5.9v-0.2
				c-3.6-0.4-5.7-2.6-5.7-5.9c0-3.3,2.5-5.3,6-6c-3.6-1.3-5.9-3.8-5.9-8c0-5.6,4.2-9.9,12.2-9.9c3.3,0,7.2,0.6,10.2,2.1
				c-0.3-0.4-0.4-0.9-0.4-1.5c0-2,1.5-3.3,3.5-3.3c2,0,3.5,1.4,3.5,3.6c0,2.4-1.6,3.8-3.9,3.8c-1.7,0-3.2-0.6-5-1.3v0.6
				c2.2,1,3.8,3.2,3.8,6.1c0,6.1-6.1,8.9-11.7,8.9c-1.4,0-2.7-0.1-3.9-0.4c-1.3,0.4-2.4,1.1-2.4,2.6c0,1.3,0.8,1.9,2.3,1.9H319.2z
				 M306.5,106.3c0,3.4,2.5,5,6.9,5c5,0,8.9-1.4,8.9-5.4c0-2.4-1.3-3.9-5-3.9h-8C307.5,102.9,306.5,104.3,306.5,106.3z M313,74.4
				c-3.3,0-3.8,2.5-3.8,6.6c0,4.1,0.6,6.6,3.8,6.6c3.3,0,3.9-2.5,3.9-6.6C316.9,76.8,316.4,74.4,313,74.4z"/>
			<path d="M341.9,100.6c-8.6,0-14.3-4.9-14.3-14.5s5.7-14.5,14.3-14.5c8.6,0,14.3,4.9,14.3,14.5S350.5,100.6,341.9,100.6z
				 M341.9,97.6c4.3,0,5.4-4.2,5.4-11.6c0-7.4-1.1-11.6-5.4-11.6s-5.4,4.2-5.4,11.6C336.5,93.4,337.7,97.6,341.9,97.6z"/>
			<path d="M389.7,98.1l-0.8,1.9h-14v-1.8l2.6-1.2V83c0-4.1-2.2-5.5-4.5-5.5c-2.2,0-3.9,1.1-5,2.2v17.2l3.8,1.2l-0.8,1.9H357v-1.8
				l2.6-1.1V79.5l-2.7-4.2v-0.7l9.6-3.1h1.3l-0.2,5.5h0.3c2.3-3.6,5.5-5.5,9.8-5.5c4.7,0,8.2,3.3,8.2,9.8v15.6L389.7,98.1z"/>
			<path d="M416.3,92.3c0-3.4-1.8-5.1-6-6.8l-4.6-1.9c-4.7-1.9-7.5-5.1-7.5-11c0-7.6,5.9-10.9,12.1-10.9c3.4,0,6.1,0.8,8.1,1.4
				l3.1-1.4l0.6,10.6l-1.7,0.4l-3.1-4c-1.9-2.7-3.9-4.1-7.2-4.1c-3,0-5,1.9-5,4.8c0,2.9,1.3,4.7,5.2,6.2l4.8,1.9
				c6,2.4,8.6,5.8,8.6,11.7c0,7.7-5.8,11.3-12.6,11.3c-4.6,0-7-1.1-8.8-2l-3.4,2l-1.1-12.1l2-0.4l3.1,4.5c2.1,3.3,4.5,5,8.1,5
				C414.3,97.6,416.3,95.7,416.3,92.3z"/>
			<path d="M424.1,73.3l10.2-8.7h1.9v7.5h8.4l-0.4,3.3h-7.9v15.1c0,3.7,1.4,5.1,4,5.1c1.7,0,2.9-0.4,4.7-1.3l0.6,1.5
				c-2,3-5.2,4.8-9.2,4.8c-5,0-8.4-2.5-8.4-9V75.4h-3.8V73.3z"/>
			<path d="M469.7,93.8c0,2.9,1,3.5,4,3.2l0.2,1.3c-1.6,1.5-3.7,2.3-6.7,2.3c-2.7,0-5-1.1-5.5-4.1l-0.2-0.1
				c-1.3,2.9-4.3,4.1-7.7,4.1c-4.3,0-7.8-2.4-7.8-7.7c0-5.6,4.5-8.4,11.5-8.4c1.3,0,2.8,0.3,3.8,0.5v-2.4c0-3.7-2.4-5.5-6.1-5.5
				c-2.7,0-4.9,0.5-7.6,1.9l-0.8-1.9c2.7-3.7,7.1-5.7,12.4-5.7c5.3,0,10.5,2.4,10.5,10.1V93.8z M460,87.5c-3.8,0-5.9,1-5.9,4.3
				c0,2.4,1.4,4,3.6,4c1.4,0,2.6-0.3,3.7-1.3v-7H460z"/>
			<path d="M470.9,73.3l10.2-8.7h1.9v7.5h8.4l-0.4,3.3h-7.9v15.1c0,3.7,1.4,5.1,4,5.1c1.7,0,2.9-0.4,4.7-1.3l0.6,1.5
				c-2,3-5.2,4.8-9.2,4.8c-5,0-8.4-2.5-8.4-9V75.4h-3.8V73.3z"/>
			<path d="M508.1,95.2c2.9,0,4.5-0.7,6.9-2.5l1.2,1.4c-2,4.6-5.9,6.4-11.4,6.4c-7.3,0-13-4.7-13-14.2c0-9.6,6.5-14.9,14.2-14.9
				c6.3,0,10.6,3.6,10.6,10.3c0,1-0.1,2.4-0.3,3.6H500C500.1,91.3,502.7,95.2,508.1,95.2z M500.1,82.5h9c0.1-0.5,0.2-1.3,0.2-2.4
				c0-3-0.8-5.7-3.8-5.7C502.7,74.4,500.6,77,500.1,82.5z"/>
			<path d="M556.3,86.7c0,8.9-5.7,13.9-14.6,13.9c-8.8,0-15.3-3.8-15.3-13.6v-21l-4.1-1.5l0.4-2h15.9l0.5,2l-4.1,1.5v20.9
				c0,6.8,3.1,9.6,8.2,9.6c5.2,0,8.7-3.1,8.7-9.8V65.9l-4.8-1.5l0.5-2h12.2l0.5,2l-4.1,1.5V86.7z"/>
			<path d="M591.6,98.1l-0.8,1.9h-14v-1.8l2.6-1.2V83c0-4.1-2.2-5.5-4.5-5.5c-2.2,0-3.9,1.1-5,2.2v17.2l3.8,1.2l-0.8,1.9h-13.9v-1.8
				l2.6-1.1V79.5l-2.7-4.2v-0.7l9.6-3.1h1.3l-0.2,5.5h0.3c2.3-3.6,5.5-5.5,9.8-5.5c4.7,0,8.2,3.3,8.2,9.8v15.6L591.6,98.1z"/>
			<path d="M606.9,98.1l-0.8,1.9h-13.9v-1.8l2.6-1.1V79.5l-2.7-4.2v-0.7l9.6-3.1h1.4v25.4L606.9,98.1z M598.9,57.8
				c2.9,0,5.2,2.3,5.2,5.2c0,2.9-2.3,5.1-5.2,5.1c-2.9,0-5.2-2.2-5.2-5.1C593.7,60.1,596,57.8,598.9,57.8z"/>
			<path d="M627.9,75.5l-4-1.2l0.3-2.2H635l0.4,2.1l-2.9,1l-9.5,24.7h-6.3L607.1,76l-2.9-1.9l0.4-2h14.7l0.4,2.2l-4.1,1l3.9,11
				c1.5,4.3,2,7.4,2,7.4h0.3c0,0,0.6-3.2,2.2-7.5L627.9,75.5z"/>
			<path d="M649.2,95.2c2.9,0,4.5-0.7,6.9-2.5l1.2,1.4c-2,4.6-5.9,6.4-11.4,6.4c-7.3,0-13-4.7-13-14.2c0-9.6,6.5-14.9,14.2-14.9
				c6.3,0,10.6,3.6,10.6,10.3c0,1-0.1,2.4-0.3,3.6H641C641.2,91.3,643.7,95.2,649.2,95.2z M641.2,82.5h9c0.1-0.5,0.2-1.3,0.2-2.4
				c0-3-0.8-5.7-3.8-5.7C643.7,74.4,641.7,77,641.2,82.5z"/>
			<path d="M674.9,98l-0.8,2h-15.6v-1.8l2.6-1.1V79.6l-2.7-4.2v-0.7l9.6-3.2h1.3l-0.2,6.5h0.3c1.3-3.3,3.8-6.5,8-6.5
				c3.4,0,5.4,2,5.4,5.1c0,2.9-2,4.7-4.4,4.7c-2.7,0-4.4-1.9-4.4-4.5c-1.6,0.7-3.1,2.2-4.6,4.1v15.9L674.9,98z"/>
			<path d="M684.4,90.8c3.4,5.6,5.7,7,9.3,7c2.6,0,4.4-0.8,4.4-3.4c0-2-1.2-3.2-4.1-4.1l-4.1-1.3c-4.4-1.3-6.8-3.9-6.8-8.6
				c0-6.2,4.3-8.9,10-8.9c2.2,0,4.6,0.5,6.1,1.3l3.5-1.2l0.2,8.4l-1.5,0.4c-2.6-4.1-5-5.9-8.2-5.9c-2.3,0-3.7,1.2-3.7,3.1
				c0,1.8,1,2.8,3.2,3.6l4.6,1.5c5.2,1.7,7.6,4.4,7.6,9.2c0,6.2-4.3,8.8-11.3,8.8c-2.4,0-5-0.6-6.8-1.5l-3.3,1.5l-0.7-9.4
				L684.4,90.8z"/>
			<path d="M720.5,98.1l-0.8,1.9h-13.9v-1.8l2.6-1.1V79.5l-2.7-4.2v-0.7l9.6-3.1h1.4v25.4L720.5,98.1z M712.5,57.8
				c2.9,0,5.2,2.3,5.2,5.2c0,2.9-2.3,5.1-5.2,5.1c-2.9,0-5.2-2.2-5.2-5.1C707.3,60.1,709.5,57.8,712.5,57.8z"/>
			<path d="M719,73.3l10.2-8.7h1.9v7.5h8.4l-0.4,3.3h-7.9v15.1c0,3.7,1.4,5.1,4,5.1c1.7,0,2.9-0.4,4.7-1.3l0.6,1.5
				c-2,3-5.2,4.8-9.2,4.8c-5,0-8.4-2.5-8.4-9V75.4H719V73.3z"/>
			<path d="M739.3,76l-2.9-1.9l0.4-2h14.8l0.4,2.2l-4.1,1l4.1,10.5c1.8,4.6,2,7.5,2,7.5h0.3c0,0,0.7-3.3,2.2-7.6l3.5-10.3l-4-1.2
				l0.3-2.2h10.7l0.4,2.1l-2.9,1l-9.4,25.1c-3.3,8.9-6.8,13.5-13.3,13.5c-4,0-5.8-2.4-5.8-5.2c0-2.7,1.6-4.4,4.3-4.4
				c2.7,0,4,1.9,4,4c0,1.3-0.6,2.2-1,2.7c2.7-0.3,5.7-4.1,7.1-8.4L739.3,76z"/>
		</g>
		<g>
			<g>
				<path class="st0" d="M191.4,88.6c-1.4-8.3-3.5-15-6.3-20.6c-2.4-4.8-5.4-8.8-8.9-11.7c-4.9-4.1-10.8-6.3-17-6.3
					c-3,0-5.9,0.4-8.6,1.2l9.2-19.7L141,18.2h-13.5c-2.3,0-4.8-1.8-8-4c-5.7-3.9-13.4-9.3-26.5-9.3C81.8,4.9,73,8,66.1,14.3
					c0,0-44.8,43.7-45,43.9l0,0c-2.6,2.7-4.9,5.9-6.8,9.7C11.5,73.5,9.5,80.3,8,88.6c-3,17.4-2.4,34.8,1.7,50.2
					c4.4,16.7,12.6,32.7,24.2,47.6c14.2,18.2,33.5,34.8,57.6,49.2l8.2,4.9l8.2-4.9c24-14.4,43.4-31,57.6-49.2
					c11.6-14.9,19.7-30.9,24.2-47.6C193.8,123.3,194.4,106,191.4,88.6z"/>
				<g>
					<path d="M86.5,70.1h-25l-2.2,37.6c1.4,0.2,2.7,0.6,4,1.2L86.5,70.1z"/>
					<path d="M67.1,155.4c-0.1,0-0.1-0.1-0.2-0.1v3.1c0.4,0.2,0.8,0.4,1.2,0.5c1.9,0.8,4.2,1.4,7.8,1.4c3.9,0,6.3-0.7,8.3-1.6v-3
						c-2.1,1-4.2,1.9-8.3,1.9c-3.7,0-5.8-0.7-7.8-1.6C67.7,155.7,67.4,155.6,67.1,155.4z"/>
					<path d="M68.1,167.1c-0.3-0.2-0.7-0.3-1-0.5c-0.1,0-0.1-0.1-0.2-0.1v3.1c0.4,0.2,0.8,0.4,1.2,0.5c1.9,0.8,4.2,1.4,7.8,1.4
						c2.7,0,4.7-0.4,6.4-0.9v-2.9c-1.6,0.6-3.5,1-6.4,1C72.1,168.7,70,168,68.1,167.1z"/>
					<path d="M68.1,178.3c-0.3-0.2-0.7-0.3-1-0.5c-0.1,0-0.1-0.1-0.2-0.1v3.1c0.4,0.2,0.8,0.4,1.2,0.5c1.9,0.8,4.2,1.4,7.8,1.4
						c1.4,0,2.6-0.1,3.7-0.3v-2.8c-1,0.2-2.2,0.3-3.7,0.3C72.1,179.9,70,179.2,68.1,178.3z"/>
					<path d="M96.2,18.3c2.1,0.4,4.1,1.1,6,2.1c1.9,0.9,3.7,2.1,5.4,3.4c2.6,1.9,5.2,4.1,8.3,5.8v-4.7c-2.1-1.2-4.2-2.6-6.4-3.9
						c-1.9-1.2-4-2.3-6.1-3.2c-2.2-0.9-4.4-1.5-6.7-1.8c-2.3-0.3-4.6-0.3-6.9-0.1c-0.1,0-0.3,0-0.4,0v1.8c0.2,0,0.3,0,0.5,0
						C92,17.7,94.1,17.9,96.2,18.3z"/>
					<path d="M188.7,89c-1.4-8-3.4-14.5-6-19.9c-2.2-4.5-5-8.1-8.2-10.8c-4.4-3.7-9.7-5.6-15.3-5.6c-7.5,0-14.3,2.8-19.2,7.9l-8.3-9
						l1.3-2.9h11.3l-1.4,2.9h4.3l9-19.2l-16.2-11.5h-12.7c-3.2,0-6-2-9.6-4.5c-5.7-3.9-12.7-8.8-25-8.8c-10.4,0-18.5,2.8-24.8,8.7
						l-28.7,28h0c0,0-16.2,15.8-16.2,15.8c-2.4,2.4-4.5,5.4-6.3,9c-2.7,5.3-4.6,11.8-6,19.9c-2.9,17-2.4,34,1.7,49
						c4.4,16.3,12.3,32,23.7,46.6C50,202.7,69.1,219,92.9,233.2l6.8,4.1l6.8-4.1c23.7-14.2,42.9-30.6,56.8-48.5
						c11.4-14.6,19.3-30.3,23.7-46.6C191,123,191.6,106,188.7,89z M70.7,19.2c2.1-1.9,8.3-7.6,22.1-7.6c11,0,17.2,4.3,22.7,8.1
						c4,2.8,7.5,5.2,11.8,5.2h11.4l12.5,8.9l-5.2,11.1h-11.2c-1.6-0.1-3.2-0.7-4.5-1.8c-1.6-1.3-2.6-3.4-2.8-5.7h-2
						c-0.1,1.3,0.1,2.7,0.5,4.1c0.4,1.4,1.2,2.6,2.1,3.7c0.4,0.5,0.9,0.9,1.4,1.3l-2.8,6l7.7,8.3h-5.8L118.7,52h-2.3l7.4,8.6h-14.9
						l-8.6-8.6l-5.1,0c1-2.3,1.6-4.8,1.7-7.3c0-0.5,0-0.9,0-1.4L96.8,42l-0.1-0.7l-0.1-0.7l-0.2-1.4c-0.5-1.8-1.1-3.5-2-5.1
						c-0.9-1.6-1.9-3.1-3.2-4.3l-0.5-0.5l-0.5-0.4c-0.3-0.3-0.7-0.6-1-0.9c-0.7-0.5-1.4-1.1-2.2-1.5c-2.4-1.4-5.1-2.2-7.9-2.5
						c-0.8-0.1-1.6-0.1-2.4-0.1V25v0.8c3.2,0.1,6.3,1,9,2.8c0.7,0.4,1.3,0.9,1.9,1.4c0.3,0.3,0.6,0.5,0.9,0.8l0.4,0.4l0.4,0.4
						c1.1,1.1,1.9,2.5,2.6,3.9c0.7,1.4,1.1,2.9,1.4,4.4l0.1,1.1l0.1,0.6l0,0.6l0,1.1c0,0.4,0,0.8-0.1,1.1c-0.3,3-1.4,6-3.2,8.4
						L87.9,56l10.8,0l4.7,4.7H59V44.4H44.9L70.7,19.2z M50.8,76.5c-1.5,6-6.7,10.3-12.7,10.9c-0.5,0-1,0.1-1.4,0.1
						c-7.7,0-14.1-6-14.6-13.7c0-0.3-0.1-0.7-0.1-1c0-4,1.7-7.9,4.6-10.7c0.3-0.3,14.3-13.9,14.3-13.9h14.2v14L50.8,76.5z
						 M183.2,137.1c-2.6,9.8-6.5,19.3-11.8,28.5l0,0c-0.3,0.5-0.5,0.9-0.8,1.4c-0.2,0.4-0.4,0.7-0.6,1.1c-0.3,0.5-0.5,0.9-0.8,1.4
						c-0.2,0.4-0.5,0.8-0.7,1.2c-0.3,0.4-0.5,0.8-0.8,1.2c-0.5,0.7-1,1.5-1.5,2.2c-0.2,0.3-0.4,0.6-0.6,0.9
						c-0.4,0.5-0.7,1.1-1.1,1.6c-0.2,0.3-0.4,0.6-0.7,0.9c-0.4,0.5-0.8,1.1-1.2,1.6c-0.2,0.3-0.4,0.5-0.6,0.8
						c-0.6,0.8-1.2,1.6-1.8,2.4c0,0,0,0,0,0c-0.6,0.7-1.2,1.5-1.7,2.2c-6.4,8-13.9,15.6-22.5,22.9c-6.3,5.4-13.2,10.5-20.5,15.5
						c-3.5,2.4-7.2,4.7-11,7l-4.8,2.9h0h0l-4.8-2.9c-23.3-14-42.1-30-55.7-47.6c-0.4-0.5-0.8-1-1.2-1.5c-0.3-0.3-0.5-0.7-0.8-1
						c-0.5-0.6-0.9-1.3-1.4-1.9c-0.2-0.2-0.3-0.5-0.5-0.7c-0.5-0.7-1-1.5-1.5-2.2c-0.1-0.1-0.2-0.3-0.3-0.4
						c-0.6-0.8-1.1-1.6-1.6-2.5c0,0-0.1-0.1-0.1-0.1c-7.2-11.1-12.4-22.8-15.6-34.8c-3.9-14.5-4.4-30.9-1.6-47.4
						c0.9-5.4,2.1-10,3.6-14c0.5,3,1.6,5.7,3.3,8c-0.5,2.1-1,4.4-1.5,6.9c-0.7,3.9-1.2,7.8-1.4,11.7l26,12.1c0.4-0.7,0.9-1.4,1.5-2
						c0.4-0.4,0.8-0.9,1.3-1.2L31.6,90.8c1.6,0.4,3.3,0.7,5,0.7c1.2,0,2.5-0.1,3.6-0.4l10.7,17.8c1.3-0.6,2.6-1,4-1.2l-1.6-26.7
						c0.5-1.1,1-2.3,1.3-3.5l3.8-12.5l0.1-0.5h83.1l0.6-0.7c3-3.3,8.3-7.2,16.9-7.2c4.7,0,9.1,1.6,12.8,4.7c2.8,2.3,5.2,5.5,7.2,9.5
						c2.5,5,4.3,11.1,5.7,18.8C187.6,106.2,187.1,122.5,183.2,137.1z"/>
					<circle cx="139.8" cy="32.8" r="2.1"/>
					<path d="M127.6,33.9C127.6,33.9,127.6,33.9,127.6,33.9c0.1-0.4,0.8-2.9,3.3-3.3v-2h-5.3v5.3H127.6z"/>
					<path d="M179.4,90.7c-2.2-13-7.6-28.4-20.2-28.4c-9,0-13.1,5.4-14.6,7.9H98.4l-31.6,41.1c0.4,0.4,0.8,0.7,1.1,1.1
						c0.6,0.7,1.2,1.4,1.7,2.3l22.6-10.2l-1.9,8.2l-19.1,6.1c0.4,1.4,0.6,2.9,0.5,4.4c-0.7-0.1-1.3-0.3-1.9-0.5
						c-0.6-0.2-1.2-0.5-1.8-0.8c-0.3-0.1-0.6-0.3-0.9-0.4c-0.6-0.3-1.1-0.5-1.8-0.8c-1.3-0.6-2.8-1.1-4.8-1.4
						c-0.3,0-0.5-0.1-0.8-0.1c-0.4,0-0.9-0.1-1.4-0.1c-0.4,0-0.9,0-1.3,0c-0.1,0-0.1,0-0.2,0c-0.1,0-0.1,0-0.2,0c-0.5,0-0.9,0-1.3,0
						c-0.5,0-0.9,0.1-1.3,0.1c-0.3,0-0.6,0.1-0.9,0.1c-1.9,0.3-3.3,0.8-4.6,1.3c-0.7,0.3-1.3,0.6-1.9,0.9c-0.3,0.1-0.6,0.3-0.9,0.4
						c-0.6,0.3-1.2,0.5-1.8,0.7c-0.6,0.2-1.2,0.4-1.9,0.5c0-1.5,0.2-3.1,0.6-4.5l-24.5-8.1c0,2.9,0.1,5.7,0.4,8.5c0,0,0,0,0,0
						c0,0.3,0.1,0.6,0.1,0.9c0.1,0.6,0.1,1.2,0.2,1.8l0,0c0,0.4,0.1,0.9,0.1,1.3c0.1,0,0.2,0,0.4,0c0.3,0,0.6,0,0.9,0
						c0.1,0,0.1,0,0.2,0c0.3,0,0.5,0,0.8,0c0,0,0.1,0,0.1,0c0.6,0.1,1.1,0.1,1.6,0.2v0c2,0.4,3.4,1,4.9,1.8
						c2.4,1.1,5.1,2.4,10.2,2.4s7.9-1.3,10.2-2.4c0.7-0.4,1.4-0.7,2.2-1c1.4-0.5,3-0.9,5.2-1c0.2,0,0.5,0,0.7,0c0.1,0,0.3,0,0.4,0
						c0.1,0,0.3,0,0.4,0c0.3,0,0.5,0,0.7,0c2.1,0.1,3.7,0.5,5,1c0.8,0.3,1.6,0.7,2.4,1.1c2.4,1.1,5.1,2.4,10.2,2.4
						c5.1,0,7.9-1.3,10.2-2.4c0.6-0.3,1.1-0.5,1.7-0.8l-0.9,3.8l3.6-0.7l-0.9,4c-2.1,0.5-3.6,1.2-5.1,1.9c-2.3,1.1-4.4,2.1-8.8,2.1
						c-4.4,0-6.5-1-8.8-2.1c-2.4-1.2-5-2.4-10-2.4c-5,0-7.5,1.2-10,2.4c-2.3,1.1-4.4,2.1-8.8,2.1c-4.4,0-6.5-1-8.8-2.1
						c-1.4-0.7-2.9-1.4-4.9-1.9c0,0,0,0,0,0c-0.1,0-0.2,0-0.3-0.1c-0.2,0-0.3-0.1-0.5-0.1c-0.2,0-0.4-0.1-0.6-0.1
						c-0.1,0-0.2,0-0.4-0.1l0,0c-0.7-0.1-1.5-0.2-2.4-0.2c0.2,0.9,0.4,1.9,0.6,2.8c0.6,0,1.1,0.1,1.6,0.2c0.2,0,0.4,0.1,0.5,0.1
						c0.1,0,0.2,0,0.4,0.1c0.3,0.1,0.6,0.1,0.8,0.2c0,0,0.1,0,0.1,0c0.3,0.1,0.6,0.2,0.8,0.2c1.1,0.4,2.1,0.8,3.1,1.3
						c2.4,1.2,5,2.4,10,2.4s7.5-1.2,10-2.4c2.3-1.1,4.4-2.1,8.8-2.1c4.4,0,6.5,1,8.8,2.1c2.4,1.2,5,2.4,10,2.4c5,0,7.5-1.2,10-2.4
						c1-0.5,2-1,3.2-1.3l-1.8,8.3c-1.1,0.4-2,0.8-2.9,1.3c-2.3,1.1-4.3,2.1-8.5,2.1c-4.2,0-6.2-1-8.5-2.1c-2.4-1.1-5.1-2.4-10.2-2.4
						c-5.1,0-7.9,1.3-10.2,2.4c-2.3,1.1-4.3,2.1-8.5,2.1c-4.2,0-6.2-1-8.5-2.1c-0.6-0.3-1.2-0.6-1.8-0.8c0,0,0,0,0,0
						c0,0-0.1,0-0.1,0c-0.1,0-0.2-0.1-0.2-0.1l0,0c-1.2-0.5-2.6-0.9-4.3-1.2c0.5,1.5,1,2.9,1.5,4.3l0,0c2.3,6.2,5.2,12.3,8.7,18.3
						c0.2,0.3,0.3,0.5,0.5,0.8c0.3,0.4,0.5,0.8,0.8,1.3c0.2,0.3,0.4,0.6,0.6,0.9c0.2,0.4,0.5,0.8,0.8,1.2c0.2,0.3,0.4,0.7,0.6,1
						c0.2,0.4,0.5,0.8,0.7,1.1c0.2,0.4,0.5,0.7,0.7,1.1c0.2,0.3,0.5,0.7,0.7,1c0.3,0.4,0.6,0.8,0.8,1.2c0.2,0.3,0.4,0.6,0.7,0.9
						c0.3,0.5,0.7,0.9,1,1.4c0.2,0.3,0.4,0.5,0.6,0.8c0.5,0.7,1.1,1.4,1.6,2.1c13.2,17,31.5,32.6,54.2,46.2l2,1.2l2-1.2
						c22.7-13.6,41-29.2,54.2-46.2c0,0,0,0,0.1-0.1c0.8-1.1,1.6-2.1,2.4-3.2c0.1-0.1,0.2-0.3,0.3-0.4c0.8-1.1,1.6-2.2,2.3-3.3
						c0.1-0.1,0.1-0.2,0.2-0.3c1.6-2.3,3.1-4.7,4.5-7.1c3.7-6.3,6.8-12.7,9.2-19.2l0,0c0.5-1.3,0.9-2.5,1.3-3.8
						c-1.7,0.3-3.1,0.7-4.3,1.2l0,0c-0.1,0-0.1,0.1-0.2,0.1c0,0-0.1,0-0.1,0.1c0,0,0,0,0,0c-0.6,0.3-1.2,0.6-1.8,0.8
						c-2.3,1.1-4.3,2.1-8.5,2.1c-4.2,0-6.2-1-8.5-2.1c-2.4-1.1-5.1-2.4-10.2-2.4c-5.1,0-7.9,1.3-10.2,2.4c-2.3,1.1-4.3,2.1-8.5,2.1
						c-4.2,0-6.2-1-8.5-2.1c-0.9-0.4-1.8-0.9-2.9-1.3l-3.3-15.3l3.6,0.7l0,0h0l-2.2-9.7l11.9-11.8l7.9,5.8l12.3-12.4l12.3,12.4
						l7.8-5.8l14.1,14.3l3.5,3.6c0.2-1.2,0.3-2.5,0.4-3.8l0,0c0-0.2,0-0.4,0-0.5c0-0.3,0.1-0.5,0.1-0.8l0,0
						C181.5,109.9,181,100.3,179.4,90.7z M156.2,92.5l0.2-0.7h4.5l1.4-4.3h0.7l1.4,4.3h4.5l0.2,0.7l-3.6,2.6l1.4,4.3l-0.6,0.4
						l-3.6-2.6l-3.6,2.6l-0.6-0.4l1.4-4.3L156.2,92.5z M146.6,92l-0.6,0.4l-3.6-2.6l-3.6,2.6l-0.6-0.4l1.4-4.3l-3.6-2.6l0.2-0.7h4.5
						L142,80h0.7l1.4,4.3h4.5l0.2,0.7l-3.6,2.6L146.6,92z M126.3,99.4l-0.6,0.4l-3.6-2.6l-3.6,2.6l-0.6-0.4l1.4-4.3l-3.6-2.6
						l0.2-0.7h4.5l1.4-4.3h0.7l1.4,4.3h4.5l0.2,0.7l-3.6,2.6L126.3,99.4z M109.8,149.9l-4.4-0.9v0l6.1,29.2l0,0l0,0l0,0l-11.7-4.7
						L88,178.2l0,0l0,0l6.1-29.2l-4.4,0.9l0,0h0l5.8-27.8v0l-3.4,0.7l7.2-38.6h0.7l7.2,38.6l-3.4-0.7v0L109.8,149.9z M102.1,182.1
						l0.9,27.6h-6.6l1-27.6l0.2-4.5l2.2-1.1l2.2,1.1L102.1,182.1z M94,190l-0.1,1.8c-3,0.1-4.4,0.8-6.4,1.7
						c-2.7,1.3-5.8,2.8-11.7,2.8c-5.6,0-8.6-1.3-11.2-2.6c-0.2-0.1-0.3-0.1-0.5-0.2c-0.4-0.2-0.8-0.4-1.2-0.6
						c-0.1,0-0.1-0.1-0.2-0.1c-0.5-0.2-1-0.4-1.6-0.6l1.6-1.4l0,0l0.1-0.1l0.5-0.4c0.9,0.3,1.6,0.7,2.4,1.1c0.3,0.2,0.7,0.3,1,0.5
						c2.2,1,4.6,1.9,9,1.9c5,0,7.5-1.2,10-2.4c2.2-1,4.2-2,8.2-2.1L94,190z M132.5,192c0.3-0.2,0.7-0.3,1-0.5
						c0.8-0.4,1.6-0.7,2.4-1.1l2.2,1.8c-0.6,0.2-1.2,0.4-1.7,0.7c-0.1,0-0.1,0.1-0.2,0.1c-0.3,0.1-0.7,0.3-1,0.5
						c-0.2,0.1-0.3,0.1-0.5,0.2c-2.6,1.2-5.7,2.6-11.2,2.6c-5.9,0-9-1.5-11.7-2.8c-1.9-0.9-3.4-1.6-6.4-1.7l-0.1-1.8l0-0.6
						c4,0.1,6.1,1.1,8.3,2.1c2.4,1.2,5,2.4,10,2.4C127.9,193.9,130.4,193,132.5,192z M86.1,147.2c0,0,0.1,0,0.1-0.1l-1.7,7.7l0,0
						l0,0l4.6-0.9l-6.6,31l12.4-6.1l-0.3,4.2l-0.3,3.6c-4.8,0.1-7.3,1.2-9.6,2.4c-2.3,1.1-4.4,2.1-8.8,2.1c-4,0-6.2-0.9-8.2-1.8
						c-0.2-0.1-0.4-0.2-0.6-0.3c-0.9-0.4-1.8-0.8-2.8-1.2v-38.3l-0.1,0.1l-2.6,2v36.9l-2.5,2.1c0,0,0,0,0,0l0-12.2v-2l0-26.1
						l4.9-3.7c0.1,0,0.2,0.1,0.2,0.1c0.3,0.1,0.7,0.3,1,0.5c0.2,0.1,0.3,0.1,0.5,0.2c0.7,0.4,1.5,0.7,2.4,1.1c0,0,0.1,0,0.1,0
						c1.9,0.7,4.3,1.3,7.8,1.3C81,149.7,83.7,148.4,86.1,147.2z M113.3,147.2c2.4,1.1,5.1,2.4,10.2,2.4c3.5,0,5.9-0.6,7.8-1.3
						c0,0,0.1,0,0.1,0c0.9-0.3,1.7-0.7,2.4-1.1c0,0,0.1,0,0.1-0.1c0.4-0.2,0.9-0.4,1.3-0.6c0.1,0,0.1-0.1,0.2-0.1l4.9,3.7l0,40.3
						c0,0,0,0,0,0l-2.5-2.1v-36.9l-2.8-2.1v38.3c-1,0.4-1.9,0.8-2.8,1.2c-0.2,0.1-0.4,0.2-0.6,0.3c-2.1,1-4.2,1.8-8.2,1.8
						c-4.4,0-6.5-1-8.8-2.1c-2.4-1.2-4.9-2.3-9.7-2.4l-0.3-3.6l-0.3-4.2l12.4,6.1l-0.9-4l-5.8-27l4.6,0.9l-1.7-7.8
						C113.2,147.2,113.3,147.2,113.3,147.2z"/>
					<path d="M131.3,158.9c0.4-0.2,0.8-0.4,1.2-0.5v-3.1c-0.1,0-0.1,0.1-0.2,0.1c-0.3,0.2-0.7,0.3-1,0.5c-1.9,0.9-4,1.6-7.8,1.6
						c-4.1,0-6.2-0.9-8.3-1.9v3c2,0.9,4.4,1.6,8.3,1.6C127.1,160.3,129.4,159.7,131.3,158.9z"/>
					<path d="M131.3,167.1c-1.9,0.9-4,1.6-7.8,1.6c-2.8,0-4.7-0.4-6.4-1v2.9c1.6,0.5,3.6,0.9,6.4,0.9c3.5,0,5.9-0.6,7.8-1.4
						c0.4-0.2,0.8-0.4,1.2-0.5v-3.1c-0.1,0-0.1,0.1-0.2,0.1C132,166.8,131.7,166.9,131.3,167.1z"/>
					<path d="M131.3,178.3c-1.9,0.9-4,1.6-7.8,1.6c-1.5,0-2.7-0.1-3.7-0.3v2.8c1.1,0.2,2.3,0.3,3.7,0.3c3.5,0,5.9-0.6,7.8-1.4
						c0.4-0.2,0.8-0.4,1.2-0.5v-3.1c-0.1,0-0.1,0.1-0.2,0.1C132,178,131.7,178.1,131.3,178.3z"/>
					<polygon points="32.8,76.6 34.4,77.6 50.5,55.6 50.5,52.8 47.8,52.8 					"/>
					<polygon points="124.2,132.2 124.2,122.8 120.2,122.8 120.2,125.1 121.6,125.1 121.6,132.2 					"/>
					<path d="M131.8,129.7c0,1.9,1.9,2.9,3.7,2.9c1.8,0,3.7-1,3.7-2.9c0-1.1-0.6-2-1.6-2.4c0.8-0.4,1.3-1.2,1.3-2.1
						c0-1.9-1.7-2.8-3.3-2.8c-1.6,0-3.3,0.9-3.3,2.8c0,0.9,0.5,1.7,1.3,2.1C132.4,127.7,131.8,128.6,131.8,129.7z M135.5,126.1
						c-0.5,0-0.9-0.4-0.9-0.9c0-0.5,0.4-0.9,0.9-0.9c0.5,0,0.9,0.4,0.9,0.9C136.4,125.7,136,126.1,135.5,126.1z M135.5,130.4
						c-0.5,0-1-0.4-1-1c0-0.6,0.4-1,1-1s1,0.5,1,1C136.5,129.9,136,130.4,135.5,130.4z"/>
					<path d="M149.3,122.8l-2,2.6c-0.7,0.9-1.5,2.3-1.5,3.7c0,1,0.5,2,1.3,2.6c0.7,0.5,1.6,0.8,2.7,0.8c2,0,4.1-1.1,4.1-3.6
						c0-1.6-1.1-3.4-3.1-3.4c-0.3,0-0.6,0-0.9,0.1l2.5-3H149.3z M149.8,127.7c0.8,0,1.3,0.6,1.3,1.4c0,0.8-0.6,1.4-1.3,1.4
						c-0.8,0-1.4-0.6-1.4-1.4C148.4,128.3,149,127.7,149.8,127.7z"/>
					<path d="M160.1,129.7c0,1.9,1.9,2.9,3.7,2.9c1.8,0,3.7-1,3.7-2.9c0-1.1-0.6-2-1.6-2.4c0.8-0.4,1.3-1.2,1.3-2.1
						c0-1.9-1.7-2.8-3.3-2.8c-1.6,0-3.3,0.9-3.3,2.8c0,0.9,0.5,1.7,1.3,2.1C160.7,127.7,160.1,128.6,160.1,129.7z M163.7,126.1
						c-0.5,0-0.9-0.4-0.9-0.9c0-0.5,0.4-0.9,0.9-0.9c0.5,0,0.9,0.4,0.9,0.9C164.6,125.7,164.2,126.1,163.7,126.1z M163.7,130.4
						c-0.5,0-1-0.4-1-1c0-0.6,0.4-1,1-1c0.5,0,1,0.5,1,1C164.7,129.9,164.3,130.4,163.7,130.4z"/>
				</g>
			</g>
		</g>
	</g>
	<g>
		<path d="M236.6,171.2c0-5.3-2.8-7.1-7.5-9.2l-5.7-2.6c-6-2.8-9.4-6.6-9.4-13.4c0-9.2,7.1-12.7,14-12.7c3.9,0,7.6,1.1,9.7,1.5
			l3.6-1.5l0.1,13.3l-2,0.5l-2.3-4.5c-2.1-4-4.5-6-9.2-6c-4.5,0-7.7,2.9-7.7,7.4c0,4.3,1.7,6.6,6.9,8.9l6.5,2.9
			c6.2,2.8,9.6,6.9,9.6,13.9c0,9.2-7.3,13-14.6,13c-5.4,0-8.1-1.4-10.6-2.3l-3.6,2.3l-1.5-15.1l2.3-0.5l2.6,4.7
			c2.9,5.4,5.8,7.5,10.9,7.5C233.4,179.1,236.6,176.5,236.6,171.2z"/>
		<path d="M265.4,150.2v-0.9l9.7-3.7h1.3v30.5l4.4,3.1v0.9l-10.5,2.4l-0.7-5.8h-0.3c-2.7,4.4-7.5,5.8-11.2,5.8
			c-5.2,0-10.2-3-10.2-11.3v-16.7l-3.9-4.4v-0.9l9.7-3.7h1.3v24.1c0,5.7,2.6,7.9,6.2,7.9c2.9,0,5.8-1.3,8.1-3.9v-19.1L265.4,150.2z"
			/>
		<path d="M284,170.3c3.4,7.3,6.6,9.2,10.9,9.2c3.6,0,6.1-1.3,6.1-5.1c0-3.1-1.8-4.8-5.8-6.2l-4.6-1.6c-4.9-1.7-8-4.7-8-10.7
			c0-7,5-10.3,11.8-10.3c1.6,0,4.9,0.6,6.5,1.5l3.9-1.4l0.6,10.4l-1.7,0.6c-3.5-6-6.3-7.7-9.8-7.7c-3.4,0-5.5,1.9-5.5,4.9
			s1.5,4.8,5.4,6.2l4.6,1.5c5.3,1.9,8.7,4.7,8.7,10.9c0,7.2-5.4,10.2-12.6,10.2c-3.3,0-6.1-1-8-1.9l-3.6,1.9l-0.7-11.7L284,170.3z"
			/>
		<path d="M308.3,148l10.1-11.2h1.6v9.6h11.8l-0.6,3.8H320v21.1c0,4.5,1.9,6.4,5.3,6.4c2.3,0,4.1-0.5,6.6-1.7l0.8,2
			c-2.7,2.9-5.8,4.5-11,4.5c-5.4,0-8.8-2.8-8.8-10v-22.3h-4.6V148z"/>
		<path d="M358.7,174.3c0,3.7,1.4,4.7,6,4.1l0.2,1.8c-1.8,1.6-3.9,2.4-7,2.4c-2.9,0-5.3-1.5-5.9-4.9h-0.3c-1.5,3.1-5.3,4.9-9.2,4.9
			c-6.1,0-10.2-3.2-10.2-9.9c0-7,5.4-10.6,14.5-10.6c1.5,0,3.4,0.2,4.8,0.5v-4.3c0-4.8-3.1-7.1-7.5-7.1c-3.1,0-6.3,0.9-9.7,3.4
			l-1.1-2.3c3.5-4.4,7.9-6.6,13.8-6.6c6.1,0,11.7,3.6,11.7,10.8V174.3z M349.5,165.5c-6.2,0-10,1.5-10,6.8c0,3.6,2.2,5.5,5.5,5.5
			c2.8,0,4.7-0.7,6.6-2.8v-9.6H349.5z"/>
		<path d="M381.7,179.4l-1.1,2.3h-15.6v-2.3l3.8-1.3v-23.6l-3.9-4.4v-0.9l9.7-3.7h1.3v32.2L381.7,179.4z M372.4,130c2.8,0,5,2.2,5,5
			s-2.2,5-5,5c-2.8,0-5-2.2-5-5S369.5,130,372.4,130z"/>
		<path d="M421,179.4l-1.1,2.3h-15.6v-2.3l3.8-1.4v-20c0-5.2-3.2-6.2-6-6.2c-3.2,0-6.4,1.6-8.3,3.2v22.8l5.7,1.5l-1.1,2.3H383v-2.3
			l3.8-1.3v-23.6l-3.9-4.4v-0.9l9.7-3.7h1.2l-0.2,6.9h0.3c3.2-5.3,8.2-6.9,11.8-6.9c4.7,0,9.6,2.8,9.6,11.1v21.1L421,179.4z"/>
		<path d="M447.8,174.3c0,3.7,1.4,4.7,6,4.1l0.2,1.8c-1.8,1.6-3.9,2.4-7,2.4c-2.9,0-5.3-1.5-5.9-4.9h-0.3c-1.5,3.1-5.3,4.9-9.2,4.9
			c-6.1,0-10.2-3.2-10.2-9.9c0-7,5.4-10.6,14.5-10.6c1.5,0,3.4,0.2,4.8,0.5v-4.3c0-4.8-3.1-7.1-7.5-7.1c-3.1,0-6.3,0.9-9.7,3.4
			l-1.1-2.3c3.5-4.4,7.9-6.6,13.8-6.6c6.1,0,11.7,3.6,11.7,10.8V174.3z M438.5,165.5c-6.2,0-10,1.5-10,6.8c0,3.6,2.2,5.5,5.5,5.5
			c2.8,0,4.7-0.7,6.6-2.8v-9.6H438.5z"/>
		<path d="M451.6,130.9V130l10.5-3.4h1.3V151h0.3c2.3-3.6,5.8-5.3,10.4-5.3c7.9,0,14.1,6.2,14.1,16.9c0,13.1-8.4,20.1-19.9,20.1
			c-4.4,0-8.3-0.7-12-2.3v-45.7L451.6,130.9z M463.4,176.9c1.1,1.3,3.3,2.2,5.7,2.2c6.3,0,11.6-4.5,11.6-14.3
			c0-9.2-4.1-13.8-9.8-13.8c-3.3,0-5.5,1.1-7.5,2.9V176.9z"/>
		<path d="M506.9,179.4l-1.1,2.3h-15.6v-2.3l3.8-1.3v-23.6l-3.9-4.4v-0.9l9.7-3.7h1.3v32.2L506.9,179.4z M497.6,130c2.8,0,5,2.2,5,5
			s-2.2,5-5,5s-5-2.2-5-5S494.8,130,497.6,130z"/>
		<path d="M524.4,179.4l-1.1,2.3h-15.6v-2.3l3.8-1.3v-43.6l-4.7-3.7V130l10.5-3.4h1.3v51.3L524.4,179.4z"/>
		<path d="M542.3,179.4l-1.1,2.3h-15.6v-2.3l3.8-1.3v-23.6l-3.9-4.4v-0.9l9.7-3.7h1.3v32.2L542.3,179.4z M533,130c2.8,0,5,2.2,5,5
			s-2.2,5-5,5c-2.8,0-5-2.2-5-5S530.2,130,533,130z"/>
		<path d="M541.5,148l10.1-11.2h1.6v9.6h11.8l-0.6,3.8h-11.3v21.1c0,4.5,1.9,6.4,5.3,6.4c2.3,0,4.1-0.5,6.6-1.7l0.8,2
			c-2.7,2.9-5.8,4.5-11,4.5c-5.4,0-8.8-2.8-8.8-10v-22.3h-4.6V148z"/>
		<path d="M566.8,150.7l-3.5-2.2l0.6-2.1h15l0.6,2.4l-5.2,1.3l5.8,15.2c2.3,6.1,2.7,10.3,2.7,10.3h0.3c0,0,1.4-5.2,3.1-10.4
			l4.8-14.7l-5.3-1.8l0.5-2.3h13l0.5,2.3l-3.7,1.5L584.5,181c-5.1,13.9-9.4,18.2-16,18.2c-4.2,0-6.5-2.4-6.5-5.5
			c0-2.9,1.8-4.7,4.6-4.7c2.5,0,4.1,1.8,4.1,4.1c0,1.2-0.4,2.2-0.8,2.8c3.2,0,7.5-5.9,9.7-13L566.8,150.7z"/>
		<path d="M611.8,157.9c0-14.6,8.3-24.6,22-24.6c13.7,0,22,10,22,24.6c0,14.6-8.3,24.6-22,24.6C620.2,182.5,611.8,172.5,611.8,157.9
			z M647.3,157.9c0-13.6-4-20.9-13.4-20.9c-9.5,0-13.4,7.3-13.4,20.9c0,13.6,4,20.9,13.4,20.9C643.4,178.8,647.3,171.5,647.3,157.9z
			"/>
		<path d="M705.4,150.2h-14.3v27.6l5.7,1.5l-1.1,2.3h-15.6v-2.3l3.8-1.3v-28h-14.3v27.6l5.7,1.5l-1.1,2.3h-15.6v-2.3l3.8-1.3v-28
			h-5.9v-2.8l5.9-1.3v-2c0-11.3,6.6-17.3,17.4-17.3c3.6,0,7,1.2,8.8,3.3c2.8-2.8,6.7-4.1,11.7-4.1c4.9,0,9.4,1.7,9.4,6.3
			c0,2.8-1.9,4.7-4.4,4.7c-2.3,0-4.4-1.5-4.4-4.1c0-1.7,0.7-3.2,1.7-3.9c-0.9-0.2-1.5-0.3-2.3-0.3c-6.3,0-9.3,4.2-9.3,13.1v4.5h17
			l3.1-1.1h1.3v32.5l5.7,1.5l-1.1,2.3h-15.6v-2.3l3.8-1.3V150.2z M684.6,138.2c-1.9-0.4-3.2-1.8-3.2-4c0-1.7,0.7-3.2,1.7-3.9
			c-0.6-0.5-1.6-0.7-2.8-0.7c-6.9,0-10.5,4.4-10.5,12.8v4H684V144C684,141.9,684.3,139.9,684.6,138.2z"/>
		<path d="M736.3,149c-6.7,0-10.9,5.3-10.9,14.1c0,8.7,4.1,14.2,11.3,14.2c3.6,0,6.4-1.3,9.4-3.3l1.1,1.9c-3.5,5.2-8,6.7-13.3,6.7
			c-8.6,0-15.2-6.5-15.2-18.3c0-11.5,7.9-18.6,17.7-18.6c5.6,0,10.3,2.1,10.3,7c0,2.9-1.9,4.9-4.6,4.9c-2.5,0-4.6-1.6-4.6-4.5
			c0-1.5,0.7-2.8,1.8-3.6C738.4,149.2,737.7,149,736.3,149z"/>
		<path d="M766.5,177.3c4,0,6.8-1.1,10-3.3l1.1,1.9c-2.9,4.5-7,6.7-13.3,6.7c-8.7,0-15.6-6-15.6-18.1c0-12.1,7.6-18.8,16.7-18.8
			c7.3,0,12.6,4.5,12.6,12.7c0,1.3-0.1,2.7-0.4,4.2h-22C755.6,171.9,759.7,177.3,766.5,177.3z M755.8,159.1h14.8
			c0.1-0.6,0.1-1.6,0.1-2.2c0-5.1-2-7.8-6.2-7.8C760.6,149.1,756.9,152.2,755.8,159.1z"/>
	</g>
</g>
</svg>
