<!--
@Author: Brogan Miner <Brogan>
@Date:   2018-12-20T10:08:17-08:00
@Email:  brogan.miner@oregonstate.edu
@Last modified by:   Brogan
@Last modified time: 2019-01-11T12:33:54-08:00
-->

<svg id="Layer_1" data-name="Layer 1" xmlns="http://www.w3.org/2000/svg" xmlns:xlink="http://www.w3.org/1999/xlink" viewBox="0 0 97.7 160.77"><title>lightbulb</title><path class="cls-1" d="M54.55,160.77H44.15a7.28,7.28,0,0,1-4.92-1.91l-8.3-7.57a5,5,0,0,1-4.39-4.94v-24.5c-2.53-2.07-6.37-6.49-6.74-14.44-.32-6.73-.93-9-1.06-9.36C17.7,96,4.62,70.68,1.52,61.5-2,51.11-.16,28.85,14.93,14.08,28.45.85,44-2.92,63.86,2.2A43.79,43.79,0,0,1,96,34.11c2,8.25,4,24.54-4.72,40.85-1.63,3.05-3.15,5.8-4.49,8.22-5,9-8,14.47-8.57,21.14-.75,8.94-2.85,12.62-6.86,15.84v26.19a5,5,0,0,1-4.49,4.95l-7.1,7.27A7.35,7.35,0,0,1,54.55,160.77Zm-9.89-8.59H54l7.69-7.88a5.16,5.16,0,0,1,1.07-.84v-25a5.15,5.15,0,0,1,2.16-4.19c2.72-1.93,4.08-2.9,4.73-10.65.72-8.49,4.26-14.89,9.61-24.57,1.32-2.39,2.83-5.11,4.42-8.1,7.36-13.82,5.63-27.75,3.94-34.82A35.69,35.69,0,0,0,61.72,10.52c-16.89-4.36-29.47-1.36-40.77,9.7C8,32.85,7.22,51.55,9.66,58.75,12.49,67.15,25.22,91.88,26.34,94c.51.86,1.59,3.36,2,13,.28,5.85,3.33,8.11,4.25,8.67a5.17,5.17,0,0,1,2.5,4.41v23.5a5.24,5.24,0,0,1,.66.52ZM30,150.43h0ZM19,98.51h0Z"/><path class="cls-2" d="M67.06,137.26a4.3,4.3,0,0,1-4.3-4.3v-8.32a.77.77,0,0,0-.77-.77H35.9a.77.77,0,0,0-.77.77V133a4.3,4.3,0,0,1-8.59,0v-8.32a9.37,9.37,0,0,1,9.36-9.36H62a9.37,9.37,0,0,1,9.36,9.36V133A4.3,4.3,0,0,1,67.06,137.26Z"/><path class="cls-3" d="M56,123.79a4.3,4.3,0,0,1-4.3-4.3V91.78a17.56,17.56,0,0,1,1.48-7.07c1.39-3.18,4.5-10.69,11.45-28.38a3.65,3.65,0,0,0-4.1.57,5.9,5.9,0,0,1-7.76-.08c-2.34-2.1-4.47-2-6.91.21a5.92,5.92,0,0,1-7.16.65,6.29,6.29,0,0,0-4.85-1.13L45.39,85.31a14.69,14.69,0,0,1,1.07,5.51V119.5a4.3,4.3,0,0,1-8.59,0V90.82a6.16,6.16,0,0,0-.45-2.31L24.81,57.06a5.33,5.33,0,0,1,1.6-6.16,13.77,13.77,0,0,1,15.17-1.45,12.56,12.56,0,0,1,15.2-.39c4.68-2.8,10.47-2.14,15.28,1.91A5.36,5.36,0,0,1,73.6,57C65.92,76.61,62.54,84.76,61.06,88.15a9,9,0,0,0-.76,3.63V119.5A4.3,4.3,0,0,1,56,123.79Z"/><path class="cls-4" d="M56,106.22a4.3,4.3,0,0,1-4.3-4.3V97.76a2.68,2.68,0,1,0-5.36,0v4a4.3,4.3,0,0,1-8.59,0v-4a11.27,11.27,0,0,1,22.54,0v4.16A4.3,4.3,0,0,1,56,106.22Z"/></svg>
