<?xml version="1.0" encoding="UTF-8" standalone="no"?>
<svg
   xmlns:dc="http://purl.org/dc/elements/1.1/"
   xmlns:cc="http://creativecommons.org/ns#"
   xmlns:rdf="http://www.w3.org/1999/02/22-rdf-syntax-ns#"
   xmlns:svg="http://www.w3.org/2000/svg"
   xmlns="http://www.w3.org/2000/svg"
   viewBox="230 300 620 195"
   id="svg2"
   version="1.1"><metadata
     id="metadata8"><rdf:RDF><cc:Work
         rdf:about=""><dc:format>image/svg+xml</dc:format><dc:type
           rdf:resource="http://purl.org/dc/dcmitype/StillImage" /></cc:Work></rdf:RDF></metadata><defs
     id="defs6" /><g
     transform="matrix(1.3333333,0,0,-1.3333333,0,816)"
     id="g10"><g
       transform="scale(0.1)"
       id="g12"><path
         id="path14"
         style="fill:#ffffff;fill-opacity:1;fill-rule:nonzero;stroke:none"
         d="m 3113.47,3403.7 c 0,68.45 -15.16,94.72 -48.46,94.72 -33.67,0 -48.85,-26.27 -48.85,-94.72 0,-68.09 15.18,-94.73 48.85,-94.73 33.3,0 48.46,26.64 48.46,94.73 z m -152.81,0 c 0,69.56 37.74,112.48 104.35,112.48 66.23,0 103.97,-42.92 103.97,-112.48 0,-69.57 -37.74,-112.49 -103.97,-112.49 -66.61,0 -104.35,42.92 -104.35,112.49" /><path
         id="path16"
         style="fill:#ffffff;fill-opacity:1;fill-rule:nonzero;stroke:none"
         d="m 3273.32,3306.38 -4.82,-11.47 h -90.28 v 10.36 l 15.17,6.66 v 101.01 l -15.54,24.43 v 4.07 l 55.87,18.5 h 7.77 l -1.11,-37.74 h 1.48 c 7.4,18.87 21.83,37.74 46.25,37.74 19.61,0 31.46,-11.47 31.46,-29.6 0,-16.65 -11.48,-27.01 -25.54,-27.01 -15.91,0 -25.53,10.73 -25.53,25.9 -9.24,-4.07 -18.13,-12.58 -26.64,-23.68 v -92.14 l 31.46,-7.03" /><path
         id="path18"
         style="fill:#ffffff;fill-opacity:1;fill-rule:nonzero;stroke:none"
         d="m 3363.96,3396.29 h 52.17 c 0.74,2.96 1.11,7.77 1.11,13.7 0,17.39 -4.81,32.93 -22.2,32.93 -16.28,0 -28.12,-15.18 -31.08,-46.63 z m 46.25,-74 c 16.65,0 26.27,4.07 39.96,14.43 l 7.03,-8.14 c -11.83,-26.64 -34.41,-37.37 -65.85,-37.37 -42.19,0 -75.49,27.01 -75.49,82.14 0,55.88 37.73,86.59 82.52,86.59 36.26,0 61.41,-21.09 61.41,-59.94 0,-5.93 -0.37,-14.07 -1.84,-21.1 h -94.73 c 0.74,-33.67 15.54,-56.61 46.99,-56.61" /><path
         id="path20"
         style="fill:#ffffff;fill-opacity:1;fill-rule:nonzero;stroke:none"
         d="m 3542.29,3443.29 c -18.86,0 -22.19,-14.43 -22.19,-38.49 0,-23.68 3.33,-38.11 22.19,-38.11 19.25,0 22.57,14.43 22.57,38.11 0,24.06 -3.32,38.49 -22.57,38.49 z m -38.11,-185.38 c 0,-19.62 14.43,-28.87 39.97,-28.87 29.23,0 51.43,8.14 51.43,31.45 0,14.07 -7.4,22.58 -29.23,22.58 h -46.63 c -9.62,-5.18 -15.54,-13.32 -15.54,-25.16 z m 74.01,69.19 c 35.15,0 57.35,-17.02 57.35,-52.54 0,-45.15 -44.77,-61.8 -93.61,-61.8 -45.15,0 -78.46,10.36 -78.46,38.86 0,21.09 16.66,30.7 41.82,34.41 v 1.11 c -21.09,2.59 -32.93,14.8 -32.93,34.04 0,19.24 14.43,30.71 34.79,34.78 -21.1,7.4 -34.42,22.2 -34.42,46.26 0,32.56 24.42,57.72 71.05,57.72 19.24,0 41.8,-3.7 59.2,-12.21 -1.48,2.22 -2.22,5.18 -2.22,8.88 0,11.84 8.88,19.24 20.35,19.24 11.84,0 20.35,-8.14 20.35,-21.09 0,-14.06 -9.25,-21.84 -22.58,-21.84 -9.61,0 -18.49,3.71 -29.22,7.78 v -3.7 c 12.95,-5.93 21.83,-18.5 21.83,-35.15 0,-35.53 -35.53,-51.44 -68.08,-51.44 -8.15,0 -15.54,0.74 -22.57,2.59 -7.78,-2.59 -13.69,-6.66 -13.69,-14.8 0,-7.4 4.43,-11.1 13.32,-11.1 h 57.72" /><path
         id="path22"
         style="fill:#ffffff;fill-opacity:1;fill-rule:nonzero;stroke:none"
         d="m 3709.9,3308.23 c 24.79,0 31.45,24.42 31.45,67.34 0,42.93 -6.66,67.35 -31.45,67.35 -24.8,0 -31.46,-24.42 -31.46,-67.35 0,-42.92 6.66,-67.34 31.46,-67.34 z m 0,-17.02 c -49.95,0 -82.89,28.49 -82.89,84.36 0,55.88 32.94,84.37 82.89,84.37 49.95,0 82.89,-28.49 82.89,-84.37 0,-55.87 -32.94,-84.36 -82.89,-84.36" /><path
         id="path24"
         style="fill:#ffffff;fill-opacity:1;fill-rule:nonzero;stroke:none"
         d="m 3987.03,3305.64 -4.81,-10.73 h -81.03 v 10.36 l 15.17,7.03 v 80.66 c 0,24.06 -12.57,32.2 -26.26,32.2 -12.59,0 -22.58,-6.29 -29.24,-12.59 v -99.9 l 21.83,-7.03 -4.81,-10.73 h -80.67 v 10.36 l 15.17,6.66 v 101.39 l -15.54,24.42 v 4.07 l 55.87,18.13 h 7.78 l -1.12,-32.2 h 1.49 c 13.32,21.1 31.81,32.2 56.62,32.2 27.01,0 47.72,-18.87 47.72,-56.61 v -90.66 l 21.83,-7.03" /><path
         id="path26"
         style="fill:#ffffff;fill-opacity:1;fill-rule:nonzero;stroke:none"
         d="m 4141.31,3338.94 c 0,19.98 -10.36,29.6 -34.79,39.22 l -26.64,11.1 c -27.38,11.11 -43.29,29.61 -43.29,63.65 0,44.03 34.04,63.27 69.93,63.27 19.62,0 35.53,-4.44 46.99,-8.14 l 18.15,8.14 3.32,-61.42 -9.98,-2.22 -17.78,23.31 c -11.09,15.54 -22.56,23.68 -41.8,23.68 -17.4,0 -29.23,-11.1 -29.23,-28.12 0,-17.02 7.76,-27.01 29.96,-35.89 l 27.75,-11.11 c 34.79,-13.68 49.96,-33.67 49.96,-67.71 0,-44.4 -33.67,-65.49 -73.26,-65.49 -26.65,0 -40.7,6.66 -51.07,11.84 l -19.98,-11.84 -6.29,70.3 11.47,2.22 18.14,-26.27 c 12.21,-18.87 25.9,-28.86 46.99,-28.86 19.61,0 31.45,11.1 31.45,30.34" /><path
         id="path28"
         style="fill:#ffffff;fill-opacity:1;fill-rule:nonzero;stroke:none"
         d="m 4186.8,3449.21 59.21,50.69 h 11.1 v -43.66 h 48.84 l -2.59,-19.24 h -45.88 v -87.33 c 0,-21.46 8.14,-29.6 22.95,-29.6 9.61,0 17.01,2.22 27.37,7.77 l 3.7,-8.88 c -11.46,-17.39 -29.97,-27.75 -53.65,-27.75 -28.87,0 -48.85,14.43 -48.85,52.17 V 3437 h -22.2 v 12.21" /><path
         id="path30"
         style="fill:#ffffff;fill-opacity:1;fill-rule:nonzero;stroke:none"
         d="m 4394.74,3367.06 c -21.83,0 -34.41,-5.55 -34.41,-25.16 0,-13.69 8.14,-22.94 21.09,-22.94 8.15,0 14.81,1.85 21.47,7.77 v 40.33 z m 56.61,-36.63 c 0,-16.65 5.93,-20.35 23.32,-18.5 l 1.11,-7.4 c -9.26,-8.88 -21.47,-13.32 -38.85,-13.32 -15.92,0 -29.24,6.66 -32.2,23.68 l -1.11,0.37 c -7.76,-16.65 -24.79,-24.05 -44.77,-24.05 -24.79,0 -45.14,13.69 -45.14,44.4 0,32.56 25.9,48.47 66.97,48.47 7.77,0 16.28,-1.48 22.21,-2.96 v 14.07 c 0,21.46 -13.69,32.19 -35.53,32.19 -15.55,0 -28.5,-2.97 -44.03,-11.11 l -4.45,10.74 c 15.92,21.46 41.45,32.93 71.79,32.93 30.71,0 60.68,-13.69 60.68,-58.84 v -70.67" /><path
         id="path32"
         style="fill:#ffffff;fill-opacity:1;fill-rule:nonzero;stroke:none"
         d="m 4458.01,3449.21 59.19,50.69 h 11.1 v -43.66 h 48.85 l -2.59,-19.24 h -45.89 v -87.33 c 0,-21.46 8.14,-29.6 22.95,-29.6 9.62,0 17.02,2.22 27.38,7.77 l 3.69,-8.88 c -11.46,-17.39 -29.96,-27.75 -53.65,-27.75 -28.86,0 -48.84,14.43 -48.84,52.17 V 3437 h -22.19 v 12.21" /><path
         id="path34"
         style="fill:#ffffff;fill-opacity:1;fill-rule:nonzero;stroke:none"
         d="m 4627.46,3396.29 h 52.17 c 0.74,2.96 1.11,7.77 1.11,13.7 0,17.39 -4.8,32.93 -22.2,32.93 -16.28,0 -28.12,-15.18 -31.08,-46.63 z m 46.25,-74 c 16.66,0 26.27,4.07 39.96,14.43 l 7.03,-8.14 c -11.84,-26.64 -34.41,-37.37 -65.86,-37.37 -42.19,0 -75.49,27.01 -75.49,82.14 0,55.88 37.75,86.59 82.52,86.59 36.26,0 61.43,-21.09 61.43,-59.94 0,-5.93 -0.37,-14.07 -1.86,-21.1 h -94.72 c 0.74,-33.67 15.54,-56.61 46.99,-56.61" /><path
         id="path36"
         style="fill:#ffffff;fill-opacity:1;fill-rule:nonzero;stroke:none"
         d="m 4953.43,3371.87 c 0,-51.43 -33.32,-80.66 -84.74,-80.66 -51.07,0 -88.81,21.83 -88.81,79.18 v 121.74 l -23.68,8.51 2.59,11.84 h 92.14 l 2.95,-11.84 -23.67,-8.51 v -121 c 0,-39.22 17.76,-55.5 47.73,-55.5 30.34,0 50.69,17.76 50.69,56.61 v 119.89 l -28.12,8.51 2.96,11.84 h 70.67 l 2.97,-11.84 -23.68,-8.51 v -120.26" /><path
         id="path38"
         style="fill:#ffffff;fill-opacity:1;fill-rule:nonzero;stroke:none"
         d="m 5158.4,3305.64 -4.81,-10.73 h -81.03 v 10.36 l 15.17,7.03 v 80.66 c 0,24.06 -12.58,32.2 -26.27,32.2 -12.59,0 -22.58,-6.29 -29.24,-12.59 v -99.9 l 21.84,-7.03 -4.81,-10.73 h -80.67 v 10.36 l 15.17,6.66 v 101.39 l -15.54,24.42 v 4.07 l 55.87,18.13 h 7.77 l -1.11,-32.2 h 1.48 c 13.32,21.1 31.82,32.2 56.63,32.2 27.01,0 47.72,-18.87 47.72,-56.61 v -90.66 l 21.83,-7.03" /><path
         id="path40"
         style="fill:#ffffff;fill-opacity:1;fill-rule:nonzero;stroke:none"
         d="m 5200.56,3539.49 c 16.66,0 29.98,-13.32 29.98,-30.34 0,-16.65 -13.32,-29.6 -29.98,-29.6 -17.01,0 -29.97,12.95 -29.97,29.6 0,17.02 12.96,30.34 29.97,30.34 z m 46.25,-233.85 -4.8,-10.73 h -80.66 v 10.36 l 15.17,6.66 v 101.39 l -15.55,24.42 v 4.07 l 55.88,18.13 h 8.14 v -147.27 l 21.82,-7.03" /><path
         id="path42"
         style="fill:#ffffff;fill-opacity:1;fill-rule:nonzero;stroke:none"
         d="m 5368.91,3436.63 -23.31,7.03 1.86,12.58 h 62.53 l 2.21,-12.21 -17.01,-5.92 -55.13,-143.2 h -36.64 l -55.13,138.76 -16.65,11.1 2.59,11.47 h 85.47 l 2.59,-12.95 -23.68,-5.55 22.58,-64.02 c 8.5,-24.79 11.46,-42.92 11.46,-42.92 h 1.49 c 0,0 3.69,18.5 12.95,43.29 l 21.82,62.54" /><path
         id="path44"
         style="fill:#ffffff;fill-opacity:1;fill-rule:nonzero;stroke:none"
         d="m 5445.87,3396.29 h 52.17 c 0.75,2.96 1.12,7.77 1.12,13.7 0,17.39 -4.83,32.93 -22.21,32.93 -16.29,0 -28.12,-15.18 -31.08,-46.63 z m 46.26,-74 c 16.64,0 26.27,4.07 39.96,14.43 l 7.03,-8.14 c -11.85,-26.64 -34.42,-37.37 -65.87,-37.37 -42.18,0 -75.48,27.01 -75.48,82.14 0,55.88 37.74,86.59 82.51,86.59 36.26,0 61.42,-21.09 61.42,-59.94 0,-5.93 -0.36,-14.07 -1.84,-21.1 h -94.73 c 0.74,-33.67 15.53,-56.61 47,-56.61" /><path
         id="path46"
         style="fill:#ffffff;fill-opacity:1;fill-rule:nonzero;stroke:none"
         d="m 5641.59,3306.38 -4.81,-11.47 h -90.28 v 10.36 l 15.17,6.66 v 101.01 l -15.54,24.43 v 4.07 l 55.87,18.5 h 7.76 l -1.1,-37.74 h 1.48 c 7.4,18.87 21.83,37.74 46.26,37.74 19.6,0 31.45,-11.47 31.45,-29.6 0,-16.65 -11.47,-27.01 -25.54,-27.01 -15.9,0 -25.53,10.73 -25.53,25.9 -9.24,-4.07 -18.13,-12.58 -26.64,-23.68 v -92.14 l 31.45,-7.03" /><path
         id="path48"
         style="fill:#ffffff;fill-opacity:1;fill-rule:nonzero;stroke:none"
         d="m 5696.72,3347.82 c 19.61,-32.56 33.3,-40.7 54.02,-40.7 14.8,0 25.53,4.81 25.53,19.61 0,11.84 -7.03,18.5 -23.68,23.68 l -24.06,7.77 c -25.52,7.77 -39.59,22.57 -39.59,49.95 0,35.9 24.79,51.81 58.09,51.81 12.59,0 26.65,-2.96 35.16,-7.4 l 20.35,7.03 1.11,-48.48 -8.89,-2.21 c -14.79,23.68 -28.85,34.41 -47.36,34.41 -13.32,0 -21.45,-7.04 -21.45,-17.76 0,-10.36 5.54,-16.29 18.5,-20.73 l 26.64,-8.88 c 30.33,-9.99 44.03,-25.53 44.03,-53.65 0,-35.89 -25.16,-51.06 -65.49,-51.06 -14.06,0 -28.87,3.7 -39.59,8.51 l -19.25,-8.51 -4.07,54.39 10,2.22" /><path
         id="path50"
         style="fill:#ffffff;fill-opacity:1;fill-rule:nonzero;stroke:none"
         d="m 5859.51,3539.49 c 16.66,0 29.98,-13.32 29.98,-30.34 0,-16.65 -13.32,-29.6 -29.98,-29.6 -17.01,0 -29.97,12.95 -29.97,29.6 0,17.02 12.96,30.34 29.97,30.34 z m 46.25,-233.85 -4.8,-10.73 h -80.67 v 10.36 l 15.18,6.66 v 101.39 l -15.55,24.42 v 4.07 l 55.88,18.13 h 8.13 v -147.27 l 21.83,-7.03" /><path
         id="path52"
         style="fill:#ffffff;fill-opacity:1;fill-rule:nonzero;stroke:none"
         d="m 5897.24,3449.21 59.2,50.69 h 11.11 v -43.66 h 48.85 l -2.59,-19.24 h -45.89 v -87.33 c 0,-21.46 8.13,-29.6 22.94,-29.6 9.63,0 17.03,2.22 27.38,7.77 l 3.7,-8.88 c -11.47,-17.39 -29.97,-27.75 -53.65,-27.75 -28.86,0 -48.84,14.43 -48.84,52.17 V 3437 h -22.21 v 12.21" /><path
         id="path54"
         style="fill:#ffffff;fill-opacity:1;fill-rule:nonzero;stroke:none"
         d="m 6015.27,3433.67 -16.65,11.1 2.59,11.47 h 85.85 l 2.22,-12.95 -23.69,-5.55 24.06,-61.06 c 10.36,-26.64 11.46,-43.66 11.46,-43.66 h 1.49 c 0,0 4.07,18.87 12.57,44.03 l 20.36,59.58 -23.3,7.03 1.84,12.58 h 62.16 l 2.23,-12.21 -17.03,-5.92 -54.39,-145.79 c -19.25,-51.81 -39.6,-78.08 -76.96,-78.08 -23.32,0 -33.67,13.69 -33.67,29.97 0,15.55 9.24,25.54 24.78,25.54 15.92,0 22.95,-11.11 22.95,-22.95 0,-7.77 -3.34,-12.58 -5.92,-15.54 15.9,1.48 32.93,23.69 41.07,48.85 l -64.02,153.56" /><path
         id="path56"
         style="fill:#ffffff;fill-opacity:1;fill-rule:nonzero;stroke:none"
         d="m 2836.53,3360.81 c -8.32,48.16 -20.24,87.3 -36.43,119.63 -14.02,27.98 -31.43,50.78 -51.74,67.77 -28.39,23.74 -62.59,36.29 -98.88,36.29 -17.28,0 -34.01,-2.35 -49.83,-6.88 l 53.36,114.22 -109.07,77.46 h -78.59 c -13.37,0 -28.04,10.16 -46.63,23.02 -32.86,22.74 -77.86,53.87 -153.87,53.87 -64.25,0 -114.94,-17.87 -154.96,-54.66 0,0 -259.84,-253.48 -261.27,-254.9 v 0.01 c -15.11,-15.39 -28.33,-34.29 -39.3,-56.19 -16.2,-32.34 -28.12,-71.48 -36.43,-119.64 -17.41,-100.85 -13.98,-201.62 9.93,-291.38 25.81,-96.86 72.97,-189.81 140.17,-276.27 82.11,-105.66 194.45,-201.67 333.89,-285.34 l 47.82,-28.71 47.83,28.71 c 139.45,83.68 251.78,179.68 333.9,285.34 67.2,86.46 114.35,179.41 140.15,276.27 23.92,89.76 27.36,190.52 9.95,291.38" /><path
         id="path58"
         style="fill:#231f20;fill-opacity:1;fill-rule:nonzero;stroke:none"
         d="m 2227.89,3467.9 h -144.95 l -13.04,-218.17 c 7.96,-1.2 15.74,-3.54 23.07,-6.95 l 134.92,225.12" /><path
         id="path60"
         style="fill:#231f20;fill-opacity:1;fill-rule:nonzero;stroke:none"
         d="m 2115.22,2973.06 c -0.39,0.18 -0.8,0.38 -1.2,0.56 v -17.69 c 2.32,-1.09 4.71,-2.13 7.2,-3.14 11.1,-4.49 24.47,-8.02 45.05,-8.02 22.5,0 36.37,4.21 48.08,9.28 v 17.58 c -12.15,-5.76 -24.56,-10.87 -48.08,-10.87 -21.57,0 -33.8,4.3 -45.05,9.46 -2.01,0.92 -4,1.87 -6,2.84" /><path
         id="path62"
         style="fill:#231f20;fill-opacity:1;fill-rule:nonzero;stroke:none"
         d="m 2121.22,2905.23 c -2.01,0.92 -4,1.87 -6,2.83 -0.39,0.19 -0.8,0.39 -1.2,0.57 v -17.7 c 2.32,-1.08 4.71,-2.12 7.2,-3.14 11.1,-4.48 24.47,-8.01 45.05,-8.01 15.8,0 27.33,2.09 36.86,5.07 v 16.95 c -9.31,-3.51 -20.34,-6.03 -36.86,-6.03 -21.57,0 -33.8,4.3 -45.05,9.46" /><path
         id="path64"
         style="fill:#231f20;fill-opacity:1;fill-rule:nonzero;stroke:none"
         d="m 2121.22,2840.36 c -2.01,0.93 -4,1.88 -6,2.83 -0.39,0.19 -0.8,0.38 -1.2,0.58 v -17.71 c 2.32,-1.07 4.71,-2.12 7.2,-3.13 11.1,-4.48 24.47,-8.03 45.05,-8.03 8.21,0 15.25,0.58 21.48,1.55 v 16.23 c -6.07,-1.12 -13.06,-1.78 -21.48,-1.78 -21.57,0 -33.8,4.3 -45.05,9.46" /><path
         id="path66"
         style="fill:#231f20;fill-opacity:1;fill-rule:nonzero;stroke:none"
         d="m 2284.19,3768.45 c 12.04,-2.56 23.65,-6.5 34.58,-11.93 10.95,-5.4 21.25,-12.12 31.42,-19.53 15.08,-10.88 30.31,-23.5 48.19,-33.47 v 27.03 c -12.28,6.74 -24.5,14.89 -37.27,22.8 -11.18,6.9 -23.01,13.42 -35.57,18.44 -12.53,5.08 -25.78,8.44 -39.06,10.21 -13.29,1.76 -26.68,1.87 -39.75,0.82 -0.77,-0.06 -1.52,-0.16 -2.28,-0.22 V 3772 c 0.89,0.01 1.78,0.05 2.67,0.05 12.59,0.05 25.02,-1.04 37.07,-3.6" /><path
         id="path68"
         style="fill:#231f20;fill-opacity:1;fill-rule:nonzero;stroke:none"
         d="m 2789.05,3079.43 c -15.1,-56.67 -37.99,-111.99 -68.32,-165.41 l -0.01,-0.01 c -1.56,-2.74 -3.16,-5.47 -4.76,-8.2 -1.2,-2.04 -2.39,-4.09 -3.61,-6.13 -1.57,-2.64 -3.16,-5.27 -4.77,-7.88 -1.38,-2.26 -2.78,-4.51 -4.19,-6.75 -1.51,-2.41 -3.02,-4.83 -4.56,-7.23 -2.78,-4.32 -5.6,-8.64 -8.48,-12.94 -1.11,-1.66 -2.26,-3.31 -3.38,-4.97 -2.15,-3.15 -4.32,-6.31 -6.52,-9.46 -1.27,-1.8 -2.55,-3.6 -3.84,-5.4 -2.25,-3.18 -4.54,-6.33 -6.86,-9.48 -1.14,-1.56 -2.27,-3.11 -3.42,-4.66 -3.44,-4.61 -6.92,-9.21 -10.47,-13.78 -0.03,-0.05 -0.07,-0.09 -0.1,-0.14 -3.3,-4.24 -6.73,-8.45 -10.13,-12.66 -37.4,-46.33 -80.93,-90.77 -130.42,-133.01 -36.51,-31.16 -76.3,-61.11 -119.11,-89.81 -20.51,-13.75 -41.65,-27.23 -63.56,-40.39 l -27.83,-16.7 h -0.01 l -27.83,16.7 c -135.31,81.2 -244.06,174.03 -323.22,275.87 -2.31,2.98 -4.54,5.97 -6.8,8.96 -1.52,2.01 -3.08,4.01 -4.57,6.02 -2.76,3.71 -5.44,7.45 -8.11,11.18 -0.94,1.32 -1.92,2.62 -2.85,3.94 -3.04,4.3 -6.01,8.61 -8.95,12.94 -0.5,0.73 -1.02,1.45 -1.51,2.19 -3.22,4.76 -6.37,9.56 -9.47,14.37 -0.17,0.27 -0.35,0.53 -0.52,0.79 -41.56,64.61 -71.93,132.32 -90.51,202.05 -22.48,84.39 -25.66,179.4 -9.19,274.77 5.37,31.08 12.29,57.78 20.91,80.97 2.64,-17.12 9.35,-32.91 19.08,-46.39 -3.17,-12.38 -5.96,-25.49 -8.47,-40.02 -3.92,-22.74 -6.68,-45.41 -8.28,-67.92 l 150.56,-70.34 c 2.53,4.04 5.29,7.92 8.46,11.46 2.28,2.57 4.76,4.94 7.32,7.21 l -91.03,118.71 c 9.19,-2.56 18.87,-3.96 28.87,-3.96 7.19,0 14.23,0.79 21.08,2.15 l 61.9,-103.27 c 7.32,3.41 15.12,5.7 23.08,6.91 l -9.25,154.72 c 3.13,6.43 5.73,13.2 7.57,20.33 l 21.97,72.49 0.8,2.64 h 482.3 l 3.41,3.79 c 17.2,19.15 48.17,41.97 98.03,41.97 27.07,0 52.65,-9.41 73.96,-27.23 16.21,-13.56 30.31,-32.18 41.92,-55.37 14.47,-28.88 25.22,-64.49 32.88,-108.85 16.47,-95.37 13.29,-190.38 -9.19,-274.77 z m -768.16,351.23 c -8.89,-34.87 -38.63,-59.95 -73.9,-63.43 -2.77,-0.28 -5.57,-0.46 -8.4,-0.46 -44.9,0 -81.67,35.04 -84.64,79.19 -0.13,1.91 -0.29,3.81 -0.29,5.74 0,23.27 9.68,45.56 26.8,61.82 1.81,1.69 82.84,80.82 82.84,80.82 h 82.55 v -81.33 z m 115.53,332.5 c 11.89,10.93 48.08,44.19 128.43,44.19 63.88,0 99.95,-24.95 131.77,-46.97 23.21,-16.05 43.24,-29.92 68.73,-29.92 h 66.2 l 72.56,-51.53 -30.04,-64.29 h -65.22 c -9.49,0.65 -18.84,4.07 -26.24,10.46 -9.29,7.82 -15.08,19.93 -16.08,33.1 h -11.46 c -0.41,-7.81 0.48,-15.89 3.01,-23.63 2.54,-7.84 6.78,-15.3 12.44,-21.62 2.49,-2.78 5.29,-5.29 8.26,-7.59 l -16.16,-34.59 44.47,-48.03 h -33.77 l -58.46,50.16 h -13.61 l 43.03,-50.16 h -86.45 l -49.94,49.94 h -29.77 c 5.97,13.42 9.48,27.88 10.09,42.42 0.14,2.67 0.13,5.33 0.11,7.99 l -0.57,7.96 -0.31,3.98 -0.67,3.93 -1.42,7.83 c -2.66,10.28 -6.15,20.34 -11.33,29.55 -5.22,9.14 -11.24,17.87 -18.75,25.21 l -2.71,2.83 -2.96,2.58 c -1.99,1.69 -3.9,3.47 -5.96,5.08 -4.27,3 -8.39,6.21 -13.02,8.63 -13.93,8.29 -29.68,13.01 -45.62,14.62 -4.57,0.46 -9.15,0.7 -13.71,0.65 v -11.06 c 18.5,-0.78 36.8,-6 52.04,-16.17 3.95,-2.3 7.4,-5.34 10.99,-8.11 1.72,-1.48 3.3,-3.13 4.96,-4.68 l 2.46,-2.36 2.21,-2.58 c 6.19,-6.65 10.95,-14.46 15.01,-22.45 4.04,-8.06 6.51,-16.74 8.34,-25.46 l 0.83,-6.64 0.42,-3.31 0.07,-3.35 0.16,-6.67 c -0.1,-2.22 -0.2,-4.44 -0.43,-6.65 -1.64,-17.68 -8.29,-34.62 -18.78,-48.6 l -13.52,-18.03 h 62.38 l 27.08,-27.08 H 2068.7 v 94.45 h -81.97 z m 684.34,-405.07 c -8.04,46.6 -19.48,84.28 -34.97,115.2 -13.02,26 -29.06,47.08 -47.69,62.66 -25.48,21.3 -56.12,32.56 -88.62,32.56 -43.58,0 -82.91,-16.17 -111.37,-45.63 l -48.28,52.14 7.83,16.77 h 65.74 l -7.84,-16.79 h 25.22 l 52.1,111.52 -94.03,66.79 h -73.5 c -18.35,0 -34.85,11.42 -55.73,25.86 -32.86,22.74 -73.75,51.04 -144.77,51.04 -60.06,0 -107.13,-16.43 -144.13,-50.45 L 1954.01,3617.19 H 1954 c 0,0 -93.7,-91.46 -93.97,-91.76 -13.88,-14.13 -26.11,-31.57 -36.41,-52.14 -15.49,-30.92 -26.93,-68.6 -34.97,-115.2 -17.03,-98.6 -13.7,-196.99 9.63,-284.55 25.25,-94.77 71.45,-185.81 137.33,-270.57 80.9,-104.08 191.76,-198.78 329.5,-281.44 l 39.59,-23.77 39.59,23.77 c 137.75,82.66 248.61,177.35 329.51,281.44 65.88,84.76 112.08,175.8 137.34,270.57 23.32,87.56 26.65,185.95 9.62,284.55" /><path
         id="path70"
         style="fill:#231f20;fill-opacity:1;fill-rule:nonzero;stroke:none"
         d="m 2537.05,3671.94 c 6.81,0 12.34,5.53 12.34,12.34 0,6.82 -5.53,12.35 -12.34,12.35 -6.82,0 -12.35,-5.53 -12.35,-12.35 0,-6.81 5.53,-12.34 12.35,-12.34" /><path
         id="path72"
         style="fill:#231f20;fill-opacity:1;fill-rule:nonzero;stroke:none"
         d="m 2466.51,3677.82 c 0,0 0.02,0.08 0.05,0.22 0.45,1.91 4.36,16.38 19.1,18.85 v 11.7 h -30.73 v -30.77 h 11.58" /><path
         id="path74"
         style="fill:#231f20;fill-opacity:1;fill-rule:nonzero;stroke:none"
         d="m 2383.71,3020.45 c 13.88,-6.66 29.59,-14.21 59.45,-14.21 20.23,0 33.96,3.47 45.04,7.77 0.15,0.06 0.3,0.12 0.45,0.18 5.08,2 9.61,4.17 13.96,6.26 0.27,0.13 0.54,0.26 0.82,0.39 2.55,1.23 5.07,2.41 7.62,3.53 0.44,0.2 0.87,0.4 1.31,0.58 l 28.37,-21.35 -0.01,-233.99 c -0.03,-0.03 -0.05,-0.06 -0.08,-0.08 l -14.27,11.94 v 214.07 l -16,12.03 v -222.36 c -5.88,-2.16 -11.09,-4.62 -16.17,-7.07 -1.11,-0.52 -2.21,-1.05 -3.31,-1.58 -12.04,-5.69 -24.43,-10.71 -47.74,-10.71 -25.43,0 -37.87,5.98 -51.05,12.29 -13.9,6.68 -28.31,13.56 -56.19,13.84 l -1.62,21.05 -1.85,24.2 71.99,-35.68 -4.95,23.14 -33.52,156.51 26.74,-5.44 -9.75,45.05 c 0.26,-0.12 0.5,-0.24 0.76,-0.36 z m -157.98,0 c 0.24,0.12 0.49,0.23 0.74,0.36 l -9.73,-44.96 h 0.01 l -0.02,-0.1 26.73,5.45 -38.45,-179.64 71.65,35.5 -1.81,-24.13 -1.58,-20.95 c -27.72,-0.32 -42.09,-7.18 -55.95,-13.84 -13.17,-6.31 -25.62,-12.29 -51.05,-12.29 -23.3,0 -35.7,5.02 -47.74,10.71 -1.1,0.53 -2.2,1.06 -3.31,1.58 -5.08,2.45 -10.29,4.91 -16.17,7.07 v 222.36 l -0.68,-0.51 -15.32,-11.52 v -214.07 l -14.27,-11.95 c -0.03,0.03 -0.05,0.05 -0.08,0.08 v 234 l 28.36,21.35 c 0.44,-0.18 0.88,-0.38 1.31,-0.58 1.92,-0.83 3.81,-1.7 5.7,-2.61 0.92,-0.43 1.83,-0.87 2.75,-1.32 4.34,-2.08 8.87,-4.25 13.95,-6.25 0.15,-0.06 0.31,-0.11 0.45,-0.17 11.08,-4.3 24.81,-7.78 45.05,-7.78 29.86,0 45.58,7.55 59.46,14.21 z m 269.46,-259.53 c 2,0.93 3.97,1.86 5.93,2.8 4.61,2.21 9.13,4.36 14.1,6.23 l 12.73,-10.66 c -3.53,-1.04 -6.77,-2.32 -10.09,-3.8 -0.31,-0.15 -0.65,-0.3 -0.97,-0.45 -1.9,-0.87 -3.83,-1.79 -5.89,-2.77 -0.87,-0.42 -1.75,-0.84 -2.64,-1.26 -15.13,-7.22 -32.84,-14.86 -65.21,-14.86 -34.27,0 -52.12,8.57 -67.86,16.13 -11.3,5.42 -19.7,9.43 -37.1,9.97 l -0.79,10.29 -0.27,3.43 c 23.41,-0.45 35.42,-6.18 48.05,-12.25 14.21,-6.82 28.89,-13.87 57.97,-13.87 25.08,0 39.45,5.25 52.04,11.07 z m -223.38,11.62 -0.77,-10.3 c -17.27,-0.56 -25.65,-4.56 -36.9,-9.96 -15.75,-7.56 -33.6,-16.13 -67.87,-16.13 -32.38,0 -50.08,7.64 -65.21,14.86 -0.89,0.42 -1.77,0.84 -2.64,1.26 -2.41,1.16 -4.66,2.22 -6.86,3.22 -0.34,0.14 -0.68,0.29 -1.02,0.44 -2.96,1.3 -5.9,2.43 -9.07,3.36 l 9.54,7.99 0.15,0.13 0.4,0.32 2.64,2.22 c 4.97,-1.87 9.5,-4.02 14.1,-6.23 1.96,-0.94 3.92,-1.87 5.94,-2.8 12.59,-5.82 26.96,-11.07 52.03,-11.07 29.07,0 43.76,7.05 57.97,13.87 12.59,6.05 24.56,11.76 47.83,12.25 z m 46.71,46 5.23,-160.07 h -38.07 l 5.57,160.2 0.9,26.08 12.56,6.22 12.96,-6.43 z m 44.44,186.59 -25.79,5.25 v 0 l 35.44,-169.38 0.01,-0.05 v 0 l 0.01,-0.05 -67.92,27.39 -67.92,-27.39 0.01,0.05 h -0.01 l 35.46,169.43 -25.79,-5.24 h 0.01 -0.01 l 33.72,161.14 h 0.01 l -19.51,-3.97 41.92,224.21 h 4.21 l 41.93,-224.21 -19.5,3.97 v 0 z m 95.8,292.94 -3.52,-2.56 -21.11,15.34 -21.11,-15.34 -3.52,2.56 8.07,24.81 -21.11,15.34 1.34,4.13 h 26.09 l 8.07,24.82 h 4.35 l 8.06,-24.82 h 26.09 l 1.34,-4.13 -21.1,-15.34 z m 118.04,43.12 -3.52,-2.56 -21.1,15.34 -21.12,-15.34 -3.51,2.56 8.06,24.81 -21.11,15.34 1.34,4.13 h 26.1 l 8.06,24.82 h 4.35 l 8.06,-24.82 h 26.09 l 1.35,-4.13 -21.11,-15.34 z m 55.74,-2.97 1.34,4.13 h 26.1 l 8.06,24.82 h 4.35 l 8.06,-24.82 h 26.1 l 1.34,-4.13 -21.11,-15.34 8.06,-24.81 -3.51,-2.56 -21.11,15.34 -21.12,-15.34 -3.51,2.56 8.06,24.81 z m 134.18,10.54 c -12.99,75.23 -43.87,164.9 -117.24,164.9 -52.07,0 -76.25,-31.24 -84.68,-45.76 h -267.95 l -183.03,-238.71 c 2.31,-2.03 4.51,-4.19 6.59,-6.47 3.71,-3.99 6.95,-8.41 9.8,-13.07 l 131.28,59.37 -10.81,-47.55 -110.59,-35.12 c 2.18,-8.17 3.25,-16.67 3.13,-25.25 -3.94,0.82 -7.46,1.84 -10.77,3.01 -3.74,1.32 -7.2,2.82 -10.66,4.43 -1.69,0.78 -3.36,1.59 -5.08,2.41 -3.26,1.56 -6.62,3.17 -10.24,4.72 -7.58,3.25 -16.3,6.22 -27.61,7.94 -1.55,0.24 -3.15,0.45 -4.81,0.64 -2.55,0.29 -5.22,0.51 -8.03,0.66 -2.42,0.13 -4.95,0.21 -7.6,0.23 -0.4,0 -0.77,0.02 -1.17,0.02 -0.38,0 -0.74,-0.02 -1.12,-0.02 -2.65,-0.02 -5.18,-0.1 -7.61,-0.23 -2.61,-0.14 -5.12,-0.34 -7.52,-0.6 -1.84,-0.2 -3.6,-0.43 -5.32,-0.69 -10.87,-1.66 -19.37,-4.46 -26.73,-7.56 -3.97,-1.67 -7.61,-3.42 -11.14,-5.11 -1.79,-0.86 -3.55,-1.7 -5.31,-2.52 -3.37,-1.56 -6.75,-3.02 -10.39,-4.3 -3.3,-1.17 -6.82,-2.2 -10.74,-3.02 -0.14,8.95 1.04,17.81 3.42,26.28 l -141.99,47.13 c 0.01,-16.62 0.74,-33.1 2.06,-49.43 -0.02,0 -0.04,0 -0.06,0 0.13,-1.66 0.34,-3.29 0.49,-4.94 0.31,-3.41 0.54,-6.84 0.9,-10.24 l 0.13,0.02 c 0.27,-2.55 0.46,-5.13 0.76,-7.65 0.73,0.01 1.42,0.02 2.16,0.02 1.92,0 3.74,-0.04 5.5,-0.1 0.39,-0.02 0.78,-0.04 1.17,-0.06 1.52,-0.06 2.99,-0.16 4.41,-0.27 0.19,-0.02 0.38,-0.03 0.56,-0.04 3.42,-0.3 6.55,-0.73 9.46,-1.26 v 0 c 11.57,-2.13 19.63,-5.98 28.47,-10.22 13.87,-6.66 29.6,-14.21 59.44,-14.21 29.86,0 45.58,7.55 59.45,14.21 4.28,2.05 8.37,4.01 12.76,5.73 8.08,3.16 17.21,5.5 30.38,6.07 1.32,0.06 2.68,0.1 4.08,0.12 0.78,0.02 1.53,0.03 2.33,0.03 0.79,0 1.53,-0.01 2.28,-0.03 1.49,-0.02 2.94,-0.06 4.33,-0.13 12.45,-0.55 21.28,-2.69 29.03,-5.62 4.84,-1.82 9.28,-3.94 13.93,-6.17 13.88,-6.66 29.6,-14.21 59.45,-14.21 29.86,0 45.58,7.55 59.46,14.21 3.31,1.59 6.51,3.13 9.83,4.54 l -5.01,-22.04 21.1,4.3 -5.03,-23.26 c -11.97,-2.68 -20.74,-6.86 -29.3,-10.97 -13.17,-6.33 -25.62,-12.3 -51.05,-12.3 -25.43,0 -37.87,5.97 -51.05,12.3 -14.2,6.81 -28.89,13.86 -57.97,13.86 -29.06,0 -43.75,-7.05 -57.95,-13.86 -13.17,-6.33 -25.61,-12.3 -51.05,-12.3 -25.43,0 -37.86,5.97 -51.03,12.3 -8.37,4.01 -17,8.11 -28.7,10.81 l -0.01,0.02 c -0.59,0.14 -1.23,0.25 -1.84,0.38 -0.93,0.2 -1.85,0.4 -2.81,0.57 -1.06,0.2 -2.19,0.37 -3.31,0.54 -0.72,0.11 -1.38,0.24 -2.12,0.35 l -0.01,-0.03 c -4.24,0.58 -8.83,0.98 -13.93,1.14 1.13,-5.44 2.34,-10.83 3.62,-16.18 3.37,-0.21 6.44,-0.55 9.34,-0.98 1.06,-0.16 2.07,-0.33 3.07,-0.52 0.71,-0.12 1.44,-0.25 2.12,-0.38 1.63,-0.34 3.2,-0.7 4.71,-1.09 0.15,-0.04 0.29,-0.08 0.44,-0.12 1.63,-0.44 3.2,-0.91 4.71,-1.4 6.49,-2.14 12.07,-4.79 17.8,-7.54 14.2,-6.82 28.89,-13.87 57.95,-13.87 29.08,0 43.76,7.05 57.97,13.87 13.17,6.32 25.61,12.3 51.03,12.3 25.44,0 37.88,-5.98 51.05,-12.3 14.21,-6.82 28.89,-13.87 57.97,-13.87 29.07,0 43.76,7.05 57.97,13.87 5.91,2.84 11.7,5.61 18.57,7.79 l -10.39,-47.98 c -6.17,-2.26 -11.51,-4.81 -16.59,-7.26 -13.36,-6.41 -24.91,-11.95 -49.56,-11.95 -24.65,0 -36.19,5.54 -49.56,11.95 -13.88,6.67 -29.6,14.21 -59.46,14.21 -29.84,0 -45.57,-7.54 -59.44,-14.21 -13.36,-6.41 -24.9,-11.95 -49.56,-11.95 -24.64,0 -36.18,5.54 -49.55,11.95 -3.33,1.61 -6.82,3.24 -10.51,4.82 0,0.01 -0.01,0.02 -0.01,0.03 -0.21,0.09 -0.45,0.17 -0.66,0.26 -0.47,0.2 -0.89,0.4 -1.37,0.6 l -0.01,-0.04 c -6.92,2.81 -14.8,5.36 -24.74,6.91 2.77,-8.44 5.76,-16.84 8.89,-25.22 l -0.05,-0.02 c 13.45,-35.96 30.36,-71.35 50.52,-105.91 0.92,-1.56 1.82,-3.13 2.74,-4.71 1.46,-2.44 2.95,-4.88 4.44,-7.32 1.1,-1.81 2.18,-3.61 3.3,-5.41 1.43,-2.31 2.9,-4.61 4.36,-6.91 1.23,-1.94 2.47,-3.88 3.72,-5.82 1.41,-2.17 2.85,-4.35 4.29,-6.53 1.38,-2.09 2.78,-4.18 4.19,-6.26 1.37,-2.01 2.74,-4.03 4.13,-6.04 1.59,-2.31 3.2,-4.6 4.83,-6.9 1.27,-1.8 2.54,-3.61 3.83,-5.42 1.91,-2.64 3.85,-5.28 5.79,-7.92 1.07,-1.45 2.13,-2.91 3.21,-4.35 3.06,-4.1 6.17,-8.19 9.33,-12.26 76.71,-98.71 182.5,-188.91 314.42,-268.07 l 11.36,-6.82 11.37,6.82 c 131.92,79.16 237.71,169.36 314.43,268.07 0.1,0.14 0.2,0.27 0.3,0.41 4.77,6.14 9.4,12.33 13.94,18.53 0.57,0.78 1.15,1.56 1.72,2.34 4.58,6.31 9.05,12.67 13.4,19.04 0.37,0.54 0.73,1.09 1.1,1.62 9.24,13.62 17.99,27.38 26.18,41.28 21.42,36.38 39.21,73.7 53.19,111.64 l -0.07,0.03 c 2.71,7.35 5.33,14.71 7.75,22.11 -9.92,-1.55 -17.8,-4.1 -24.72,-6.91 l -0.01,0.04 c -0.44,-0.18 -0.83,-0.36 -1.26,-0.55 -0.25,-0.11 -0.53,-0.2 -0.79,-0.31 0,-0.01 0,-0.02 -0.01,-0.04 -3.68,-1.57 -7.16,-3.2 -10.49,-4.81 -13.36,-6.41 -24.91,-11.95 -49.56,-11.95 -24.64,0 -36.19,5.54 -49.55,11.95 -13.87,6.67 -29.6,14.21 -59.45,14.21 -29.85,0 -45.58,-7.54 -59.45,-14.21 -13.36,-6.41 -24.91,-11.95 -49.56,-11.95 -24.65,0 -36.2,5.54 -49.56,11.95 -5.08,2.45 -10.42,5 -16.6,7.26 l -19.22,88.85 21.09,-4.3 v 0.01 l -12.75,56.13 69.12,68.57 45.57,-33.49 71.36,72.08 71.36,-72.08 45.49,33.43 81.69,-82.82 20.53,-20.82 c 0.97,7.19 1.78,14.46 2.5,21.76 l 0.06,-0.01 c 0.09,1.01 0.14,2.04 0.24,3.05 0.13,1.49 0.3,2.97 0.43,4.47 l -0.08,0.07 c 4.52,53.88 2,109.52 -7.67,165.56" /><path
         id="path76"
         style="fill:#231f20;fill-opacity:1;fill-rule:nonzero;stroke:none"
         d="m 2488.2,2952.79 c 2.49,1.01 4.88,2.05 7.2,3.14 v 17.69 c -0.4,-0.18 -0.8,-0.38 -1.2,-0.56 -2,-0.97 -3.99,-1.92 -6,-2.84 -11.25,-5.16 -23.48,-9.46 -45.05,-9.46 -23.52,0 -35.93,5.11 -48.08,10.87 v -17.58 c 11.71,-5.07 25.58,-9.28 48.08,-9.28 20.59,0 33.95,3.53 45.05,8.02" /><path
         id="path78"
         style="fill:#231f20;fill-opacity:1;fill-rule:nonzero;stroke:none"
         d="m 2488.2,2905.23 c -11.25,-5.16 -23.48,-9.46 -45.05,-9.46 -16.52,0 -27.55,2.52 -36.86,6.03 v -16.95 c 9.53,-2.98 21.06,-5.07 36.86,-5.07 20.59,0 33.95,3.53 45.05,8.01 2.49,1.02 4.88,2.06 7.2,3.14 v 17.7 c -0.4,-0.18 -0.8,-0.38 -1.2,-0.57 -2,-0.96 -3.99,-1.91 -6,-2.83" /><path
         id="path80"
         style="fill:#231f20;fill-opacity:1;fill-rule:nonzero;stroke:none"
         d="m 2488.2,2840.36 c -11.25,-5.16 -23.48,-9.46 -45.05,-9.46 -8.43,0 -15.4,0.66 -21.48,1.78 v -16.23 c 6.23,-0.97 13.27,-1.55 21.48,-1.55 20.59,0 33.95,3.55 45.05,8.03 2.49,1.01 4.88,2.06 7.2,3.13 v 17.71 c -0.4,-0.2 -0.8,-0.39 -1.2,-0.58 -2,-0.95 -3.99,-1.9 -6,-2.83" /><path
         id="path82"
         style="fill:#231f20;fill-opacity:1;fill-rule:nonzero;stroke:none"
         d="m 1916.51,3430.55 9.01,-6.14 93.63,127.86 v 16.31 h -15.46 l -87.18,-138.03" /><path
         id="path84"
         style="fill:#231f20;fill-opacity:1;fill-rule:nonzero;stroke:none"
         d="m 2446.9,3107.5 v 55.03 h -23.13 v -13.36 h 7.64 v -41.67 h 15.49" /><path
         id="path86"
         style="fill:#231f20;fill-opacity:1;fill-rule:nonzero;stroke:none"
         d="m 2512.26,3118.38 c -3.07,0 -5.57,2.57 -5.57,5.73 0,3.22 2.5,5.86 5.57,5.86 3.08,0 5.58,-2.64 5.58,-5.86 0,-3.16 -2.5,-5.73 -5.58,-5.73 z m 0,24.59 c -2.79,0 -5.07,2.34 -5.07,5.22 0,2.89 2.28,5.23 5.07,5.23 2.8,0 5.09,-2.34 5.09,-5.23 0,-2.88 -2.29,-5.22 -5.09,-5.22 z m -21.2,-20.64 c 0,-11.01 10.92,-16.95 21.2,-16.95 10.28,0 21.21,5.94 21.21,16.95 0,6.44 -3.42,11.51 -9.45,14.13 4.4,2.23 7.25,6.9 7.25,12.16 0,11.02 -9.85,16.03 -19.01,16.03 -9.15,0 -19,-5.01 -19,-16.03 0,-5.26 2.85,-9.93 7.25,-12.16 -6.03,-2.62 -9.45,-7.69 -9.45,-14.13" /><path
         id="path88"
         style="fill:#231f20;fill-opacity:1;fill-rule:nonzero;stroke:none"
         d="m 2595.23,3133.86 c 4.35,0 7.77,-3.47 7.77,-7.91 0,-4.52 -3.42,-8.06 -7.77,-8.06 -4.41,0 -8,3.61 -8,8.06 0,4.36 3.59,7.91 8,7.91 z m -2.67,28.67 -11.72,-15.34 c -3.99,-5.21 -8.74,-13.22 -8.74,-21.74 0,-5.6 2.85,-11.45 7.46,-15.29 3.82,-3.04 9.56,-4.78 15.73,-4.78 11.44,0 23.76,6.57 23.76,20.99 0,9.49 -6.29,19.58 -17.95,19.58 -1.83,0 -3.52,-0.24 -5.25,-0.76 l 14.55,17.34 h -17.84" /><path
         id="path90"
         style="fill:#231f20;fill-opacity:1;fill-rule:nonzero;stroke:none"
         d="m 2676.05,3118.38 c -3.07,0 -5.58,2.57 -5.58,5.73 0,3.22 2.51,5.86 5.58,5.86 3.08,0 5.58,-2.64 5.58,-5.86 0,-3.16 -2.5,-5.73 -5.58,-5.73 z m 0,24.59 c -2.8,0 -5.08,2.34 -5.08,5.22 0,2.89 2.28,5.23 5.08,5.23 2.8,0 5.08,-2.34 5.08,-5.23 0,-2.88 -2.28,-5.22 -5.08,-5.22 z m -21.2,-20.64 c 0,-11.01 10.92,-16.95 21.2,-16.95 10.28,0 21.21,5.94 21.21,16.95 0,6.44 -3.42,11.51 -9.45,14.13 4.4,2.23 7.25,6.9 7.25,12.16 0,11.02 -9.85,16.03 -19.01,16.03 -9.15,0 -19,-5.01 -19,-16.03 0,-5.26 2.85,-9.93 7.25,-12.16 -6.04,-2.62 -9.45,-7.69 -9.45,-14.13" /><path
         id="path92"
         style="fill:#ffffff;fill-opacity:1;fill-rule:nonzero;stroke:none"
         d="m 3098.69,2881.46 c 0,30.54 -16.45,41.35 -43.71,53.57 l -32.89,15.04 c -34.78,15.97 -54.52,38.53 -54.52,77.55 0,53.11 41.36,73.78 81.3,73.78 22.56,0 44.18,-6.58 56.4,-8.46 l 21.15,8.46 0.47,-77.07 -11.75,-2.83 -13.63,26.32 c -12.22,23.5 -26.32,34.78 -53.1,34.78 -26.32,0 -44.65,-16.91 -44.65,-42.77 0,-24.91 9.87,-38.06 39.94,-51.7 l 37.6,-16.91 c 36.19,-16.45 55.93,-39.95 55.93,-80.37 0,-53.11 -42.3,-75.2 -84.6,-75.2 -31.48,0 -46.99,8 -61.56,13.17 l -21.15,-13.17 -8.46,87.43 13.63,2.81 15.04,-27.26 c 16.92,-31.48 33.84,-43.23 63.45,-43.23 26.78,0 45.11,15.51 45.11,46.06" /><path
         id="path94"
         style="fill:#ffffff;fill-opacity:1;fill-rule:nonzero;stroke:none"
         d="m 3266.01,3003.17 v 5.18 l 56.39,21.61 h 7.52 v -177.18 l 25.38,-17.85 v -5.17 l -60.62,-14.11 -4.23,33.84 h -1.88 c -15.51,-25.37 -43.24,-33.84 -64.86,-33.84 -30.08,0 -59.22,17.4 -59.22,65.34 v 96.81 l -22.55,25.37 v 5.18 l 56.39,21.61 h 7.52 v -140.05 c 0,-32.9 15.04,-45.58 35.72,-45.58 16.92,0 33.36,7.52 47,22.55 v 110.92 l -22.56,25.37" /><path
         id="path96"
         style="fill:#ffffff;fill-opacity:1;fill-rule:nonzero;stroke:none"
         d="m 3373.65,2886.62 c 19.73,-42.29 38.06,-53.1 63.44,-53.1 21.14,0 35.25,7.52 35.25,29.6 0,17.87 -10.35,27.73 -33.84,35.73 l -26.79,9.39 c -28.2,9.88 -46.53,27.26 -46.53,62.04 0,40.41 29.14,59.68 68.62,59.68 9.4,0 28.19,-3.28 37.6,-8.46 l 22.56,7.99 3.76,-60.15 -9.88,-3.3 c -20.2,34.79 -36.65,44.65 -56.86,44.65 -19.74,0 -31.96,-11.28 -31.96,-28.19 0,-16.92 8.46,-27.73 31.49,-35.72 l 26.79,-8.93 c 31.01,-10.81 50.29,-27.25 50.29,-62.98 0,-41.82 -31.49,-59.22 -73.32,-59.22 -19.27,0 -35.25,5.65 -46.53,10.81 l -21.15,-10.81 -4.22,67.68 11.28,3.29" /><path
         id="path98"
         style="fill:#ffffff;fill-opacity:1;fill-rule:nonzero;stroke:none"
         d="m 3514.64,3016.34 58.75,64.86 h 9.4 v -55.94 h 68.61 l -3.29,-22.09 h -65.32 v -122.18 c 0,-26.32 11.27,-37.13 31.01,-37.13 13.17,0 23.97,2.82 38.07,9.87 l 4.7,-11.76 c -15.51,-16.91 -33.36,-26.32 -63.92,-26.32 -31.49,0 -51.22,16.46 -51.22,58.29 v 129.23 h -26.79 v 13.17" /><path
         id="path100"
         style="fill:#ffffff;fill-opacity:1;fill-rule:nonzero;stroke:none"
         d="m 3753.86,2914.36 c -36.19,0 -57.81,-8.47 -57.81,-39.49 0,-20.67 12.69,-31.95 31.96,-31.95 15.98,0 27.26,4.23 38.07,15.98 v 55.46 z m 53.57,-50.77 c 0,-21.62 7.99,-27.25 34.78,-23.49 l 1.42,-10.34 c -10.35,-9.4 -22.56,-14.11 -40.42,-14.11 -16.92,0 -31.02,8.94 -34.31,28.21 h -1.88 c -8.46,-17.86 -30.55,-28.21 -53.58,-28.21 -35.24,0 -59.21,18.8 -59.21,57.35 0,40.89 31.49,61.56 84.12,61.56 8.93,0 19.74,-0.94 27.73,-2.82 v 24.91 c 0,27.72 -17.86,41.36 -43.71,41.36 -17.86,0 -36.65,-5.17 -56.4,-19.74 l -6.1,13.62 c 20.2,25.39 46.05,38.07 79.89,38.07 35.25,0 67.67,-20.67 67.67,-62.5 v -103.87" /><path
         id="path102"
         style="fill:#ffffff;fill-opacity:1;fill-rule:nonzero;stroke:none"
         d="m 3886.39,3120.67 c 16.45,0 29.14,-12.69 29.14,-29.14 0,-16.45 -12.69,-29.13 -29.14,-29.13 -16.45,0 -29.14,12.68 -29.14,29.13 0,16.45 12.69,29.14 29.14,29.14 z m 54.05,-286.69 -6.11,-13.62 h -90.24 v 13.16 l 22.09,7.52 v 136.76 l -22.55,25.37 v 5.18 l 56.39,21.61 h 7.52 v -187.04 l 32.9,-8.94" /><path
         id="path104"
         style="fill:#ffffff;fill-opacity:1;fill-rule:nonzero;stroke:none"
         d="m 4168.38,2833.98 -6.11,-13.62 h -90.24 v 13.16 l 22.09,7.98 v 116.09 c 0,30.08 -18.8,36.19 -34.77,36.19 -18.8,0 -37.13,-9.41 -47.94,-18.8 v -132.06 l 32.9,-8.94 -6.11,-13.62 h -90.24 v 13.16 l 22.09,7.52 v 136.76 l -22.56,25.37 v 5.18 l 56.4,21.61 h 7.05 l -1.41,-39.94 h 1.88 c 18.8,31.02 47.46,39.94 68.61,39.94 27.26,0 55.46,-16.44 55.46,-64.38 v -122.66 l 32.9,-8.94" /><path
         id="path106"
         style="fill:#ffffff;fill-opacity:1;fill-rule:nonzero;stroke:none"
         d="m 4270.37,2914.36 c -36.19,0 -57.8,-8.47 -57.8,-39.49 0,-20.67 12.69,-31.95 31.95,-31.95 15.98,0 27.26,4.23 38.07,15.98 v 55.46 z m 53.58,-50.77 c 0,-21.62 7.99,-27.25 34.78,-23.49 l 1.41,-10.34 c -10.34,-9.4 -22.56,-14.11 -40.42,-14.11 -16.92,0 -31.02,8.94 -34.31,28.21 h -1.88 c -8.46,-17.86 -30.55,-28.21 -53.58,-28.21 -35.24,0 -59.21,18.8 -59.21,57.35 0,40.89 31.49,61.56 84.13,61.56 8.92,0 19.73,-0.94 27.72,-2.82 v 24.91 c 0,27.72 -17.86,41.36 -43.71,41.36 -17.85,0 -36.65,-5.17 -56.39,-19.74 l -6.11,13.62 c 20.2,25.39 46.05,38.07 79.89,38.07 35.25,0 67.68,-20.67 67.68,-62.5 v -103.87" /><path
         id="path108"
         style="fill:#ffffff;fill-opacity:1;fill-rule:nonzero;stroke:none"
         d="m 4414.66,2848.55 c 6.11,-7.51 19.27,-12.68 32.9,-12.68 36.66,0 67.2,25.85 67.2,82.71 0,53.58 -23.49,79.9 -56.86,79.9 -19.27,0 -31.96,-6.59 -43.24,-16.92 z m -68.61,266.95 v 5.17 l 61.09,19.74 h 7.52 v -141.46 h 1.88 c 13.16,21.15 33.84,31.01 60.16,31.01 45.58,0 81.77,-35.71 81.77,-97.75 0,-76.14 -48.88,-116.56 -115.61,-116.56 -25.38,0 -47.94,4.24 -69.56,13.17 v 265.06 l -27.25,21.62" /><path
         id="path110"
         style="fill:#ffffff;fill-opacity:1;fill-rule:nonzero;stroke:none"
         d="m 4613,3120.67 c 16.45,0 29.13,-12.69 29.13,-29.14 0,-16.45 -12.68,-29.13 -29.13,-29.13 -16.45,0 -29.15,12.68 -29.15,29.13 0,16.45 12.7,29.14 29.15,29.14 z m 54.04,-286.69 -6.11,-13.62 h -90.23 v 13.16 l 22.09,7.52 v 136.76 l -22.56,25.37 v 5.18 l 56.39,21.61 h 7.52 v -187.04 l 32.9,-8.94" /><path
         id="path112"
         style="fill:#ffffff;fill-opacity:1;fill-rule:nonzero;stroke:none"
         d="m 4768.55,2833.98 -6.11,-13.62 h -90.23 v 13.16 l 22.09,7.52 v 252.84 l -27.26,21.62 v 5.17 l 61.1,19.74 h 7.52 v -297.49 l 32.89,-8.94" /><path
         id="path114"
         style="fill:#ffffff;fill-opacity:1;fill-rule:nonzero;stroke:none"
         d="m 4818.38,3120.67 c 16.45,0 29.13,-12.69 29.13,-29.14 0,-16.45 -12.68,-29.13 -29.13,-29.13 -16.45,0 -29.14,12.68 -29.14,29.13 0,16.45 12.69,29.14 29.14,29.14 z m 54.04,-286.69 -6.11,-13.62 h -90.23 v 13.16 l 22.09,7.52 v 136.76 l -22.56,25.37 v 5.18 l 56.39,21.61 h 7.52 v -187.04 l 32.9,-8.94" /><path
         id="path116"
         style="fill:#ffffff;fill-opacity:1;fill-rule:nonzero;stroke:none"
         d="m 4867.72,3016.34 58.75,64.86 h 9.4 v -55.94 h 68.61 l -3.29,-22.09 h -65.32 v -122.18 c 0,-26.32 11.28,-37.13 31.02,-37.13 13.15,0 23.96,2.82 38.06,9.87 l 4.7,-11.76 c -15.51,-16.91 -33.37,-26.32 -63.92,-26.32 -31.48,0 -51.22,16.46 -51.22,58.29 v 129.23 h -26.79 v 13.17" /><path
         id="path118"
         style="fill:#ffffff;fill-opacity:1;fill-rule:nonzero;stroke:none"
         d="m 5014.35,3000.36 -20.21,12.69 3.29,12.21 h 86.95 l 3.29,-14.1 -30.08,-7.52 33.36,-88.35 c 13.16,-35.24 15.52,-59.68 15.52,-59.68 h 1.87 c 0,0 8,30.07 17.86,60.15 l 27.73,85.54 -31.02,10.34 2.82,13.62 h 75.2 l 2.82,-13.62 -21.62,-8.93 -65.33,-178.12 c -29.61,-80.37 -54.51,-105.74 -93.05,-105.74 -24.44,0 -37.6,14.09 -37.6,31.95 0,16.92 10.34,27.26 26.79,27.26 14.57,0 23.97,-10.34 23.97,-23.97 0,-7.05 -2.35,-12.68 -4.7,-15.97 18.8,0 43.24,34.3 56.4,75.19 l -74.26,187.05" /><path
         id="path120"
         style="fill:#ffffff;fill-opacity:1;fill-rule:nonzero;stroke:none"
         d="m 5481.52,2958.53 c 0,78.95 -23.03,121.26 -78.02,121.26 -54.98,0 -78.01,-42.31 -78.01,-121.26 0,-78.96 23.03,-121.25 78.01,-121.25 54.99,0 78.02,42.29 78.02,121.25 z m -205.85,0 c 0,84.59 48.41,142.87 127.83,142.87 79.43,0 127.84,-58.28 127.84,-142.87 0,-84.59 -48.41,-142.88 -127.84,-142.88 -79.42,0 -127.83,58.29 -127.83,142.88" /><path
         id="path122"
         style="fill:#ffffff;fill-opacity:1;fill-rule:nonzero;stroke:none"
         d="m 5697.72,3072.73 c -10.81,2.35 -18.8,10.35 -18.8,23.04 0,9.86 4.23,18.32 9.87,22.56 -3.29,2.81 -9.4,4.22 -16.45,4.22 -39.94,0 -60.62,-25.38 -60.62,-74.26 v -23.03 h 82.71 v 14.11 c 0,12.22 1.41,23.5 3.29,33.36 z m 120.78,-69.56 h -82.71 v -160.25 l 32.9,-8.94 -6.11,-13.62 h -90.24 v 13.16 l 22.09,7.52 v 162.13 h -82.71 v -160.25 l 32.89,-8.94 -6.11,-13.62 h -90.23 v 13.16 l 22.09,7.52 v 162.13 h -34.31 v 15.99 l 34.31,7.52 v 11.75 c 0,65.32 38.54,100.1 101.04,100.1 21.15,0 40.42,-7.05 50.76,-19.27 15.98,15.98 39.01,23.97 67.68,23.97 28.66,0 54.51,-9.87 54.51,-36.66 0,-15.97 -10.81,-27.25 -25.38,-27.25 -13.62,0 -25.37,8.45 -25.37,23.49 0,9.87 4.23,18.33 9.87,22.56 -5.18,1.41 -8.47,1.88 -13.63,1.88 -36.66,0 -54.05,-24.44 -54.05,-76.13 v -25.86 h 98.69 l 17.86,6.12 h 7.52 v -188.46 l 32.9,-8.94 -6.11,-13.62 h -90.24 v 13.16 l 22.09,7.52 v 162.13" /><path
         id="path124"
         style="fill:#ffffff;fill-opacity:1;fill-rule:nonzero;stroke:none"
         d="m 5997.58,3010.22 c -39.01,0 -62.98,-31.01 -62.98,-81.77 0,-50.29 23.97,-82.24 65.33,-82.24 21.15,0 37.12,7.52 54.52,19.27 l 6.11,-10.81 c -20.21,-30.08 -46.53,-39.02 -77.08,-39.02 -49.81,0 -88.35,37.6 -88.35,106.22 0,66.73 45.58,108.09 102.45,108.09 32.43,0 59.68,-12.22 59.68,-40.41 0,-16.92 -11.27,-28.67 -26.78,-28.67 -14.57,0 -26.79,9.4 -26.79,26.32 0,8.45 4.23,16.44 10.34,21.15 -4.23,0.94 -7.99,1.87 -16.45,1.87" /><path
         id="path126"
         style="fill:#ffffff;fill-opacity:1;fill-rule:nonzero;stroke:none"
         d="m 6110.85,2951.95 h 86 c 0.47,3.29 0.47,9.4 0.47,12.69 0,29.61 -11.75,45.12 -36.18,45.12 -22.56,0 -43.71,-17.87 -50.29,-57.81 z m 62.03,-105.74 c 23.03,0 39.48,6.1 58.28,19.27 l 6.11,-10.81 c -16.92,-25.85 -40.89,-39.02 -77.08,-39.02 -50.28,0 -90.23,34.79 -90.23,105.28 0,70.03 44.17,109.03 96.81,109.03 42.3,0 72.85,-26.32 72.85,-73.78 0,-7.52 -0.47,-15.51 -2.35,-24.44 h -127.83 c 0,-54.04 23.97,-85.53 63.44,-85.53" /></g></g></svg>
