<?xml version="1.0" encoding="UTF-8" standalone="no"?><svg xmlns="http://www.w3.org/2000/svg" xmlns:xlink="http://www.w3.org/1999/xlink" contentScriptType="application/ecmascript" contentStyleType="text/css" height="955px" preserveAspectRatio="none" style="width:1128px;height:955px;" version="1.1" viewBox="0 0 1128 955" width="1128px" zoomAndPan="magnify"><defs><filter height="300%" id="fbekaof6t6djd" width="300%" x="-1" y="-1"><feGaussianBlur result="blurOut" stdDeviation="2.0"/><feColorMatrix in="blurOut" result="blurOut2" type="matrix" values="0 0 0 0 0 0 0 0 0 0 0 0 0 0 0 0 0 0 .4 0"/><feOffset dx="4.0" dy="4.0" in="blurOut2" result="blurOut3"/><feBlend in="SourceGraphic" in2="blurOut3" mode="normal"/></filter></defs><g><!--class alerts--><rect fill="#FEFECE" filter="url(#fbekaof6t6djd)" height="112.7754" id="alerts" style="stroke: #A80036; stroke-width: 1.5;" width="144" x="806" y="72"/><ellipse cx="857.25" cy="88" fill="#ADD1B2" rx="11" ry="11" style="stroke: #A80036; stroke-width: 1.0;"/><path d="M860.8643,94.5 L853.1445,94.5 L853.1445,82.1069 L860.8643,82.1069 L860.8643,84.2651 L855.5933,84.2651 L855.5933,86.938 L860.3662,86.938 L860.3662,89.0962 L855.5933,89.0962 L855.5933,92.3418 L860.8643,92.3418 Z "/><text fill="#000000" font-family="sans-serif" font-size="12" lengthAdjust="spacingAndGlyphs" textLength="33" x="877.75" y="92.5352">Alerts</text><line style="stroke: #A80036; stroke-width: 1.5;" x1="807" x2="949" y1="104" y2="104"/><text fill="#000000" font-family="sans-serif" font-size="11" lengthAdjust="spacingAndGlyphs" textLength="132" x="812" y="118.6348">id: integer «primary key»</text><text fill="#000000" font-family="sans-serif" font-size="11" lengthAdjust="spacingAndGlyphs" textLength="62" x="812" y="131.5898">onid: string</text><text fill="#000000" font-family="sans-serif" font-size="11" lengthAdjust="spacingAndGlyphs" textLength="66" x="812" y="144.5449">point: string</text><text fill="#000000" font-family="sans-serif" font-size="11" lengthAdjust="spacingAndGlyphs" textLength="120" x="812" y="157.5">lower_bounds: integer</text><text fill="#000000" font-family="sans-serif" font-size="11" lengthAdjust="spacingAndGlyphs" textLength="123" x="812" y="170.4551">upper_bounds: integer</text><line style="stroke: #A80036; stroke-width: 1.5;" x1="807" x2="949" y1="176.7754" y2="176.7754"/><!--class charts--><rect fill="#FEFECE" filter="url(#fbekaof6t6djd)" height="125.7305" id="charts" style="stroke: #A80036; stroke-width: 1.5;" width="180" x="364" y="65.5"/><ellipse cx="431.25" cy="81.5" fill="#ADD1B2" rx="11" ry="11" style="stroke: #A80036; stroke-width: 1.0;"/><path d="M434.8643,88 L427.1445,88 L427.1445,75.6069 L434.8643,75.6069 L434.8643,77.7651 L429.5933,77.7651 L429.5933,80.438 L434.3662,80.438 L434.3662,82.5962 L429.5933,82.5962 L429.5933,85.8418 L434.8643,85.8418 Z "/><text fill="#000000" font-family="sans-serif" font-size="12" lengthAdjust="spacingAndGlyphs" textLength="37" x="451.75" y="86.0352">Charts</text><line style="stroke: #A80036; stroke-width: 1.5;" x1="365" x2="543" y1="97.5" y2="97.5"/><text fill="#000000" font-family="sans-serif" font-size="11" lengthAdjust="spacingAndGlyphs" textLength="132" x="370" y="112.1348">id: integer «primary key»</text><text fill="#000000" font-family="sans-serif" font-size="11" lengthAdjust="spacingAndGlyphs" textLength="164" x="370" y="125.0898">block_id: integer «foreign key»</text><text fill="#000000" font-family="sans-serif" font-size="11" lengthAdjust="spacingAndGlyphs" textLength="168" x="370" y="138.0449">group_id: integer «foreign key»</text><text fill="#000000" font-family="sans-serif" font-size="11" lengthAdjust="spacingAndGlyphs" textLength="67" x="370" y="151">name: string</text><text fill="#000000" font-family="sans-serif" font-size="11" lengthAdjust="spacingAndGlyphs" textLength="66" x="370" y="163.9551">point: string</text><text fill="#000000" font-family="sans-serif" font-size="11" lengthAdjust="spacingAndGlyphs" textLength="75" x="370" y="176.9102">meter: integer</text><line style="stroke: #A80036; stroke-width: 1.5;" x1="365" x2="543" y1="183.2305" y2="183.2305"/><!--class blocks--><rect fill="#FEFECE" filter="url(#fbekaof6t6djd)" height="138.6855" id="blocks" style="stroke: #A80036; stroke-width: 1.5;" width="144" x="185" y="59"/><ellipse cx="234.75" cy="75" fill="#ADD1B2" rx="11" ry="11" style="stroke: #A80036; stroke-width: 1.0;"/><path d="M238.3643,81.5 L230.6445,81.5 L230.6445,69.1069 L238.3643,69.1069 L238.3643,71.2651 L233.0933,71.2651 L233.0933,73.938 L237.8662,73.938 L237.8662,76.0962 L233.0933,76.0962 L233.0933,79.3418 L238.3643,79.3418 Z "/><text fill="#000000" font-family="sans-serif" font-size="12" lengthAdjust="spacingAndGlyphs" textLength="36" x="255.25" y="79.5352">Blocks</text><line style="stroke: #A80036; stroke-width: 1.5;" x1="186" x2="328" y1="91" y2="91"/><text fill="#000000" font-family="sans-serif" font-size="11" lengthAdjust="spacingAndGlyphs" textLength="132" x="191" y="105.6348">id: integer «primary key»</text><text fill="#000000" font-family="sans-serif" font-size="11" lengthAdjust="spacingAndGlyphs" textLength="106" x="191" y="118.5898">date_start: datetime</text><text fill="#000000" font-family="sans-serif" font-size="11" lengthAdjust="spacingAndGlyphs" textLength="101" x="191" y="131.5449">date_end: datetime</text><text fill="#000000" font-family="sans-serif" font-size="11" lengthAdjust="spacingAndGlyphs" textLength="105" x="191" y="144.5">graph_type: integer</text><text fill="#000000" font-family="sans-serif" font-size="11" lengthAdjust="spacingAndGlyphs" textLength="67" x="191" y="157.4551">name: string</text><text fill="#000000" font-family="sans-serif" font-size="11" lengthAdjust="spacingAndGlyphs" textLength="113" x="191" y="170.4102">date_interval: integer</text><text fill="#000000" font-family="sans-serif" font-size="11" lengthAdjust="spacingAndGlyphs" textLength="105" x="191" y="183.3652">interval_unit: string</text><line style="stroke: #A80036; stroke-width: 1.5;" x1="186" x2="328" y1="189.6855" y2="189.6855"/><!--class buildings--><rect fill="#FEFECE" filter="url(#fbekaof6t6djd)" height="86.8652" id="buildings" style="stroke: #A80036; stroke-width: 1.5;" width="144" x="6" y="85"/><ellipse cx="48.45" cy="101" fill="#ADD1B2" rx="11" ry="11" style="stroke: #A80036; stroke-width: 1.0;"/><path d="M52.0643,107.5 L44.3445,107.5 L44.3445,95.1069 L52.0643,95.1069 L52.0643,97.2651 L46.7933,97.2651 L46.7933,99.938 L51.5662,99.938 L51.5662,102.0962 L46.7933,102.0962 L46.7933,105.3418 L52.0643,105.3418 Z "/><text fill="#000000" font-family="sans-serif" font-size="12" lengthAdjust="spacingAndGlyphs" textLength="51" x="68.55" y="105.5352">Buildings</text><line style="stroke: #A80036; stroke-width: 1.5;" x1="7" x2="149" y1="117" y2="117"/><text fill="#000000" font-family="sans-serif" font-size="11" lengthAdjust="spacingAndGlyphs" textLength="132" x="12" y="131.6348">id: integer «primary key»</text><text fill="#000000" font-family="sans-serif" font-size="11" lengthAdjust="spacingAndGlyphs" textLength="92" x="12" y="144.5898">building_id: hash</text><text fill="#000000" font-family="sans-serif" font-size="11" lengthAdjust="spacingAndGlyphs" textLength="71" x="12" y="157.5449">group: string</text><line style="stroke: #A80036; stroke-width: 1.5;" x1="7" x2="149" y1="163.8652" y2="163.8652"/><!--class campaign_groups--><rect fill="#FEFECE" filter="url(#fbekaof6t6djd)" height="99.8203" id="campaign_groups" style="stroke: #A80036; stroke-width: 1.5;" width="144" x="6" y="458.5"/><ellipse cx="24.6" cy="474.5" fill="#ADD1B2" rx="11" ry="11" style="stroke: #A80036; stroke-width: 1.0;"/><path d="M28.2143,481 L20.4945,481 L20.4945,468.6069 L28.2143,468.6069 L28.2143,470.7651 L22.9433,470.7651 L22.9433,473.438 L27.7162,473.438 L27.7162,475.5962 L22.9433,475.5962 L22.9433,478.8418 L28.2143,478.8418 Z "/><text fill="#000000" font-family="sans-serif" font-size="12" lengthAdjust="spacingAndGlyphs" textLength="104" x="39.4" y="479.0352">Campaign Groups</text><line style="stroke: #A80036; stroke-width: 1.5;" x1="7" x2="149" y1="490.5" y2="490.5"/><text fill="#000000" font-family="sans-serif" font-size="11" lengthAdjust="spacingAndGlyphs" textLength="132" x="12" y="505.1348">id: integer «primary key»</text><text fill="#000000" font-family="sans-serif" font-size="11" lengthAdjust="spacingAndGlyphs" textLength="67" x="12" y="518.0898">goal: integer</text><text fill="#000000" font-family="sans-serif" font-size="11" lengthAdjust="spacingAndGlyphs" textLength="104" x="12" y="531.0449">building_id: integer</text><text fill="#000000" font-family="sans-serif" font-size="11" lengthAdjust="spacingAndGlyphs" textLength="112" x="12" y="544">campaign_id: integer</text><line style="stroke: #A80036; stroke-width: 1.5;" x1="7" x2="149" y1="550.3203" y2="550.3203"/><!--class campaigns--><rect fill="#FEFECE" filter="url(#fbekaof6t6djd)" height="125.7305" id="campaigns" style="stroke: #A80036; stroke-width: 1.5;" width="144" x="6" y="819"/><ellipse cx="42.6" cy="835" fill="#ADD1B2" rx="11" ry="11" style="stroke: #A80036; stroke-width: 1.0;"/><path d="M46.2143,841.5 L38.4945,841.5 L38.4945,829.1069 L46.2143,829.1069 L46.2143,831.2651 L40.9433,831.2651 L40.9433,833.938 L45.7162,833.938 L45.7162,836.0962 L40.9433,836.0962 L40.9433,839.3418 L46.2143,839.3418 Z "/><text fill="#000000" font-family="sans-serif" font-size="12" lengthAdjust="spacingAndGlyphs" textLength="64" x="61.4" y="839.5352">Campaigns</text><line style="stroke: #A80036; stroke-width: 1.5;" x1="7" x2="149" y1="851" y2="851"/><text fill="#000000" font-family="sans-serif" font-size="11" lengthAdjust="spacingAndGlyphs" textLength="132" x="12" y="865.6348">id: integer «primary key»</text><text fill="#000000" font-family="sans-serif" font-size="11" lengthAdjust="spacingAndGlyphs" textLength="92" x="12" y="878.5898">date_start: string</text><text fill="#000000" font-family="sans-serif" font-size="11" lengthAdjust="spacingAndGlyphs" textLength="87" x="12" y="891.5449">date_end: string</text><text fill="#000000" font-family="sans-serif" font-size="11" lengthAdjust="spacingAndGlyphs" textLength="116" x="12" y="904.5">compare_start: string</text><text fill="#000000" font-family="sans-serif" font-size="11" lengthAdjust="spacingAndGlyphs" textLength="111" x="12" y="917.4551">compare_end: string</text><text fill="#000000" font-family="sans-serif" font-size="11" lengthAdjust="spacingAndGlyphs" textLength="70" x="12" y="930.4102">media: string</text><line style="stroke: #A80036; stroke-width: 1.5;" x1="7" x2="149" y1="936.7305" y2="936.7305"/><!--class data--><rect fill="#FEFECE" filter="url(#fbekaof6t6djd)" height="501.4277" id="data" style="stroke: #A80036; stroke-width: 1.5;" width="150" x="967" y="258"/><ellipse cx="1024.25" cy="274" fill="#ADD1B2" rx="11" ry="11" style="stroke: #A80036; stroke-width: 1.0;"/><path d="M1027.8643,280.5 L1020.1445,280.5 L1020.1445,268.1069 L1027.8643,268.1069 L1027.8643,270.2651 L1022.5933,270.2651 L1022.5933,272.938 L1027.3662,272.938 L1027.3662,275.0962 L1022.5933,275.0962 L1022.5933,278.3418 L1027.8643,278.3418 Z "/><text fill="#000000" font-family="sans-serif" font-size="12" lengthAdjust="spacingAndGlyphs" textLength="27" x="1044.75" y="278.5352">Data</text><line style="stroke: #A80036; stroke-width: 1.5;" x1="968" x2="1116" y1="290" y2="290"/><text fill="#000000" font-family="sans-serif" font-size="11" lengthAdjust="spacingAndGlyphs" textLength="132" x="973" y="304.6348">id: integer «primary key»</text><text fill="#000000" font-family="sans-serif" font-size="11" lengthAdjust="spacingAndGlyphs" textLength="79" x="973" y="317.5898">time: datettime</text><text fill="#000000" font-family="sans-serif" font-size="11" lengthAdjust="spacingAndGlyphs" textLength="91" x="973" y="330.5449">meter_id: integer</text><text fill="#000000" font-family="sans-serif" font-size="11" lengthAdjust="spacingAndGlyphs" textLength="138" x="973" y="343.5">accumulated_real: integer</text><text fill="#000000" font-family="sans-serif" font-size="11" lengthAdjust="spacingAndGlyphs" textLength="89" x="973" y="356.4551">real_power: float</text><text fill="#000000" font-family="sans-serif" font-size="11" lengthAdjust="spacingAndGlyphs" textLength="111" x="973" y="369.4102">reactive_power: float</text><text fill="#000000" font-family="sans-serif" font-size="11" lengthAdjust="spacingAndGlyphs" textLength="117" x="973" y="382.3652">apparent_power: float</text><text fill="#000000" font-family="sans-serif" font-size="11" lengthAdjust="spacingAndGlyphs" textLength="62" x="973" y="395.3203">real_a: float</text><text fill="#000000" font-family="sans-serif" font-size="11" lengthAdjust="spacingAndGlyphs" textLength="63" x="973" y="408.2754">real_b: float</text><text fill="#000000" font-family="sans-serif" font-size="11" lengthAdjust="spacingAndGlyphs" textLength="62" x="973" y="421.2305">real_c: float</text><text fill="#000000" font-family="sans-serif" font-size="11" lengthAdjust="spacingAndGlyphs" textLength="84" x="973" y="434.1855">reactive_a: float</text><text fill="#000000" font-family="sans-serif" font-size="11" lengthAdjust="spacingAndGlyphs" textLength="85" x="973" y="447.1406">reactive_b: float</text><text fill="#000000" font-family="sans-serif" font-size="11" lengthAdjust="spacingAndGlyphs" textLength="84" x="973" y="460.0957">reactive_c: float</text><text fill="#000000" font-family="sans-serif" font-size="11" lengthAdjust="spacingAndGlyphs" textLength="90" x="973" y="473.0508">apparent_a: float</text><text fill="#000000" font-family="sans-serif" font-size="11" lengthAdjust="spacingAndGlyphs" textLength="91" x="973" y="486.0059">apparent_b: float</text><text fill="#000000" font-family="sans-serif" font-size="11" lengthAdjust="spacingAndGlyphs" textLength="90" x="973" y="498.9609">apparent_c: float</text><text fill="#000000" font-family="sans-serif" font-size="11" lengthAdjust="spacingAndGlyphs" textLength="53" x="973" y="511.916">pf_a: float</text><text fill="#000000" font-family="sans-serif" font-size="11" lengthAdjust="spacingAndGlyphs" textLength="54" x="973" y="524.8711">pf_b: float</text><text fill="#000000" font-family="sans-serif" font-size="11" lengthAdjust="spacingAndGlyphs" textLength="53" x="973" y="537.8262">pf_c: float</text><text fill="#000000" font-family="sans-serif" font-size="11" lengthAdjust="spacingAndGlyphs" textLength="87" x="973" y="550.7813">vphase_ab: float</text><text fill="#000000" font-family="sans-serif" font-size="11" lengthAdjust="spacingAndGlyphs" textLength="87" x="973" y="563.7363">vphase_bc: float</text><text fill="#000000" font-family="sans-serif" font-size="11" lengthAdjust="spacingAndGlyphs" textLength="86" x="973" y="576.6914">vphase_ac: float</text><text fill="#000000" font-family="sans-serif" font-size="11" lengthAdjust="spacingAndGlyphs" textLength="87" x="973" y="589.6465">vphase_an: float</text><text fill="#000000" font-family="sans-serif" font-size="11" lengthAdjust="spacingAndGlyphs" textLength="88" x="973" y="602.6016">vphase_bn: float</text><text fill="#000000" font-family="sans-serif" font-size="11" lengthAdjust="spacingAndGlyphs" textLength="87" x="973" y="615.5566">vphase_cn: float</text><text fill="#000000" font-family="sans-serif" font-size="11" lengthAdjust="spacingAndGlyphs" textLength="80" x="973" y="628.5117">cphase_a: float</text><text fill="#000000" font-family="sans-serif" font-size="11" lengthAdjust="spacingAndGlyphs" textLength="81" x="973" y="641.4668">cphase_b: float</text><text fill="#000000" font-family="sans-serif" font-size="11" lengthAdjust="spacingAndGlyphs" textLength="80" x="973" y="654.4219">cphase_c: float</text><text fill="#000000" font-family="sans-serif" font-size="11" lengthAdjust="spacingAndGlyphs" textLength="99" x="973" y="667.377">cubic_feet: integer</text><text fill="#000000" font-family="sans-serif" font-size="11" lengthAdjust="spacingAndGlyphs" textLength="97" x="973" y="680.332">maximum: integer</text><text fill="#000000" font-family="sans-serif" font-size="11" lengthAdjust="spacingAndGlyphs" textLength="94" x="973" y="693.2871">minimum: integer</text><text fill="#000000" font-family="sans-serif" font-size="11" lengthAdjust="spacingAndGlyphs" textLength="81" x="973" y="706.2422">instant: integer</text><text fill="#000000" font-family="sans-serif" font-size="11" lengthAdjust="spacingAndGlyphs" textLength="65" x="973" y="719.1973">rate: integer</text><text fill="#000000" font-family="sans-serif" font-size="11" lengthAdjust="spacingAndGlyphs" textLength="68" x="973" y="732.1523">total: integer</text><text fill="#000000" font-family="sans-serif" font-size="11" lengthAdjust="spacingAndGlyphs" textLength="72" x="973" y="745.1074">input: integer</text><line style="stroke: #A80036; stroke-width: 1.5;" x1="968" x2="1116" y1="751.4277" y2="751.4277"/><!--class meter_group_relation--><rect fill="#FEFECE" filter="url(#fbekaof6t6djd)" height="99.8203" id="meter_group_relation" style="stroke: #A80036; stroke-width: 1.5;" width="155" x="597.5" y="458.5"/><ellipse cx="612.5" cy="474.5" fill="#ADD1B2" rx="11" ry="11" style="stroke: #A80036; stroke-width: 1.0;"/><path d="M616.1143,481 L608.3945,481 L608.3945,468.6069 L616.1143,468.6069 L616.1143,470.7651 L610.8433,470.7651 L610.8433,473.438 L615.6162,473.438 L615.6162,475.5962 L610.8433,475.5962 L610.8433,478.8418 L616.1143,478.8418 Z "/><text fill="#000000" font-family="sans-serif" font-size="12" lengthAdjust="spacingAndGlyphs" textLength="123" x="626.5" y="479.0352">Meter Group Relation</text><line style="stroke: #A80036; stroke-width: 1.5;" x1="598.5" x2="751.5" y1="490.5" y2="490.5"/><text fill="#000000" font-family="sans-serif" font-size="11" lengthAdjust="spacingAndGlyphs" textLength="54" x="603.5" y="505.1348">id: integer</text><text fill="#000000" font-family="sans-serif" font-size="11" lengthAdjust="spacingAndGlyphs" textLength="91" x="603.5" y="518.0898">meter_id: integer</text><text fill="#000000" font-family="sans-serif" font-size="11" lengthAdjust="spacingAndGlyphs" textLength="93" x="603.5" y="531.0449">group_id: integer</text><text fill="#000000" font-family="sans-serif" font-size="11" lengthAdjust="spacingAndGlyphs" textLength="96" x="603.5" y="544">operation: integer</text><line style="stroke: #A80036; stroke-width: 1.5;" x1="598.5" x2="751.5" y1="550.3203" y2="550.3203"/><!--class meter_groups--><rect fill="#FEFECE" filter="url(#fbekaof6t6djd)" height="86.8652" id="meter_groups" style="stroke: #A80036; stroke-width: 1.5;" width="191" x="579.5" y="85"/><ellipse cx="631.25" cy="101" fill="#ADD1B2" rx="11" ry="11" style="stroke: #A80036; stroke-width: 1.0;"/><path d="M634.8643,107.5 L627.1445,107.5 L627.1445,95.1069 L634.8643,95.1069 L634.8643,97.2651 L629.5933,97.2651 L629.5933,99.938 L634.3662,99.938 L634.3662,102.0962 L629.5933,102.0962 L629.5933,105.3418 L634.8643,105.3418 Z "/><text fill="#000000" font-family="sans-serif" font-size="12" lengthAdjust="spacingAndGlyphs" textLength="79" x="651.75" y="105.5352">Meter Groups</text><line style="stroke: #A80036; stroke-width: 1.5;" x1="580.5" x2="769.5" y1="117" y2="117"/><text fill="#000000" font-family="sans-serif" font-size="11" lengthAdjust="spacingAndGlyphs" textLength="132" x="585.5" y="131.6348">id: integer «primary key»</text><text fill="#000000" font-family="sans-serif" font-size="11" lengthAdjust="spacingAndGlyphs" textLength="67" x="585.5" y="144.5898">name: string</text><text fill="#000000" font-family="sans-serif" font-size="11" lengthAdjust="spacingAndGlyphs" textLength="179" x="585.5" y="157.5449">building_id: integer «foreign key»</text><line style="stroke: #A80036; stroke-width: 1.5;" x1="580.5" x2="769.5" y1="163.8652" y2="163.8652"/><!--class meters--><rect fill="#FEFECE" filter="url(#fbekaof6t6djd)" height="99.8203" id="meters" style="stroke: #A80036; stroke-width: 1.5;" width="144" x="788" y="458.5"/><ellipse cx="836.25" cy="474.5" fill="#ADD1B2" rx="11" ry="11" style="stroke: #A80036; stroke-width: 1.0;"/><path d="M839.8643,481 L832.1445,481 L832.1445,468.6069 L839.8643,468.6069 L839.8643,470.7651 L834.5933,470.7651 L834.5933,473.438 L839.3662,473.438 L839.3662,475.5962 L834.5933,475.5962 L834.5933,478.8418 L839.8643,478.8418 Z "/><text fill="#000000" font-family="sans-serif" font-size="12" lengthAdjust="spacingAndGlyphs" textLength="39" x="856.75" y="479.0352">Meters</text><line style="stroke: #A80036; stroke-width: 1.5;" x1="789" x2="931" y1="490.5" y2="490.5"/><text fill="#000000" font-family="sans-serif" font-size="11" lengthAdjust="spacingAndGlyphs" textLength="132" x="794" y="505.1348">id: integer «primary key»</text><text fill="#000000" font-family="sans-serif" font-size="11" lengthAdjust="spacingAndGlyphs" textLength="67" x="794" y="518.0898">name: string</text><text fill="#000000" font-family="sans-serif" font-size="11" lengthAdjust="spacingAndGlyphs" textLength="81" x="794" y="531.0449">address: string</text><text fill="#000000" font-family="sans-serif" font-size="11" lengthAdjust="spacingAndGlyphs" textLength="71" x="794" y="544">class: integer</text><line style="stroke: #A80036; stroke-width: 1.5;" x1="789" x2="931" y1="550.3203" y2="550.3203"/><!--link meter_groups to meter_group_relation--><path d="M675,177.1925 C675,249.5834 675,384.9066 675,458.2106 " fill="none" id="meter_groups-meter_group_relation" style="stroke: #A80036; stroke-width: 1.0;"/><polygon fill="#A80036" points="675,172.0908,671,181.0908,675,177.0908,679,181.0908,675,172.0908" style="stroke: #A80036; stroke-width: 1.0;"/><!--link meter_group_relation to meters--><path d="M752.6855,508.5 C762.6808,508.5 772.676,508.5 782.6712,508.5 " fill="none" id="meter_group_relation-meters" style="stroke: #A80036; stroke-width: 1.0;"/><polygon fill="#A80036" points="787.8981,508.5,778.8981,504.5,782.8981,508.5,778.8981,512.5,787.8981,508.5" style="stroke: #A80036; stroke-width: 1.0;"/><!--link meters to data--><path d="M932.1602,508.5 C942.0252,508.5 951.8903,508.5 961.7554,508.5 " fill="none" id="meters-data" style="stroke: #A80036; stroke-width: 1.0;"/><polygon fill="#A80036" points="966.9142,508.5,957.9142,504.5,961.9142,508.5,957.9142,512.5,966.9142,508.5" style="stroke: #A80036; stroke-width: 1.0;"/><!--link buildings to meter_groups--><path d="M114.5439,81.0831 C133.0543,60.9595 157.3549,39.7075 184.5,29 C258.9196,-0.355 468.7061,3.4014 544.5,29 C577.7008,40.2133 609.1237,63.6209 632.8127,84.9162 " fill="none" id="buildings-meter_groups" style="stroke: #A80036; stroke-width: 1.0;"/><polygon fill="#A80036" points="111.1557,84.8247,120.1618,80.8385,114.5119,81.1185,114.2319,75.4686,111.1557,84.8247" style="stroke: #A80036; stroke-width: 1.0;"/><!--link campaign_groups to campaigns--><path d="M78,558.8719 C78,624.5971 78,739.876 78,813.4991 " fill="none" id="campaign_groups-campaigns" style="stroke: #A80036; stroke-width: 1.0;"/><polygon fill="#A80036" points="78,818.7267,82,809.7267,78,813.7267,74,809.7267,78,818.7267" style="stroke: #A80036; stroke-width: 1.0;"/><!--link buildings to campaign_groups--><path d="M78,172.0908 C78,241.389 78,376.6184 78,452.8272 " fill="none" id="buildings-campaign_groups" style="stroke: #A80036; stroke-width: 1.0;"/><polygon fill="#A80036" points="78,458.2106,82,449.2106,78,453.2106,74,449.2106,78,458.2106" style="stroke: #A80036; stroke-width: 1.0;"/><!--link blocks to charts--><path d="M329.3359,128.5 C339.1501,128.5 348.9643,128.5 358.7785,128.5 " fill="none" id="blocks-charts" style="stroke: #A80036; stroke-width: 1.0;"/><polygon fill="#A80036" points="363.9107,128.5,354.9107,124.5,358.9107,128.5,354.9107,132.5,363.9107,128.5" style="stroke: #A80036; stroke-width: 1.0;"/><!--link charts to meter_groups--><path d="M544.2129,128.5 C554.2191,128.5 564.2253,128.5 574.2315,128.5 " fill="none" id="charts-meter_groups" style="stroke: #A80036; stroke-width: 1.0;"/><polygon fill="#A80036" points="579.4641,128.5,570.4641,124.5,574.4641,128.5,570.4641,132.5,579.4641,128.5" style="stroke: #A80036; stroke-width: 1.0;"/><!--
@startuml RDS

entity "Alerts" as alerts {
  id: integer <<primary key>>
  onid: string
  point: string
  lower_bounds: integer
  upper_bounds: integer
}

entity "Charts" as charts {
  id: integer <<primary key>>
  block_id: integer <<foreign key>>
  group_id: integer <<foreign key>>
  name: string
  point: string
  meter: integer
}

entity "Blocks" as blocks {
  id: integer <<primary key>>
  date_start: datetime
  date_end: datetime
  graph_type: integer
  name: string
  date_interval: integer
  interval_unit: string
} 

entity "Buildings" as buildings {
  id: integer <<primary key>>
  building_id: hash
  group: string
}

entity "Campaign Groups" as campaign_groups {
  id: integer <<primary key>>
  goal: integer
  building_id: integer
  campaign_id: integer
}

entity "Campaigns" as campaigns {
  id: integer <<primary key>>
  date_start: string
  date_end: string
  compare_start: string
  compare_end: string
  media: string
}

entity "Data" as data {
  id: integer <<primary key>>
  time: datettime
  meter_id: integer
  accumulated_real: integer
  real_power: float
  reactive_power: float
  apparent_power: float
  real_a: float
  real_b: float
  real_c: float
  reactive_a: float
  reactive_b: float
  reactive_c: float
  apparent_a: float
  apparent_b: float
  apparent_c: float
  pf_a: float
  pf_b: float
  pf_c: float
  vphase_ab: float
  vphase_bc: float
  vphase_ac: float
  vphase_an: float
  vphase_bn: float
  vphase_cn: float
  cphase_a: float
  cphase_b: float
  cphase_c: float
  cubic_feet: integer
  maximum: integer
  minimum: integer
  instant: integer
  rate: integer
  total: integer
  input: integer
}

entity "Meter Group Relation" as meter_group_relation {
  id: integer
  meter_id: integer
  group_id: integer
  operation: integer
}

entity "Meter Groups" as meter_groups {
  id: integer <<primary key>>
  name: string
  building_id: integer <<foreign key>>

}

entity "Meters" as meters {
  id: integer <<primary key>>
  name: string
  address: string
  class: integer
}



meter_group_relation -up-> meter_groups
meter_group_relation -> meters
meters -> data
buildings <- meter_groups

campaign_groups -down-> campaigns
buildings -down-> campaign_groups

blocks -> charts
charts -> meter_groups

@enduml

PlantUML version 1.2019.08(Sat Jul 13 12:25:14 PDT 2019)
(GPL source distribution)
Java Runtime: Java(TM) SE Runtime Environment
JVM: Java HotSpot(TM) 64-Bit Server VM
Java Version: 1.8.0_45-b14
Operating System: Mac OS X
OS Version: 10.14.6
Default Encoding: UTF-8
Language: en
Country: US
--></g></svg>