<?xml version="1.0" encoding="utf-8"?>
<!-- Generator: Adobe Illustrator 21.1.0, SVG Export Plug-In . SVG Version: 6.00 Build 0)  -->
<svg version="1.1" id="Layer_1" xmlns="http://www.w3.org/2000/svg" xmlns:xlink="http://www.w3.org/1999/xlink" x="0px" y="0px"
	 viewBox="0 0 432 432" style="enable-background:new 0 0 432 432;" xml:space="preserve">
<style type="text/css">
	g{stroke:#1A1A1A;fill: #1A1A1A;}
	.st0{fill:none;stroke:#1A1A1A;stroke-width:11.5405;stroke-miterlimit:10;}
	.st1{clip-path:url(#SVGID_2_);}
	.st2{clip-path:url(#SVGID_4_);}
	.st3{clip-path:url(#SVGID_6_);}
	.st4{clip-path:url(#SVGID_8_);}
	.st5{clip-path:url(#SVGID_10_);}
	.st6{fill:none;stroke:#1A1A1A;stroke-width:5.7805;stroke-miterlimit:10;}
	.st7{clip-path:url(#SVGID_12_);}
	.st8{clip-path:url(#SVGID_14_);}
	.st9{clip-path:url(#SVGID_16_);}
	.st10{clip-path:url(#SVGID_18_);}
</style>
<g>
	<g>
		<g>
			<path d="M287.1,370.2l-141.6-0.1V243.2c0-19.2,7.5-37.2,21-50.7c13.3-13.3,31-20.6,49.7-20.6c0.1,0,0.1,0,0.2,0
				c38.9,0.1,70.6,31.8,70.6,70.7L287.1,370.2z M157,358.6l118.6,0.1l-0.1-116c0-32.6-26.5-59.1-59.1-59.2l0,0c0,0-0.1,0-0.1,0
				c-15.6,0-30.4,6.1-41.6,17.3C163.3,212,157,227.1,157,243.2V358.6z"/>
		</g>
	</g>
	<g>
		<g>
			<path d="M340.6,351.3h-59.1v-11.5H329l-0.1-94c0-26.1-21.2-47.4-47.4-47.5c0,0-0.1,0-0.1,0c-6,0-11.9,1.1-17.5,3.4l-4.3-10.7
				c6.9-2.8,14.3-4.2,21.8-4.2c0,0,0.1,0,0.1,0c32.5,0.1,58.9,26.5,58.9,59L340.6,351.3z"/>
		</g>
	</g>
	<g>
		<g>
			<path d="M216.4,154.3c-25.7,0-46.5-20.9-46.5-46.5c0-25.7,20.9-46.5,46.5-46.5c25.7,0,46.5,20.9,46.5,46.5
				C263,133.4,242.1,154.3,216.4,154.3z M216.4,72.8c-19.3,0-35,15.7-35,35s15.7,35,35,35s35-15.7,35-35S235.7,72.8,216.4,72.8z"/>
		</g>
	</g>
	<g>
		<g>
			<path d="M282.7,168.1c-21.6,0-39.2-17.6-39.2-39.2h11.5c0,15.2,12.4,27.6,27.6,27.6s27.6-12.4,27.6-27.6s-12.4-27.6-27.6-27.6
				c-8.2,0-16,3.6-21.3,10l-8.9-7.4c7.5-9,18.5-14.2,30.1-14.2c21.6,0,39.2,17.6,39.2,39.2S304.3,168.1,282.7,168.1z"/>
		</g>
	</g>
	<g>
		<g>
			<path d="M151.4,350.6H90.8L91,245.1c0-32.5,26.4-58.9,58.9-59c0,0,0.1,0,0.1,0c8.1,0,16,1.6,23.3,4.9l-4.6,10.6
				c-5.9-2.6-12.2-3.9-18.7-3.9c0,0-0.1,0-0.1,0c-26.1,0.1-47.4,21.3-47.4,47.5l-0.1,94h49V350.6z"/>
		</g>
	</g>
	<g>
		<g>
			<path d="M148.7,167.4c-21.6,0-39.2-17.6-39.2-39.2s17.6-39.2,39.2-39.2c12.3,0,23.7,5.6,31.2,15.5l-9.2,7
				c-5.3-6.9-13.3-10.9-22-10.9c-15.2,0-27.6,12.4-27.6,27.6s12.4,27.6,27.6,27.6s27.6-12.4,27.6-27.6h11.5
				C187.8,149.8,170.3,167.4,148.7,167.4z"/>
		</g>
	</g>
	<g>
		<g>
			<path class="st0" d="M293.2,241.4"/>
		</g>
	</g>
	<g>
		<g>
			<path class="st0" d="M246.7,213.7"/>
		</g>
	</g>
	<g>
		<g>
			<path class="st0" d="M258,176.8"/>
		</g>
	</g>
	<g>
		<defs>
			<circle id="SVGID_1_" cx="282.8" cy="128.9" r="33.5"/>
		</defs>
		<clipPath id="SVGID_2_">
			<use xlink:href="#SVGID_1_"  style="overflow:visible;"/>
		</clipPath>
		<g class="st1">
			<g>
				<g>
					<rect x="65" y="33" transform="matrix(0.7071 -0.7071 0.7071 0.7071 67.2687 234.1314)" width="502.5" height="5.8"/>
				</g>
			</g>
			<g>
				<g>
					<rect x="65" y="12.5" transform="matrix(0.7071 -0.7071 0.7071 0.7071 81.7796 228.1208)" width="502.5" height="5.8"/>
				</g>
			</g>
			<g>
				<g>
					<rect x="65" y="-8.1" transform="matrix(0.7071 -0.7071 0.7071 0.7071 96.2901 222.1104)" width="502.5" height="5.8"/>
				</g>
			</g>
			<g>
				<g>
					<rect x="65" y="-28.6" transform="matrix(0.7071 -0.7071 0.7071 0.7071 110.8006 216.0999)" width="502.5" height="5.8"/>
				</g>
			</g>
			<g>
				<g>
					<rect x="65" y="-49.1" transform="matrix(0.7071 -0.7071 0.7071 0.7071 125.3112 210.0894)" width="502.5" height="5.8"/>
				</g>
			</g>
			<g>
				<g>
					<rect x="65" y="-69.6" transform="matrix(0.7071 -0.7071 0.7071 0.7071 139.8217 204.079)" width="502.5" height="5.8"/>
				</g>
			</g>
			<g>
				<g>
					<rect x="65" y="-90.2" transform="matrix(0.7071 -0.7071 0.7071 0.7071 154.3326 198.0684)" width="502.5" height="5.8"/>
				</g>
			</g>
			<g>
				<g>
					<rect x="65" y="-110.7" transform="matrix(0.7071 -0.7071 0.7071 0.7071 168.8431 192.0579)" width="502.5" height="5.8"/>
				</g>
			</g>
			<g>
				<g>
					<rect x="65" y="197.1" transform="matrix(0.7071 -0.7071 0.7071 0.7071 -48.8209 282.1935)" width="502.5" height="5.8"/>
				</g>
			</g>
			<g>
				<g>
					<rect x="65" y="176.6" transform="matrix(0.7071 -0.7071 0.7071 0.7071 -34.3113 276.1839)" width="502.5" height="5.8"/>
				</g>
			</g>
			<g>
				<g>
					<rect x="65" y="156.1" transform="matrix(0.7071 -0.7071 0.7071 0.7071 -19.8014 270.1742)" width="502.5" height="5.8"/>
				</g>
			</g>
			<g>
				<g>
					<rect x="65" y="135.6" transform="matrix(0.7071 -0.7071 0.7071 0.7071 -5.2919 264.1647)" width="502.5" height="5.8"/>
				</g>
			</g>
			<g>
				<g>
					<rect x="65" y="115.1" transform="matrix(0.7071 -0.7071 0.7071 0.7071 9.2181 258.155)" width="502.5" height="5.8"/>
				</g>
			</g>
			<g>
				<g>
					<rect x="65" y="94.5" transform="matrix(0.7071 -0.7071 0.7071 0.7071 23.7277 252.1454)" width="502.5" height="5.8"/>
				</g>
			</g>
			<g>
				<g>
					<rect x="65" y="74" transform="matrix(0.7071 -0.7071 0.7071 0.7071 38.2374 246.1358)" width="502.5" height="5.8"/>
				</g>
			</g>
			<g>
				<g>
					<rect x="65" y="53.5" transform="matrix(0.7071 -0.7071 0.7071 0.7071 52.7473 240.1261)" width="502.5" height="5.8"/>
				</g>
			</g>
			<g>
				<g>
					<rect x="65" y="361.3" transform="matrix(0.7071 -0.7071 0.7071 0.7071 -164.8988 330.2704)" width="502.5" height="5.8"/>
				</g>
			</g>
			<g>
				<g>
					<rect x="65" y="340.8" transform="matrix(0.7071 -0.7071 0.7071 0.7071 -150.3893 324.2609)" width="502.5" height="5.8"/>
				</g>
			</g>
			<g>
				<g>
					<rect x="65" y="320.3" transform="matrix(0.7071 -0.7071 0.7071 0.7071 -135.8795 318.2513)" width="502.5" height="5.8"/>
				</g>
			</g>
			<g>
				<g>
					<rect x="65" y="299.7" transform="matrix(0.7071 -0.7071 0.7071 0.7071 -121.3696 312.2416)" width="502.5" height="5.8"/>
				</g>
			</g>
			<g>
				<g>
					<rect x="65" y="279.2" transform="matrix(0.7071 -0.7071 0.7071 0.7071 -106.86 306.232)" width="502.5" height="5.8"/>
				</g>
			</g>
			<g>
				<g>
					<rect x="65" y="258.7" transform="matrix(0.7071 -0.7071 0.7071 0.7071 -92.3501 300.2224)" width="502.5" height="5.8"/>
				</g>
			</g>
			<g>
				<g>
					<rect x="65" y="238.2" transform="matrix(0.7071 -0.7071 0.7071 0.7071 -77.8406 294.2128)" width="502.5" height="5.8"/>
				</g>
			</g>
			<g>
				<g>
					<rect x="65" y="217.7" transform="matrix(0.7071 -0.7071 0.7071 0.7071 -63.3306 288.2031)" width="502.5" height="5.8"/>
				</g>
			</g>
			<g>
				<g>
					<rect x="65" y="525.5" transform="matrix(0.7071 -0.7071 0.7071 0.7071 -280.9766 378.3474)" width="502.5" height="5.8"/>
				</g>
			</g>
			<g>
				<g>
					<rect x="65" y="505" transform="matrix(0.7071 -0.7071 0.7071 0.7071 -266.4673 372.338)" width="502.5" height="5.8"/>
				</g>
			</g>
			<g>
				<g>
					<rect x="65" y="484.4" transform="matrix(0.7071 -0.7071 0.7071 0.7071 -251.9573 366.3282)" width="502.5" height="5.8"/>
				</g>
			</g>
			<g>
				<g>
					<rect x="65" y="463.9" transform="matrix(0.7071 -0.7071 0.7071 0.7071 -237.4476 360.3186)" width="502.5" height="5.8"/>
				</g>
			</g>
			<g>
				<g>
					<rect x="65" y="443.4" transform="matrix(0.7071 -0.7071 0.7071 0.7071 -222.9379 354.309)" width="502.5" height="5.8"/>
				</g>
			</g>
			<g>
				<g>
					<rect x="65" y="422.9" transform="matrix(0.7071 -0.7071 0.7071 0.7071 -208.4279 348.2993)" width="502.5" height="5.8"/>
				</g>
			</g>
			<g>
				<g>
					<rect x="65" y="402.4" transform="matrix(0.7071 -0.7071 0.7071 0.7071 -193.9186 342.2898)" width="502.5" height="5.8"/>
				</g>
			</g>
			<g>
				<g>
					<rect x="65" y="381.8" transform="matrix(0.7071 -0.7071 0.7071 0.7071 -179.4086 336.2801)" width="502.5" height="5.8"/>
				</g>
			</g>
		</g>
	</g>
	<g>
		<defs>
			<path id="SVGID_3_" d="M281.5,347.7h53.3l-0.1-99.8c0-29.4-23.8-53.2-53.1-53.2c-7,0-13.7,1.3-19.8,3.8c0,0,19.5,22.1,19.5,47.3
				S281.5,347.7,281.5,347.7z"/>
		</defs>
		<clipPath id="SVGID_4_">
			<use xlink:href="#SVGID_3_"  style="overflow:visible;"/>
		</clipPath>
		<g class="st2">
			<g>
				<g>
					<rect x="56.5" y="96.6" transform="matrix(0.7071 -0.7071 0.7071 0.7071 19.8034 246.7144)" width="502.5" height="5.8"/>
				</g>
			</g>
			<g>
				<g>
					<rect x="56.5" y="76" transform="matrix(0.7071 -0.7071 0.7071 0.7071 34.3134 240.7046)" width="502.5" height="5.8"/>
				</g>
			</g>
			<g>
				<g>
					<rect x="56.5" y="55.5" transform="matrix(0.7071 -0.7071 0.7071 0.7071 48.8231 234.695)" width="502.5" height="5.8"/>
				</g>
			</g>
			<g>
				<g>
					<rect x="56.5" y="35" transform="matrix(0.7071 -0.7071 0.7071 0.7071 63.3328 228.6854)" width="502.5" height="5.8"/>
				</g>
			</g>
			<g>
				<g>
					<rect x="56.5" y="14.5" transform="matrix(0.7071 -0.7071 0.7071 0.7071 77.8548 222.6895)" width="502.5" height="5.8"/>
				</g>
			</g>
			<g>
				<g>
					<rect x="56.5" y="-6" transform="matrix(0.7071 -0.7071 0.7071 0.7071 92.3653 216.6791)" width="502.5" height="5.8"/>
				</g>
			</g>
			<g>
				<g>
					<rect x="56.5" y="-26.6" transform="matrix(0.7071 -0.7071 0.7071 0.7071 106.8762 210.6685)" width="502.5" height="5.8"/>
				</g>
			</g>
			<g>
				<g>
					<rect x="56.5" y="-47.1" transform="matrix(0.7071 -0.7071 0.7071 0.7071 121.3867 204.658)" width="502.5" height="5.8"/>
				</g>
			</g>
			<g>
				<g>
					<rect x="56.5" y="260.7" transform="matrix(0.7071 -0.7071 0.7071 0.7071 -96.2743 294.7912)" width="502.5" height="5.8"/>
				</g>
			</g>
			<g>
				<g>
					<rect x="56.5" y="240.2" transform="matrix(0.7071 -0.7071 0.7071 0.7071 -81.7646 288.7816)" width="502.5" height="5.8"/>
				</g>
			</g>
			<g>
				<g>
					<rect x="56.5" y="219.7" transform="matrix(0.7071 -0.7071 0.7071 0.7071 -67.2548 282.772)" width="502.5" height="5.8"/>
				</g>
			</g>
			<g>
				<g>
					<rect x="56.5" y="199.2" transform="matrix(0.7071 -0.7071 0.7071 0.7071 -52.7453 276.7625)" width="502.5" height="5.8"/>
				</g>
			</g>
			<g>
				<g>
					<rect x="56.5" y="178.6" transform="matrix(0.7071 -0.7071 0.7071 0.7071 -38.2353 270.7527)" width="502.5" height="5.8"/>
				</g>
			</g>
			<g>
				<g>
					<rect x="56.5" y="158.1" transform="matrix(0.7071 -0.7071 0.7071 0.7071 -23.7256 264.7431)" width="502.5" height="5.8"/>
				</g>
			</g>
			<g>
				<g>
					<rect x="56.5" y="137.6" transform="matrix(0.7071 -0.7071 0.7071 0.7071 -9.2159 258.7335)" width="502.5" height="5.8"/>
				</g>
			</g>
			<g>
				<g>
					<rect x="56.5" y="117.1" transform="matrix(0.7071 -0.7071 0.7071 0.7071 5.2939 252.7239)" width="502.5" height="5.8"/>
				</g>
			</g>
			<g>
				<g>
					<rect x="56.5" y="424.9" transform="matrix(0.7071 -0.7071 0.7071 0.7071 -212.3522 342.8683)" width="502.5" height="5.8"/>
				</g>
			</g>
			<g>
				<g>
					<rect x="56.5" y="404.4" transform="matrix(0.7071 -0.7071 0.7071 0.7071 -197.8426 336.8586)" width="502.5" height="5.8"/>
				</g>
			</g>
			<g>
				<g>
					<rect x="56.5" y="383.9" transform="matrix(0.7071 -0.7071 0.7071 0.7071 -183.3328 330.849)" width="502.5" height="5.8"/>
				</g>
			</g>
			<g>
				<g>
					<rect x="56.5" y="363.3" transform="matrix(0.7071 -0.7071 0.7071 0.7071 -168.823 324.8394)" width="502.5" height="5.8"/>
				</g>
			</g>
			<g>
				<g>
					<rect x="56.5" y="342.8" transform="matrix(0.7071 -0.7071 0.7071 0.7071 -154.3133 318.8298)" width="502.5" height="5.8"/>
				</g>
			</g>
			<g>
				<g>
					<rect x="56.5" y="322.3" transform="matrix(0.7071 -0.7071 0.7071 0.7071 -139.8035 312.8201)" width="502.5" height="5.8"/>
				</g>
			</g>
			<g>
				<g>
					<rect x="56.5" y="301.8" transform="matrix(0.7071 -0.7071 0.7071 0.7071 -125.294 306.8106)" width="502.5" height="5.8"/>
				</g>
			</g>
			<g>
				<g>
					<rect x="56.5" y="281.2" transform="matrix(0.7071 -0.7071 0.7071 0.7071 -110.7841 300.8009)" width="502.5" height="5.8"/>
				</g>
			</g>
			<g>
				<g>
					<rect x="56.5" y="589.1" transform="matrix(0.7071 -0.7071 0.7071 0.7071 -328.4299 390.9451)" width="502.5" height="5.8"/>
				</g>
			</g>
			<g>
				<g>
					<rect x="56.5" y="568.5" transform="matrix(0.7071 -0.7071 0.7071 0.7071 -313.9206 384.9357)" width="502.5" height="5.8"/>
				</g>
			</g>
			<g>
				<g>
					<rect x="56.5" y="548" transform="matrix(0.7071 -0.7071 0.7071 0.7071 -299.4106 378.926)" width="502.5" height="5.8"/>
				</g>
			</g>
			<g>
				<g>
					<rect x="56.5" y="527.5" transform="matrix(0.7071 -0.7071 0.7071 0.7071 -284.9013 372.9165)" width="502.5" height="5.8"/>
				</g>
			</g>
			<g>
				<g>
					<rect x="56.5" y="507" transform="matrix(0.7071 -0.7071 0.7071 0.7071 -270.3913 366.9068)" width="502.5" height="5.8"/>
				</g>
			</g>
			<g>
				<g>
					<rect x="56.5" y="486.5" transform="matrix(0.7071 -0.7071 0.7071 0.7071 -255.8812 360.897)" width="502.5" height="5.8"/>
				</g>
			</g>
			<g>
				<g>
					<rect x="56.5" y="465.9" transform="matrix(0.7071 -0.7071 0.7071 0.7071 -241.3719 354.8876)" width="502.5" height="5.8"/>
				</g>
			</g>
			<g>
				<g>
					<rect x="56.5" y="445.4" transform="matrix(0.7071 -0.7071 0.7071 0.7071 -226.8619 348.8778)" width="502.5" height="5.8"/>
				</g>
			</g>
		</g>
	</g>
	<g>
		<defs>
			<circle id="SVGID_5_" cx="148.3" cy="128.6" r="33.5"/>
		</defs>
		<clipPath id="SVGID_6_">
			<use xlink:href="#SVGID_5_"  style="overflow:visible;"/>
		</clipPath>
		<g class="st3">
			<g>
				<g>
					<rect x="112" y="-215.7" transform="matrix(0.7071 -0.7071 0.7071 0.7071 8.4941 91.6288)" width="5.8" height="502.5"/>
				</g>
			</g>
			<g>
				<g>
					<rect x="112" y="-236.2" transform="matrix(0.7071 -0.7071 0.7071 0.7071 23.005 85.6182)" width="5.8" height="502.5"/>
				</g>
			</g>
			<g>
				<g>
					<rect x="112" y="-256.7" transform="matrix(0.7071 -0.7071 0.7071 0.7071 37.5155 79.6077)" width="5.8" height="502.5"/>
				</g>
			</g>
			<g>
				<g>
					<rect x="112" y="-277.3" transform="matrix(0.7071 -0.7071 0.7071 0.7071 52.0261 73.5973)" width="5.8" height="502.5"/>
				</g>
			</g>
			<g>
				<g>
					<rect x="112" y="-297.8" transform="matrix(0.7071 -0.7071 0.7071 0.7071 66.5366 67.5868)" width="5.8" height="502.5"/>
				</g>
			</g>
			<g>
				<g>
					<rect x="112" y="-318.3" transform="matrix(0.7071 -0.7071 0.7071 0.7071 81.0469 61.5763)" width="5.8" height="502.5"/>
				</g>
			</g>
			<g>
				<g>
					<rect x="112" y="-338.8" transform="matrix(0.7071 -0.7071 0.7071 0.7071 95.558 55.5658)" width="5.8" height="502.5"/>
				</g>
			</g>
			<g>
				<g>
					<rect x="112" y="-359.4" transform="matrix(0.7071 -0.7071 0.7071 0.7071 110.0685 49.5553)" width="5.8" height="502.5"/>
				</g>
			</g>
			<g>
				<g>
					<rect x="112" y="-51.5" transform="matrix(0.7071 -0.7071 0.7071 0.7071 -107.5904 139.7124)" width="5.8" height="502.5"/>
				</g>
			</g>
			<g>
				<g>
					<rect x="112" y="-72.1" transform="matrix(0.7071 -0.7071 0.7071 0.7071 -93.0799 133.7017)" width="5.8" height="502.5"/>
				</g>
			</g>
			<g>
				<g>
					<rect x="112" y="-92.6" transform="matrix(0.7071 -0.7071 0.7071 0.7071 -78.5694 127.6915)" width="5.8" height="502.5"/>
				</g>
			</g>
			<g>
				<g>
					<rect x="112" y="-113.1" transform="matrix(0.7071 -0.7071 0.7071 0.7071 -64.0587 121.6811)" width="5.8" height="502.5"/>
				</g>
			</g>
			<g>
				<g>
					<rect x="112" y="-133.6" transform="matrix(0.7071 -0.7071 0.7071 0.7071 -49.548 115.6703)" width="5.8" height="502.5"/>
				</g>
			</g>
			<g>
				<g>
					<rect x="112" y="-154.1" transform="matrix(0.7071 -0.7071 0.7071 0.7071 -35.0375 109.6601)" width="5.8" height="502.5"/>
				</g>
			</g>
			<g>
				<g>
					<rect x="112" y="-174.7" transform="matrix(0.7071 -0.7071 0.7071 0.7071 -20.5268 103.6496)" width="5.8" height="502.5"/>
				</g>
			</g>
			<g>
				<g>
					<rect x="112" y="-195.2" transform="matrix(0.7071 -0.7071 0.7071 0.7071 -6.0165 97.6392)" width="5.8" height="502.5"/>
				</g>
			</g>
			<g>
				<g>
					<rect x="112" y="112.6" transform="matrix(0.7071 -0.7071 0.7071 0.7071 -223.6753 187.7962)" width="5.8" height="502.5"/>
				</g>
			</g>
			<g>
				<g>
					<rect x="112" y="92.1" transform="matrix(0.7071 -0.7071 0.7071 0.7071 -209.1647 181.7859)" width="5.8" height="502.5"/>
				</g>
			</g>
			<g>
				<g>
					<rect x="112" y="71.6" transform="matrix(0.7071 -0.7071 0.7071 0.7071 -194.6537 175.7748)" width="5.8" height="502.5"/>
				</g>
			</g>
			<g>
				<g>
					<rect x="112" y="51.1" transform="matrix(0.7071 -0.7071 0.7071 0.7071 -180.1434 169.7648)" width="5.8" height="502.5"/>
				</g>
			</g>
			<g>
				<g>
					<rect x="112" y="30.5" transform="matrix(0.7071 -0.7071 0.7071 0.7071 -165.6327 163.7539)" width="5.8" height="502.5"/>
				</g>
			</g>
			<g>
				<g>
					<rect x="112" y="10" transform="matrix(0.7071 -0.7071 0.7071 0.7071 -151.1223 157.7439)" width="5.8" height="502.5"/>
				</g>
			</g>
			<g>
				<g>
					<rect x="112" y="-10.5" transform="matrix(0.7071 -0.7071 0.7071 0.7071 -136.6117 151.7335)" width="5.8" height="502.5"/>
				</g>
			</g>
			<g>
				<g>
					<rect x="112" y="-31" transform="matrix(0.7071 -0.7071 0.7071 0.7071 -122.1009 145.7225)" width="5.8" height="502.5"/>
				</g>
			</g>
			<g>
				<g>
					<rect x="112" y="276.8" transform="matrix(0.7071 -0.7071 0.7071 0.7071 -339.76 235.88)" width="5.8" height="502.5"/>
				</g>
			</g>
			<g>
				<g>
					<rect x="112" y="256.3" transform="matrix(0.7071 -0.7071 0.7071 0.7071 -325.2491 229.8694)" width="5.8" height="502.5"/>
				</g>
			</g>
			<g>
				<g>
					<rect x="112" y="235.8" transform="matrix(0.7071 -0.7071 0.7071 0.7071 -310.739 223.8591)" width="5.8" height="502.5"/>
				</g>
			</g>
			<g>
				<g>
					<rect x="112" y="215.2" transform="matrix(0.7071 -0.7071 0.7071 0.7071 -296.2281 217.8485)" width="5.8" height="502.5"/>
				</g>
			</g>
			<g>
				<g>
					<rect x="112" y="194.7" transform="matrix(0.7071 -0.7071 0.7071 0.7071 -281.7172 211.838)" width="5.8" height="502.5"/>
				</g>
			</g>
			<g>
				<g>
					<rect x="112" y="174.2" transform="matrix(0.7071 -0.7071 0.7071 0.7071 -267.2071 205.8277)" width="5.8" height="502.5"/>
				</g>
			</g>
			<g>
				<g>
					<rect x="112" y="153.7" transform="matrix(0.7071 -0.7071 0.7071 0.7071 -252.6962 199.8171)" width="5.8" height="502.5"/>
				</g>
			</g>
			<g>
				<g>
					<rect x="112" y="133.2" transform="matrix(0.7071 -0.7071 0.7071 0.7071 -238.1855 193.8062)" width="5.8" height="502.5"/>
				</g>
			</g>
		</g>
	</g>
	<g>
		<defs>
			<path id="SVGID_7_" d="M149.6,347.4H96.3l0.1-99.8c0-29.4,23.8-53.2,53.1-53.2c7,0,13.7,1.3,19.8,3.8c0,0-19.5,22.1-19.5,47.3
				S149.6,347.4,149.6,347.4z"/>
		</defs>
		<clipPath id="SVGID_8_">
			<use xlink:href="#SVGID_7_"  style="overflow:visible;"/>
		</clipPath>
		<g class="st4">
			<g>
				<g>
					<rect x="120.5" y="-152.1" transform="matrix(0.7071 -0.7071 0.7071 0.7071 -33.9721 116.2758)" width="5.8" height="502.5"/>
				</g>
			</g>
			<g>
				<g>
					<rect x="120.5" y="-172.6" transform="matrix(0.7071 -0.7071 0.7071 0.7071 -19.4614 110.265)" width="5.8" height="502.5"/>
				</g>
			</g>
			<g>
				<g>
					<rect x="120.5" y="-193.2" transform="matrix(0.7071 -0.7071 0.7071 0.7071 -4.9509 104.2548)" width="5.8" height="502.5"/>
				</g>
			</g>
			<g>
				<g>
					<rect x="120.5" y="-213.7" transform="matrix(0.7071 -0.7071 0.7071 0.7071 9.5598 98.2444)" width="5.8" height="502.5"/>
				</g>
			</g>
			<g>
				<g>
					<rect x="120.5" y="-234.2" transform="matrix(0.7071 -0.7071 0.7071 0.7071 24.0703 92.2339)" width="5.8" height="502.5"/>
				</g>
			</g>
			<g>
				<g>
					<rect x="120.5" y="-254.7" transform="matrix(0.7071 -0.7071 0.7071 0.7071 38.5808 86.2235)" width="5.8" height="502.5"/>
				</g>
			</g>
			<g>
				<g>
					<rect x="120.5" y="-275.2" transform="matrix(0.7071 -0.7071 0.7071 0.7071 53.0917 80.2129)" width="5.8" height="502.5"/>
				</g>
			</g>
			<g>
				<g>
					<rect x="120.5" y="-295.8" transform="matrix(0.7071 -0.7071 0.7071 0.7071 67.6022 74.2024)" width="5.8" height="502.5"/>
				</g>
			</g>
			<g>
				<g>
					<rect x="120.5" y="12" transform="matrix(0.7071 -0.7071 0.7071 0.7071 -150.0567 164.3595)" width="5.8" height="502.5"/>
				</g>
			</g>
			<g>
				<g>
					<rect x="120.5" y="-8.5" transform="matrix(0.7071 -0.7071 0.7071 0.7071 -135.5461 158.3487)" width="5.8" height="502.5"/>
				</g>
			</g>
			<g>
				<g>
					<rect x="120.5" y="-29" transform="matrix(0.7071 -0.7071 0.7071 0.7071 -121.0357 152.3386)" width="5.8" height="502.5"/>
				</g>
			</g>
			<g>
				<g>
					<rect x="120.5" y="-49.5" transform="matrix(0.7071 -0.7071 0.7071 0.7071 -106.525 146.3282)" width="5.8" height="502.5"/>
				</g>
			</g>
			<g>
				<g>
					<rect x="120.5" y="-70" transform="matrix(0.7071 -0.7071 0.7071 0.7071 -92.0143 140.3173)" width="5.8" height="502.5"/>
				</g>
			</g>
			<g>
				<g>
					<rect x="120.5" y="-90.6" transform="matrix(0.7071 -0.7071 0.7071 0.7071 -77.5038 134.3071)" width="5.8" height="502.5"/>
				</g>
			</g>
			<g>
				<g>
					<rect x="120.5" y="-111.1" transform="matrix(0.7071 -0.7071 0.7071 0.7071 -62.9933 128.2964)" width="5.8" height="502.5"/>
				</g>
			</g>
			<g>
				<g>
					<rect x="120.5" y="-131.6" transform="matrix(0.7071 -0.7071 0.7071 0.7071 -48.4828 122.2862)" width="5.8" height="502.5"/>
				</g>
			</g>
			<g>
				<g>
					<rect x="120.5" y="176.2" transform="matrix(0.7071 -0.7071 0.7071 0.7071 -266.1414 212.4433)" width="5.8" height="502.5"/>
				</g>
			</g>
			<g>
				<g>
					<rect x="120.5" y="155.7" transform="matrix(0.7071 -0.7071 0.7071 0.7071 -251.6306 206.4327)" width="5.8" height="502.5"/>
				</g>
			</g>
			<g>
				<g>
					<rect x="120.5" y="135.2" transform="matrix(0.7071 -0.7071 0.7071 0.7071 -237.1199 200.4218)" width="5.8" height="502.5"/>
				</g>
			</g>
			<g>
				<g>
					<rect x="120.5" y="114.7" transform="matrix(0.7071 -0.7071 0.7071 0.7071 -222.6096 194.4118)" width="5.8" height="502.5"/>
				</g>
			</g>
			<g>
				<g>
					<rect x="120.5" y="94.1" transform="matrix(0.7071 -0.7071 0.7071 0.7071 -208.0989 188.4009)" width="5.8" height="502.5"/>
				</g>
			</g>
			<g>
				<g>
					<rect x="120.5" y="73.6" transform="matrix(0.7071 -0.7071 0.7071 0.7071 -193.5886 182.3909)" width="5.8" height="502.5"/>
				</g>
			</g>
			<g>
				<g>
					<rect x="120.5" y="53.1" transform="matrix(0.7071 -0.7071 0.7071 0.7071 -179.078 176.3806)" width="5.8" height="502.5"/>
				</g>
			</g>
			<g>
				<g>
					<rect x="120.5" y="32.6" transform="matrix(0.7071 -0.7071 0.7071 0.7071 -164.5671 170.3695)" width="5.8" height="502.5"/>
				</g>
			</g>
			<g>
				<g>
					<rect x="120.5" y="340.4" transform="matrix(0.7071 -0.7071 0.7071 0.7071 -382.2263 260.5271)" width="5.8" height="502.5"/>
				</g>
			</g>
			<g>
				<g>
					<rect x="120.5" y="319.9" transform="matrix(0.7071 -0.7071 0.7071 0.7071 -367.7154 254.5165)" width="5.8" height="502.5"/>
				</g>
			</g>
			<g>
				<g>
					<rect x="120.5" y="299.3" transform="matrix(0.7071 -0.7071 0.7071 0.7071 -353.2052 248.5062)" width="5.8" height="502.5"/>
				</g>
			</g>
			<g>
				<g>
					<rect x="120.5" y="278.8" transform="matrix(0.7071 -0.7071 0.7071 0.7071 -338.6944 242.4956)" width="5.8" height="502.5"/>
				</g>
			</g>
			<g>
				<g>
					<rect x="120.5" y="258.3" transform="matrix(0.7071 -0.7071 0.7071 0.7071 -324.1835 236.485)" width="5.8" height="502.5"/>
				</g>
			</g>
			<g>
				<g>
					<rect x="120.5" y="237.8" transform="matrix(0.7071 -0.7071 0.7071 0.7071 -309.6733 230.4747)" width="5.8" height="502.5"/>
				</g>
			</g>
			<g>
				<g>
					<rect x="120.5" y="217.3" transform="matrix(0.7071 -0.7071 0.7071 0.7071 -295.1625 224.4641)" width="5.8" height="502.5"/>
				</g>
			</g>
			<g>
				<g>
					<rect x="120.5" y="196.7" transform="matrix(0.7071 -0.7071 0.7071 0.7071 -280.6523 218.4538)" width="5.8" height="502.5"/>
				</g>
			</g>
		</g>
	</g>
</g>
<g>
	<polygon class="st0" points="1272.8,200.9 1246.6,227.7 1144.2,332.6 1132.2,344.8 1149.3,345 1163.7,345.1 1131.5,426
		1118.1,459.5 1143.5,433.8 1246.7,329.2 1259,316.7 1241.5,316.8 1225.4,316.8 1258.6,235.6 	"/>
	<polygon class="st0" points="1168,174.8 1156.1,198 1109.6,288.8 1104.1,299.3 1115.5,296 1125.1,293.1 1120.3,353.4 1118.3,378.4
		1129.9,356.1 1177,265.5 1182.6,254.6 1171,258.3 1160.3,261.6 1165.7,200.8 	"/>
	<g>
		<defs>
			<polygon id="SVGID_9_" points="1168,173.3 1156.1,196.5 1109.6,287.2 1104.1,297.8 1115.5,294.4 1125.1,291.6 1120.3,351.9
				1118.3,376.9 1129.9,354.6 1177,264 1182.6,253.1 1171,256.8 1160.3,260.1 1165.7,199.3 			"/>
		</defs>
		<clipPath id="SVGID_10_">
			<use xlink:href="#SVGID_9_"  style="overflow:visible;"/>
		</clipPath>
		<g class="st5">
			<line class="st6" x1="975.2" y1="267.4" x2="1330.5" y2="-87.9"/>
			<line class="st6" x1="975.2" y1="246.9" x2="1330.5" y2="-108.4"/>
			<line class="st6" x1="975.2" y1="226.4" x2="1330.5" y2="-128.9"/>
			<line class="st6" x1="975.2" y1="205.9" x2="1330.5" y2="-149.5"/>
			<line class="st6" x1="975.2" y1="185.4" x2="1330.5" y2="-170"/>
			<line class="st6" x1="975.2" y1="164.8" x2="1330.5" y2="-190.5"/>
			<line class="st6" x1="975.2" y1="144.3" x2="1330.5" y2="-211"/>
			<line class="st6" x1="975.2" y1="123.8" x2="1330.5" y2="-231.5"/>
			<line class="st6" x1="975.2" y1="431.6" x2="1330.5" y2="76.3"/>
			<line class="st6" x1="975.2" y1="411.1" x2="1330.5" y2="55.7"/>
			<line class="st6" x1="975.2" y1="390.6" x2="1330.5" y2="35.2"/>
			<line class="st6" x1="975.2" y1="370.1" x2="1330.5" y2="14.7"/>
			<line class="st6" x1="975.2" y1="349.5" x2="1330.5" y2="-5.8"/>
			<line class="st6" x1="975.2" y1="329" x2="1330.5" y2="-26.3"/>
			<line class="st6" x1="975.2" y1="308.5" x2="1330.5" y2="-46.9"/>
			<line class="st6" x1="975.2" y1="288" x2="1330.5" y2="-67.4"/>
			<line class="st6" x1="975.2" y1="595.8" x2="1330.5" y2="240.4"/>
			<line class="st6" x1="975.2" y1="575.3" x2="1330.5" y2="219.9"/>
			<line class="st6" x1="975.2" y1="554.7" x2="1330.5" y2="199.4"/>
			<line class="st6" x1="975.2" y1="534.2" x2="1330.5" y2="178.9"/>
			<line class="st6" x1="975.2" y1="513.7" x2="1330.5" y2="158.4"/>
			<line class="st6" x1="975.2" y1="493.2" x2="1330.5" y2="137.8"/>
			<line class="st6" x1="975.2" y1="472.7" x2="1330.5" y2="117.3"/>
			<line class="st6" x1="975.2" y1="452.1" x2="1330.5" y2="96.8"/>
			<line class="st6" x1="975.2" y1="760" x2="1330.5" y2="404.6"/>
			<line class="st6" x1="975.2" y1="739.4" x2="1330.5" y2="384.1"/>
			<line class="st6" x1="975.2" y1="718.9" x2="1330.5" y2="363.6"/>
			<line class="st6" x1="975.2" y1="698.4" x2="1330.5" y2="343"/>
			<line class="st6" x1="975.2" y1="677.9" x2="1330.5" y2="322.5"/>
			<line class="st6" x1="975.2" y1="657.3" x2="1330.5" y2="302"/>
			<line class="st6" x1="975.2" y1="636.8" x2="1330.5" y2="281.5"/>
			<line class="st6" x1="975.2" y1="616.3" x2="1330.5" y2="261"/>
		</g>
	</g>
</g>
<g>
	<path class="st0" d="M588.3,898.2L588.3,898.2c-2.1-2.1-3.3-4.9-3.3-7.9V604.2c0,0,171.3,0,204,0c3,0,5.8,1.2,7.9,3.3h0
		c2.1,2.1,3.3,4.9,3.3,7.9v286.1c0,0-171.3,0-204,0C593.2,901.4,590.4,900.2,588.3,898.2z"/>
	<circle class="st0" cx="692.6" cy="784.9" r="67.4"/>
	<circle cx="767.8" cy="634.1" r="7.6"/>
	<circle cx="729.9" cy="634.1" r="7.6"/>
	<circle cx="690.4" cy="634.1" r="7.6"/>
	<line class="st0" x1="585.7" y1="663.5" x2="800.5" y2="663.5"/>
	<line class="st0" x1="654.8" y1="664.1" x2="654.8" y2="604.2"/>
	<g>
		<defs>
			<rect id="SVGID_11_" x="583.6" y="604.2" width="69.7" height="59.6"/>
		</defs>
		<clipPath id="SVGID_12_">
			<use xlink:href="#SVGID_11_"  style="overflow:visible;"/>
		</clipPath>
		<g class="st7">
			<line class="st6" x1="469.2" y1="691.9" x2="824.5" y2="336.5"/>
			<line class="st6" x1="469.2" y1="671.3" x2="824.5" y2="316"/>
			<line class="st6" x1="469.2" y1="650.8" x2="824.5" y2="295.5"/>
			<line class="st6" x1="469.2" y1="630.3" x2="824.5" y2="274.9"/>
			<line class="st6" x1="469.2" y1="609.8" x2="824.5" y2="254.4"/>
			<line class="st6" x1="469.2" y1="589.2" x2="824.5" y2="233.9"/>
			<line class="st6" x1="469.2" y1="568.7" x2="824.5" y2="213.4"/>
			<line class="st6" x1="469.2" y1="548.2" x2="824.5" y2="192.9"/>
			<line class="st6" x1="469.2" y1="856" x2="824.5" y2="500.7"/>
			<line class="st6" x1="469.2" y1="835.5" x2="824.5" y2="480.2"/>
			<line class="st6" x1="469.2" y1="815" x2="824.5" y2="459.6"/>
			<line class="st6" x1="469.2" y1="794.5" x2="824.5" y2="439.1"/>
			<line class="st6" x1="469.2" y1="773.9" x2="824.5" y2="418.6"/>
			<line class="st6" x1="469.2" y1="753.4" x2="824.5" y2="398.1"/>
			<line class="st6" x1="469.2" y1="732.9" x2="824.5" y2="377.6"/>
			<line class="st6" x1="469.2" y1="712.4" x2="824.5" y2="357"/>
			<line class="st6" x1="469.2" y1="1020.2" x2="824.5" y2="664.8"/>
			<line class="st6" x1="469.2" y1="999.7" x2="824.5" y2="644.3"/>
			<line class="st6" x1="469.2" y1="979.2" x2="824.5" y2="623.8"/>
			<line class="st6" x1="469.2" y1="958.6" x2="824.5" y2="603.3"/>
			<line class="st6" x1="469.2" y1="938.1" x2="824.5" y2="582.8"/>
			<line class="st6" x1="469.2" y1="917.6" x2="824.5" y2="562.2"/>
			<line class="st6" x1="469.2" y1="897.1" x2="824.5" y2="541.7"/>
			<line class="st6" x1="469.2" y1="876.5" x2="824.5" y2="521.2"/>
			<line class="st6" x1="469.2" y1="1184.4" x2="824.5" y2="829"/>
			<line class="st6" x1="469.2" y1="1163.8" x2="824.5" y2="808.5"/>
			<line class="st6" x1="469.2" y1="1143.3" x2="824.5" y2="788"/>
			<line class="st6" x1="469.2" y1="1122.8" x2="824.5" y2="767.5"/>
			<line class="st6" x1="469.2" y1="1102.3" x2="824.5" y2="746.9"/>
			<line class="st6" x1="469.2" y1="1081.8" x2="824.5" y2="726.4"/>
			<line class="st6" x1="469.2" y1="1061.2" x2="824.5" y2="705.9"/>
			<line class="st6" x1="469.2" y1="1040.7" x2="824.5" y2="685.4"/>
		</g>
	</g>
	<g>
		<defs>
			<circle id="SVGID_13_" cx="691.8" cy="785.8" r="67.4"/>
		</defs>
		<clipPath id="SVGID_14_">
			<use xlink:href="#SVGID_13_"  style="overflow:visible;"/>
		</clipPath>
		<g class="st8">
			<line class="st6" x1="566.7" y1="716.2" x2="922" y2="360.8"/>
			<line class="st6" x1="566.7" y1="695.6" x2="922" y2="340.3"/>
			<line class="st6" x1="566.7" y1="675.1" x2="922" y2="319.8"/>
			<line class="st6" x1="566.7" y1="654.6" x2="922" y2="299.3"/>
			<line class="st6" x1="566.7" y1="634.1" x2="922" y2="278.7"/>
			<line class="st6" x1="566.7" y1="613.6" x2="922" y2="258.2"/>
			<line class="st6" x1="566.7" y1="593" x2="922" y2="237.7"/>
			<line class="st6" x1="566.7" y1="572.5" x2="922" y2="217.2"/>
			<line class="st6" x1="566.7" y1="880.3" x2="922" y2="525"/>
			<line class="st6" x1="566.7" y1="859.8" x2="922" y2="504.5"/>
			<line class="st6" x1="566.7" y1="839.3" x2="922" y2="483.9"/>
			<line class="st6" x1="566.7" y1="818.8" x2="922" y2="463.4"/>
			<line class="st6" x1="566.7" y1="798.2" x2="922" y2="442.9"/>
			<line class="st6" x1="566.7" y1="777.7" x2="922" y2="422.4"/>
			<line class="st6" x1="566.7" y1="757.2" x2="922" y2="401.9"/>
			<line class="st6" x1="566.7" y1="736.7" x2="922" y2="381.3"/>
			<line class="st6" x1="566.7" y1="1044.5" x2="922" y2="689.2"/>
			<line class="st6" x1="566.7" y1="1024" x2="922" y2="668.6"/>
			<line class="st6" x1="566.7" y1="1003.5" x2="922" y2="648.1"/>
			<line class="st6" x1="566.7" y1="982.9" x2="922" y2="627.6"/>
			<line class="st6" x1="566.7" y1="962.4" x2="922" y2="607.1"/>
			<line class="st6" x1="566.7" y1="941.9" x2="922" y2="586.5"/>
			<line class="st6" x1="566.7" y1="921.4" x2="922" y2="566"/>
			<line class="st6" x1="566.7" y1="900.8" x2="922" y2="545.5"/>
			<line class="st6" x1="566.7" y1="1208.7" x2="922" y2="853.3"/>
			<line class="st6" x1="566.7" y1="1188.1" x2="922" y2="832.8"/>
			<line class="st6" x1="566.7" y1="1167.6" x2="922" y2="812.3"/>
			<line class="st6" x1="566.7" y1="1147.1" x2="922" y2="791.8"/>
			<line class="st6" x1="566.7" y1="1126.6" x2="922" y2="771.2"/>
			<line class="st6" x1="566.7" y1="1106.1" x2="922" y2="750.7"/>
			<line class="st6" x1="566.7" y1="1085.5" x2="922" y2="730.2"/>
			<line class="st6" x1="566.7" y1="1065" x2="922" y2="709.7"/>
		</g>
	</g>
</g>
<g>
	<path class="st0" d="M1124.2,787.4c0,0-27.5-53-33.6-71.1s-3-58,24.4-84.8c26.6-26,55.2-29.9,88.5-21.3
		c33.3,8.6,51.9,34.3,57.2,56.7c3.9,16.4,6.9,45.7-8.5,74.6c-15.4,29-25.1,42.4-26.7,61.2c-1.5,18.2-5.7,22.1-12.9,27.2
		c-0.4,0.3-0.7,0.8-0.7,1.4v55c0,0.7-0.6,1.3-1.3,1.3h-1.9c-0.5,0-0.9,0.2-1.3,0.5l-15.9,16.3c-1.1,1.1-2.6,1.8-4.2,1.8h-20.5
		c-1.5,0-2.9-0.6-4-1.5l-18.2-16.6c-0.3-0.3-0.8-0.5-1.2-0.5h-1.5c-0.7,0-1.3-0.6-1.3-1.3v-51.8c0-0.6-0.3-1.1-0.8-1.4
		c-2.8-1.7-11.8-8.2-12.5-24C1126.3,790.6,1124.2,787.4,1124.2,787.4z"/>
	<path class="st0" d="M1140.5,860v-16.4c0-5.5,4.5-10,10-10h51.5c5.5,0,10,4.5,10,10V860"/>
	<path class="st0" d="M1189.5,838.9v-54.7c0-3.6,0.8-7.2,2.2-10.6c2.9-6.6,9.5-22.5,24.6-61.1c0.3-0.8,0.1-1.8-0.6-2.4
		c-5.8-4.9-14.8-8.1-22.8-1.2c-1.2,1-3,1-4.1-0.1c-7.1-6.3-16.3-7.6-25,0.5c-1.1,1-2.6,1.1-3.9,0.4c-11.7-7.4-20.4-2.1-23.5,0.4
		c-0.7,0.6-1,1.6-0.6,2.4l24.9,62c1,2.5,1.5,5.1,1.5,7.7v8.2v48.4"/>
	<g>
		<defs>
			<path id="SVGID_15_" d="M1189.4,783.1c0-3.6,11.7-33.1,26.9-71.6c0.3-0.8,0.1-1.8-0.6-2.4c-5.8-4.9-14.8-8.1-22.8-1.2
				c-1.2,1-3,1-4.1-0.1c-7.1-6.4-16.3-7.6-25,0.5c-1.1,1-2.6,1.1-3.9,0.3c-11.7-7.4-20.4-2.1-23.5,0.3c-0.7,0.6-1,1.6-0.6,2.4
				l26.2,69.8c1,2.5,0-2.6,0,0L1189.4,783.1z"/>
		</defs>
		<clipPath id="SVGID_16_">
			<use xlink:href="#SVGID_15_"  style="overflow:visible;"/>
		</clipPath>
		<g class="st9">
			<line class="st6" x1="1132.6" y1="684.4" x2="1488" y2="329.1"/>
			<line class="st6" x1="1132.6" y1="663.9" x2="1488" y2="308.6"/>
			<line class="st6" x1="1132.6" y1="643.4" x2="1488" y2="288"/>
			<line class="st6" x1="1132.6" y1="622.9" x2="1488" y2="267.5"/>
			<line class="st6" x1="1132.6" y1="602.4" x2="1488" y2="247"/>
			<line class="st6" x1="1132.6" y1="581.8" x2="1488" y2="226.5"/>
			<line class="st6" x1="1132.6" y1="561.3" x2="1488" y2="206"/>
			<line class="st6" x1="1132.6" y1="540.8" x2="1488" y2="185.4"/>
			<line class="st6" x1="1132.6" y1="848.6" x2="1488" y2="493.3"/>
			<line class="st6" x1="1132.6" y1="828.1" x2="1488" y2="472.7"/>
			<line class="st6" x1="1132.6" y1="807.6" x2="1488" y2="452.2"/>
			<line class="st6" x1="1132.6" y1="787" x2="1488" y2="431.7"/>
			<line class="st6" x1="1132.6" y1="766.5" x2="1488" y2="411.2"/>
			<line class="st6" x1="1132.6" y1="746" x2="1488" y2="390.7"/>
			<line class="st6" x1="1132.6" y1="725.5" x2="1488" y2="370.1"/>
			<line class="st6" x1="1132.6" y1="705" x2="1488" y2="349.6"/>
			<line class="st6" x1="1132.6" y1="1012.8" x2="1488" y2="657.4"/>
			<line class="st6" x1="1132.6" y1="992.3" x2="1488" y2="636.9"/>
			<line class="st6" x1="1132.6" y1="971.7" x2="1488" y2="616.4"/>
			<line class="st6" x1="1132.6" y1="951.2" x2="1488" y2="595.9"/>
			<line class="st6" x1="1132.6" y1="930.7" x2="1488" y2="575.3"/>
			<line class="st6" x1="1132.6" y1="910.2" x2="1488" y2="554.8"/>
			<line class="st6" x1="1132.6" y1="889.6" x2="1488" y2="534.3"/>
			<line class="st6" x1="1132.6" y1="869.1" x2="1488" y2="513.8"/>
			<line class="st6" x1="1132.6" y1="1176.9" x2="1488" y2="821.6"/>
			<line class="st6" x1="1132.6" y1="1156.4" x2="1488" y2="801.1"/>
			<line class="st6" x1="1132.6" y1="1135.9" x2="1488" y2="780.6"/>
			<line class="st6" x1="1132.6" y1="1115.4" x2="1488" y2="760"/>
			<line class="st6" x1="1132.6" y1="1094.9" x2="1488" y2="739.5"/>
			<line class="st6" x1="1132.6" y1="1074.3" x2="1488" y2="719"/>
			<line class="st6" x1="1132.6" y1="1053.8" x2="1488" y2="698.5"/>
			<line class="st6" x1="1132.6" y1="1033.3" x2="1488" y2="677.9"/>
		</g>
	</g>
	<path class="st0" d="M1189.5,804.3v-8.2c0-7.6-6.2-13.8-13.8-13.8h0c-7.6,0-13.8,6.2-13.8,13.8v8"/>
	<g>
		<defs>
			<polygon id="SVGID_17_" points="1140.2,835.3 1140.2,887.9 1161.8,908 1189.5,908 1211.7,887.9 1211.7,833.5 			"/>
		</defs>
		<clipPath id="SVGID_18_">
			<use xlink:href="#SVGID_17_"  style="overflow:visible;"/>
		</clipPath>
		<g class="st10">
			<line class="st6" x1="1068" y1="757.9" x2="1423.3" y2="402.6"/>
			<line class="st6" x1="1068" y1="737.4" x2="1423.3" y2="382"/>
			<line class="st6" x1="1068" y1="716.9" x2="1423.3" y2="361.5"/>
			<line class="st6" x1="1068" y1="696.3" x2="1423.3" y2="341"/>
			<line class="st6" x1="1068" y1="675.8" x2="1423.3" y2="320.5"/>
			<line class="st6" x1="1068" y1="655.3" x2="1423.3" y2="300"/>
			<line class="st6" x1="1068" y1="634.8" x2="1423.3" y2="279.4"/>
			<line class="st6" x1="1068" y1="614.3" x2="1423.3" y2="258.9"/>
			<line class="st6" x1="1068" y1="922.1" x2="1423.3" y2="566.7"/>
			<line class="st6" x1="1068" y1="901.6" x2="1423.3" y2="546.2"/>
			<line class="st6" x1="1068" y1="881" x2="1423.3" y2="525.7"/>
			<line class="st6" x1="1068" y1="860.5" x2="1423.3" y2="505.2"/>
			<line class="st6" x1="1068" y1="840" x2="1423.3" y2="484.6"/>
			<line class="st6" x1="1068" y1="819.5" x2="1423.3" y2="464.1"/>
			<line class="st6" x1="1068" y1="799" x2="1423.3" y2="443.6"/>
			<line class="st6" x1="1068" y1="778.4" x2="1423.3" y2="423.1"/>
			<line class="st6" x1="1068" y1="1086.2" x2="1423.3" y2="730.9"/>
			<line class="st6" x1="1068" y1="1065.7" x2="1423.3" y2="710.4"/>
			<line class="st6" x1="1068" y1="1045.2" x2="1423.3" y2="689.9"/>
			<line class="st6" x1="1068" y1="1024.7" x2="1423.3" y2="669.3"/>
			<line class="st6" x1="1068" y1="1004.2" x2="1423.3" y2="648.8"/>
			<line class="st6" x1="1068" y1="983.6" x2="1423.3" y2="628.3"/>
			<line class="st6" x1="1068" y1="963.1" x2="1423.3" y2="607.8"/>
			<line class="st6" x1="1068" y1="942.6" x2="1423.3" y2="587.3"/>
			<line class="st6" x1="1068" y1="1250.4" x2="1423.3" y2="895.1"/>
			<line class="st6" x1="1068" y1="1229.9" x2="1423.3" y2="874.5"/>
			<line class="st6" x1="1068" y1="1209.4" x2="1423.3" y2="854"/>
			<line class="st6" x1="1068" y1="1188.9" x2="1423.3" y2="833.5"/>
			<line class="st6" x1="1068" y1="1168.3" x2="1423.3" y2="813"/>
			<line class="st6" x1="1068" y1="1147.8" x2="1423.3" y2="792.5"/>
			<line class="st6" x1="1068" y1="1127.3" x2="1423.3" y2="771.9"/>
			<line class="st6" x1="1068" y1="1106.8" x2="1423.3" y2="751.4"/>
		</g>
	</g>
</g>
</svg>
