<?xml version="1.0" encoding="utf-8"?>
<!-- Generator: Adobe Illustrator 21.1.0, SVG Export Plug-In . SVG Version: 6.00 Build 0)  -->
<svg version="1.1" id="Layer_1" xmlns="http://www.w3.org/2000/svg" xmlns:xlink="http://www.w3.org/1999/xlink" x="0px" y="0px"
	 viewBox="0 0 432 432" style="enable-background:new 0 0 432 432;" xml:space="preserve">
<style type="text/css">
	g{stroke:#1A1A1A;fill: #1A1A1A;}
	.st0{fill:none;stroke:#1A1A1A;stroke-width:11.5405;stroke-miterlimit:10;}
	.st1{clip-path:url(#SVGID_2_);}
	.st2{clip-path:url(#SVGID_4_);}
	.st3{clip-path:url(#SVGID_6_);}
	.st4{clip-path:url(#SVGID_8_);}
	.st5{clip-path:url(#SVGID_10_);}
	.st6{clip-path:url(#SVGID_12_);}
	.st7{fill:none;stroke:#1A1A1A;stroke-width:5.7805;stroke-miterlimit:10;}
	.st8{clip-path:url(#SVGID_14_);}
	.st9{clip-path:url(#SVGID_16_);}
	.st10{clip-path:url(#SVGID_18_);}
</style>
<g>
	<g>
		<g>
			<path d="M-384.9,409.2l-141.6-0.1V282.2c0-19.2,7.5-37.2,21-50.7c13.3-13.3,31-20.6,49.7-20.6c0.1,0,0.1,0,0.2,0
				c38.9,0.1,70.6,31.8,70.6,70.7L-384.9,409.2z M-515,397.6l118.6,0.1l-0.1-116c0-32.6-26.5-59.1-59.1-59.2l0,0c0,0-0.1,0-0.1,0
				c-15.6,0-30.4,6.1-41.6,17.3c-11.4,11.3-17.6,26.5-17.6,42.5V397.6z"/>
		</g>
	</g>
	<g>
		<g>
			<path d="M-331.4,390.3h-59.1v-11.5h47.5l-0.1-94c0-26.1-21.2-47.4-47.4-47.5c0,0-0.1,0-0.1,0c-6,0-11.9,1.1-17.5,3.4l-4.3-10.7
				c6.9-2.8,14.3-4.2,21.8-4.2c0,0,0.1,0,0.1,0c32.5,0.1,58.9,26.5,58.9,59L-331.4,390.3z"/>
		</g>
	</g>
	<g>
		<g>
			<path d="M-455.6,193.3c-25.7,0-46.5-20.9-46.5-46.5c0-25.7,20.9-46.5,46.5-46.5c25.7,0,46.5,20.9,46.5,46.5
				C-409,172.4-429.9,193.3-455.6,193.3z M-455.6,111.8c-19.3,0-35,15.7-35,35s15.7,35,35,35s35-15.7,35-35
				S-436.3,111.8-455.6,111.8z"/>
		</g>
	</g>
	<g>
		<g>
			<path d="M-389.3,207.1c-21.6,0-39.2-17.6-39.2-39.2h11.5c0,15.2,12.4,27.6,27.6,27.6s27.6-12.4,27.6-27.6s-12.4-27.6-27.6-27.6
				c-8.2,0-16,3.6-21.3,10l-8.9-7.4c7.5-9,18.5-14.2,30.1-14.2c21.6,0,39.2,17.6,39.2,39.2S-367.7,207.1-389.3,207.1z"/>
		</g>
	</g>
	<g>
		<g>
			<path d="M-520.6,389.6h-60.6l0.1-105.5c0-32.5,26.4-58.9,58.9-59c0,0,0.1,0,0.1,0c8.1,0,16,1.6,23.3,4.9l-4.6,10.6
				c-5.9-2.6-12.2-3.9-18.7-3.9c0,0-0.1,0-0.1,0c-26.1,0.1-47.4,21.3-47.4,47.5l-0.1,94h49V389.6z"/>
		</g>
	</g>
	<g>
		<g>
			<path d="M-523.3,206.4c-21.6,0-39.2-17.6-39.2-39.2s17.6-39.2,39.2-39.2c12.3,0,23.7,5.6,31.2,15.5l-9.2,7
				c-5.3-6.9-13.3-10.9-22-10.9c-15.2,0-27.6,12.4-27.6,27.6s12.4,27.6,27.6,27.6s27.6-12.4,27.6-27.6h11.5
				C-484.2,188.8-501.7,206.4-523.3,206.4z"/>
		</g>
	</g>
	<g>
		<g>
			<path class="st0" d="M-378.8,280.4"/>
		</g>
	</g>
	<g>
		<g>
			<path class="st0" d="M-425.3,252.7"/>
		</g>
	</g>
	<g>
		<g>
			<path class="st0" d="M-414,215.8"/>
		</g>
	</g>
	<g>
		<defs>
			<circle id="SVGID_1_" cx="-389.2" cy="167.9" r="33.5"/>
		</defs>
		<clipPath id="SVGID_2_">
			<use xlink:href="#SVGID_1_"  style="overflow:visible;"/>
		</clipPath>
		<g class="st1">
			<g>
				<g>
					<rect x="-607" y="72" transform="matrix(0.7071 -0.7071 0.7071 0.7071 -157.1327 -229.6215)" width="502.5" height="5.8"/>
				</g>
			</g>
			<g>
				<g>
					<rect x="-607" y="51.5" transform="matrix(0.7071 -0.7071 0.7071 0.7071 -142.6218 -235.6321)" width="502.5" height="5.8"/>
				</g>
			</g>
			<g>
				<g>
					<rect x="-607" y="30.9" transform="matrix(0.7071 -0.7071 0.7071 0.7071 -128.1113 -241.6425)" width="502.5" height="5.8"/>
				</g>
			</g>
			<g>
				<g>
					<rect x="-607" y="10.4" transform="matrix(0.7071 -0.7071 0.7071 0.7071 -113.6008 -247.653)" width="502.5" height="5.8"/>
				</g>
			</g>
			<g>
				<g>
					<rect x="-607" y="-10.1" transform="matrix(0.7071 -0.7071 0.7071 0.7071 -99.0902 -253.6635)" width="502.5" height="5.8"/>
				</g>
			</g>
			<g>
				<g>
					<rect x="-607" y="-30.6" transform="matrix(0.7071 -0.7071 0.7071 0.7071 -84.5797 -259.6739)" width="502.5" height="5.8"/>
				</g>
			</g>
			<g>
				<g>
					<rect x="-607" y="-51.2" transform="matrix(0.7071 -0.7071 0.7071 0.7071 -70.0688 -265.6845)" width="502.5" height="5.8"/>
				</g>
			</g>
			<g>
				<g>
					<rect x="-607" y="-71.7" transform="matrix(0.7071 -0.7071 0.7071 0.7071 -55.5583 -271.695)" width="502.5" height="5.8"/>
				</g>
			</g>
			<g>
				<g>
					<rect x="-607" y="236.1" transform="matrix(0.7071 -0.7071 0.7071 0.7071 -273.1923 -181.5327)" width="502.5" height="5.8"/>
				</g>
			</g>
			<g>
				<g>
					<rect x="-607" y="215.6" transform="matrix(0.7071 -0.7071 0.7071 0.7071 -258.6826 -187.5423)" width="502.5" height="5.8"/>
				</g>
			</g>
			<g>
				<g>
					<rect x="-607" y="195.1" transform="matrix(0.7071 -0.7071 0.7071 0.7071 -244.1728 -193.552)" width="502.5" height="5.8"/>
				</g>
			</g>
			<g>
				<g>
					<rect x="-607" y="174.6" transform="matrix(0.7071 -0.7071 0.7071 0.7071 -229.6633 -199.5615)" width="502.5" height="5.8"/>
				</g>
			</g>
			<g>
				<g>
					<rect x="-607" y="154.1" transform="matrix(0.7071 -0.7071 0.7071 0.7071 -215.1533 -205.5712)" width="502.5" height="5.8"/>
				</g>
			</g>
			<g>
				<g>
					<rect x="-607" y="133.5" transform="matrix(0.7071 -0.7071 0.7071 0.7071 -200.6436 -211.5808)" width="502.5" height="5.8"/>
				</g>
			</g>
			<g>
				<g>
					<rect x="-607" y="113" transform="matrix(0.7071 -0.7071 0.7071 0.7071 -186.134 -217.5904)" width="502.5" height="5.8"/>
				</g>
			</g>
			<g>
				<g>
					<rect x="-607" y="92.5" transform="matrix(0.7071 -0.7071 0.7071 0.7071 -171.6241 -223.6001)" width="502.5" height="5.8"/>
				</g>
			</g>
			<g>
				<g>
					<rect x="-607" y="400.3" transform="matrix(0.7071 -0.7071 0.7071 0.7071 -389.2702 -133.4557)" width="502.5" height="5.8"/>
				</g>
			</g>
			<g>
				<g>
					<rect x="-607" y="379.8" transform="matrix(0.7071 -0.7071 0.7071 0.7071 -374.7607 -139.4653)" width="502.5" height="5.8"/>
				</g>
			</g>
			<g>
				<g>
					<rect x="-607" y="359.3" transform="matrix(0.7071 -0.7071 0.7071 0.7071 -360.2509 -145.4749)" width="502.5" height="5.8"/>
				</g>
			</g>
			<g>
				<g>
					<rect x="-607" y="338.7" transform="matrix(0.7071 -0.7071 0.7071 0.7071 -345.741 -151.4846)" width="502.5" height="5.8"/>
				</g>
			</g>
			<g>
				<g>
					<rect x="-607" y="318.2" transform="matrix(0.7071 -0.7071 0.7071 0.7071 -331.2314 -157.4942)" width="502.5" height="5.8"/>
				</g>
			</g>
			<g>
				<g>
					<rect x="-607" y="297.7" transform="matrix(0.7071 -0.7071 0.7071 0.7071 -316.7215 -163.5038)" width="502.5" height="5.8"/>
				</g>
			</g>
			<g>
				<g>
					<rect x="-607" y="277.2" transform="matrix(0.7071 -0.7071 0.7071 0.7071 -302.212 -169.5134)" width="502.5" height="5.8"/>
				</g>
			</g>
			<g>
				<g>
					<rect x="-607" y="256.7" transform="matrix(0.7071 -0.7071 0.7071 0.7071 -287.702 -175.5231)" width="502.5" height="5.8"/>
				</g>
			</g>
			<g>
				<g>
					<rect x="-607" y="564.5" transform="matrix(0.7071 -0.7071 0.7071 0.7071 -505.348 -85.3788)" width="502.5" height="5.8"/>
				</g>
			</g>
			<g>
				<g>
					<rect x="-607" y="544" transform="matrix(0.7071 -0.7071 0.7071 0.7071 -490.8387 -91.3883)" width="502.5" height="5.8"/>
				</g>
			</g>
			<g>
				<g>
					<rect x="-607" y="523.4" transform="matrix(0.7071 -0.7071 0.7071 0.7071 -476.3286 -97.398)" width="502.5" height="5.8"/>
				</g>
			</g>
			<g>
				<g>
					<rect x="-607" y="502.9" transform="matrix(0.7071 -0.7071 0.7071 0.7071 -461.819 -103.4076)" width="502.5" height="5.8"/>
				</g>
			</g>
			<g>
				<g>
					<rect x="-607" y="482.4" transform="matrix(0.7071 -0.7071 0.7071 0.7071 -447.3093 -109.4172)" width="502.5" height="5.8"/>
				</g>
			</g>
			<g>
				<g>
					<rect x="-607" y="461.9" transform="matrix(0.7071 -0.7071 0.7071 0.7071 -432.7993 -115.4269)" width="502.5" height="5.8"/>
				</g>
			</g>
			<g>
				<g>
					<rect x="-607" y="441.4" transform="matrix(0.7071 -0.7071 0.7071 0.7071 -418.2899 -121.4364)" width="502.5" height="5.8"/>
				</g>
			</g>
			<g>
				<g>
					<rect x="-607" y="420.8" transform="matrix(0.7071 -0.7071 0.7071 0.7071 -403.78 -127.4461)" width="502.5" height="5.8"/>
				</g>
			</g>
		</g>
	</g>
	<g>
		<defs>
			<path id="SVGID_3_" d="M-390.5,386.7h53.3l-0.1-99.8c0-29.4-23.8-53.2-53.1-53.2c-7,0-13.7,1.3-19.8,3.8c0,0,19.5,22.1,19.5,47.3
				C-390.7,310-390.5,386.7-390.5,386.7z"/>
		</defs>
		<clipPath id="SVGID_4_">
			<use xlink:href="#SVGID_3_"  style="overflow:visible;"/>
		</clipPath>
		<g class="st2">
			<g>
				<g>
					<rect x="-615.5" y="135.6" transform="matrix(0.7071 -0.7071 0.7071 0.7071 -204.568 -217.0118)" width="502.5" height="5.8"/>
				</g>
			</g>
			<g>
				<g>
					<rect x="-615.5" y="115" transform="matrix(0.7071 -0.7071 0.7071 0.7071 -190.058 -223.0216)" width="502.5" height="5.8"/>
				</g>
			</g>
			<g>
				<g>
					<rect x="-615.5" y="94.5" transform="matrix(0.7071 -0.7071 0.7071 0.7071 -175.5483 -229.0312)" width="502.5" height="5.8"/>
				</g>
			</g>
			<g>
				<g>
					<rect x="-615.5" y="74" transform="matrix(0.7071 -0.7071 0.7071 0.7071 -161.0386 -235.0408)" width="502.5" height="5.8"/>
				</g>
			</g>
			<g>
				<g>
					<rect x="-615.5" y="53.5" transform="matrix(0.7071 -0.7071 0.7071 0.7071 -146.5466 -241.0634)" width="502.5" height="5.8"/>
				</g>
			</g>
			<g>
				<g>
					<rect x="-615.5" y="33" transform="matrix(0.7071 -0.7071 0.7071 0.7071 -132.0361 -247.0739)" width="502.5" height="5.8"/>
				</g>
			</g>
			<g>
				<g>
					<rect x="-615.5" y="12.4" transform="matrix(0.7071 -0.7071 0.7071 0.7071 -117.5252 -253.0845)" width="502.5" height="5.8"/>
				</g>
			</g>
			<g>
				<g>
					<rect x="-615.5" y="-8.1" transform="matrix(0.7071 -0.7071 0.7071 0.7071 -103.0147 -259.0949)" width="502.5" height="5.8"/>
				</g>
			</g>
			<g>
				<g>
					<rect x="-615.5" y="299.7" transform="matrix(0.7071 -0.7071 0.7071 0.7071 -320.6457 -168.935)" width="502.5" height="5.8"/>
				</g>
			</g>
			<g>
				<g>
					<rect x="-615.5" y="279.2" transform="matrix(0.7071 -0.7071 0.7071 0.7071 -306.136 -174.9445)" width="502.5" height="5.8"/>
				</g>
			</g>
			<g>
				<g>

						<rect x="-615.5" y="258.7" transform="matrix(0.7071 -0.7071 0.7071 0.7071 -291.6262 -180.9542)" width="502.5" height="5.8"/>
				</g>
			</g>
			<g>
				<g>

						<rect x="-615.5" y="238.2" transform="matrix(0.7071 -0.7071 0.7071 0.7071 -277.1167 -186.9637)" width="502.5" height="5.8"/>
				</g>
			</g>
			<g>
				<g>

						<rect x="-615.5" y="217.6" transform="matrix(0.7071 -0.7071 0.7071 0.7071 -262.6066 -192.9735)" width="502.5" height="5.8"/>
				</g>
			</g>
			<g>
				<g>
					<rect x="-615.5" y="197.1" transform="matrix(0.7071 -0.7071 0.7071 0.7071 -248.097 -198.9831)" width="502.5" height="5.8"/>
				</g>
			</g>
			<g>
				<g>

						<rect x="-615.5" y="176.6" transform="matrix(0.7071 -0.7071 0.7071 0.7071 -233.5873 -204.9926)" width="502.5" height="5.8"/>
				</g>
			</g>
			<g>
				<g>

						<rect x="-615.5" y="156.1" transform="matrix(0.7071 -0.7071 0.7071 0.7071 -219.0775 -211.0023)" width="502.5" height="5.8"/>
				</g>
			</g>
			<g>
				<g>

						<rect x="-615.5" y="463.9" transform="matrix(0.7071 -0.7071 0.7071 0.7071 -436.7236 -120.8579)" width="502.5" height="5.8"/>
				</g>
			</g>
			<g>
				<g>
					<rect x="-615.5" y="443.4" transform="matrix(0.7071 -0.7071 0.7071 0.7071 -422.214 -126.8675)" width="502.5" height="5.8"/>
				</g>
			</g>
			<g>
				<g>

						<rect x="-615.5" y="422.9" transform="matrix(0.7071 -0.7071 0.7071 0.7071 -407.7042 -132.8772)" width="502.5" height="5.8"/>
				</g>
			</g>
			<g>
				<g>

						<rect x="-615.5" y="402.3" transform="matrix(0.7071 -0.7071 0.7071 0.7071 -393.1943 -138.8868)" width="502.5" height="5.8"/>
				</g>
			</g>
			<g>
				<g>

						<rect x="-615.5" y="381.8" transform="matrix(0.7071 -0.7071 0.7071 0.7071 -378.6847 -144.8964)" width="502.5" height="5.8"/>
				</g>
			</g>
			<g>
				<g>

						<rect x="-615.5" y="361.3" transform="matrix(0.7071 -0.7071 0.7071 0.7071 -364.1748 -150.9061)" width="502.5" height="5.8"/>
				</g>
			</g>
			<g>
				<g>

						<rect x="-615.5" y="340.8" transform="matrix(0.7071 -0.7071 0.7071 0.7071 -349.6653 -156.9156)" width="502.5" height="5.8"/>
				</g>
			</g>
			<g>
				<g>

						<rect x="-615.5" y="320.2" transform="matrix(0.7071 -0.7071 0.7071 0.7071 -335.1555 -162.9253)" width="502.5" height="5.8"/>
				</g>
			</g>
			<g>
				<g>
					<rect x="-615.5" y="628.1" transform="matrix(0.7071 -0.7071 0.7071 0.7071 -552.8013 -72.7811)" width="502.5" height="5.8"/>
				</g>
			</g>
			<g>
				<g>
					<rect x="-615.5" y="607.5" transform="matrix(0.7071 -0.7071 0.7071 0.7071 -538.292 -78.7905)" width="502.5" height="5.8"/>
				</g>
			</g>
			<g>
				<g>
					<rect x="-615.5" y="587" transform="matrix(0.7071 -0.7071 0.7071 0.7071 -523.782 -84.8002)" width="502.5" height="5.8"/>
				</g>
			</g>
			<g>
				<g>
					<rect x="-615.5" y="566.5" transform="matrix(0.7071 -0.7071 0.7071 0.7071 -509.2726 -90.8097)" width="502.5" height="5.8"/>
				</g>
			</g>
			<g>
				<g>
					<rect x="-615.5" y="546" transform="matrix(0.7071 -0.7071 0.7071 0.7071 -494.7626 -96.8194)" width="502.5" height="5.8"/>
				</g>
			</g>
			<g>
				<g>

						<rect x="-615.5" y="525.5" transform="matrix(0.7071 -0.7071 0.7071 0.7071 -480.2526 -102.8292)" width="502.5" height="5.8"/>
				</g>
			</g>
			<g>
				<g>

						<rect x="-615.5" y="504.9" transform="matrix(0.7071 -0.7071 0.7071 0.7071 -465.7433 -108.8386)" width="502.5" height="5.8"/>
				</g>
			</g>
			<g>
				<g>

						<rect x="-615.5" y="484.4" transform="matrix(0.7071 -0.7071 0.7071 0.7071 -451.2333 -114.8484)" width="502.5" height="5.8"/>
				</g>
			</g>
		</g>
	</g>
	<g>
		<defs>
			<circle id="SVGID_5_" cx="-523.7" cy="167.6" r="33.5"/>
		</defs>
		<clipPath id="SVGID_6_">
			<use xlink:href="#SVGID_5_"  style="overflow:visible;"/>
		</clipPath>
		<g class="st3">
			<g>
				<g>
					<rect x="-560" y="-176.7" transform="matrix(0.7071 -0.7071 0.7071 0.7071 -215.9069 -372.1238)" width="5.8" height="502.5"/>
				</g>
			</g>
			<g>
				<g>
					<rect x="-560" y="-197.2" transform="matrix(0.7071 -0.7071 0.7071 0.7071 -201.396 -378.1344)" width="5.8" height="502.5"/>
				</g>
			</g>
			<g>
				<g>
					<rect x="-560" y="-217.7" transform="matrix(0.7071 -0.7071 0.7071 0.7071 -186.8855 -384.1449)" width="5.8" height="502.5"/>
				</g>
			</g>
			<g>
				<g>
					<rect x="-560" y="-238.3" transform="matrix(0.7071 -0.7071 0.7071 0.7071 -172.375 -390.1553)" width="5.8" height="502.5"/>
				</g>
			</g>
			<g>
				<g>
					<rect x="-560" y="-258.8" transform="matrix(0.7071 -0.7071 0.7071 0.7071 -157.8645 -396.1658)" width="5.8" height="502.5"/>
				</g>
			</g>
			<g>
				<g>
					<rect x="-560" y="-279.3" transform="matrix(0.7071 -0.7071 0.7071 0.7071 -143.3534 -402.1757)" width="5.8" height="502.5"/>
				</g>
			</g>
			<g>
				<g>
					<rect x="-560" y="-299.8" transform="matrix(0.7071 -0.7071 0.7071 0.7071 -128.8431 -408.1868)" width="5.8" height="502.5"/>
				</g>
			</g>
			<g>
				<g>
					<rect x="-560" y="-320.4" transform="matrix(0.7071 -0.7071 0.7071 0.7071 -114.3325 -414.1973)" width="5.8" height="502.5"/>
				</g>
			</g>
			<g>
				<g>
					<rect x="-560" y="-12.5" transform="matrix(0.7071 -0.7071 0.7071 0.7071 -331.9911 -324.0399)" width="5.8" height="502.5"/>
				</g>
			</g>
			<g>
				<g>
					<rect x="-560" y="-33.1" transform="matrix(0.7071 -0.7071 0.7071 0.7071 -317.4799 -330.05)" width="5.8" height="502.5"/>
				</g>
			</g>
			<g>
				<g>
					<rect x="-560" y="-53.6" transform="matrix(0.7071 -0.7071 0.7071 0.7071 -302.9701 -336.0608)" width="5.8" height="502.5"/>
				</g>
			</g>
			<g>
				<g>
					<rect x="-560" y="-74.1" transform="matrix(0.7071 -0.7071 0.7071 0.7071 -288.4598 -342.0715)" width="5.8" height="502.5"/>
				</g>
			</g>
			<g>
				<g>
					<rect x="-560" y="-94.6" transform="matrix(0.7071 -0.7071 0.7071 0.7071 -273.9481 -348.0814)" width="5.8" height="502.5"/>
				</g>
			</g>
			<g>
				<g>
					<rect x="-560" y="-115.1" transform="matrix(0.7071 -0.7071 0.7071 0.7071 -259.4382 -354.0923)" width="5.8" height="502.5"/>
				</g>
			</g>
			<g>
				<g>
					<rect x="-560" y="-135.7" transform="matrix(0.7071 -0.7071 0.7071 0.7071 -244.9279 -360.103)" width="5.8" height="502.5"/>
				</g>
			</g>
			<g>
				<g>
					<rect x="-560" y="-156.2" transform="matrix(0.7071 -0.7071 0.7071 0.7071 -230.4172 -366.1131)" width="5.8" height="502.5"/>
				</g>
			</g>
			<g>
				<g>
					<rect x="-560" y="151.6" transform="matrix(0.7071 -0.7071 0.7071 0.7071 -448.076 -275.9561)" width="5.8" height="502.5"/>
				</g>
			</g>
			<g>
				<g>
					<rect x="-560" y="131.1" transform="matrix(0.7071 -0.7071 0.7071 0.7071 -433.5657 -281.9667)" width="5.8" height="502.5"/>
				</g>
			</g>
			<g>
				<g>
					<rect x="-560" y="110.6" transform="matrix(0.7071 -0.7071 0.7071 0.7071 -419.0537 -287.9769)" width="5.8" height="502.5"/>
				</g>
			</g>
			<g>
				<g>
					<rect x="-560" y="90.1" transform="matrix(0.7071 -0.7071 0.7071 0.7071 -404.5441 -293.9875)" width="5.8" height="502.5"/>
				</g>
			</g>
			<g>
				<g>
					<rect x="-560" y="69.5" transform="matrix(0.7071 -0.7071 0.7071 0.7071 -390.0327 -299.9978)" width="5.8" height="502.5"/>
				</g>
			</g>
			<g>
				<g>
					<rect x="-560" y="49" transform="matrix(0.7071 -0.7071 0.7071 0.7071 -375.523 -306.0084)" width="5.8" height="502.5"/>
				</g>
			</g>
			<g>
				<g>
					<rect x="-560" y="28.5" transform="matrix(0.7071 -0.7071 0.7071 0.7071 -361.0128 -312.0191)" width="5.8" height="502.5"/>
				</g>
			</g>
			<g>
				<g>
					<rect x="-560" y="8" transform="matrix(0.7071 -0.7071 0.7071 0.7071 -346.5009 -318.0292)" width="5.8" height="502.5"/>
				</g>
			</g>
			<g>
				<g>
					<rect x="-560" y="315.8" transform="matrix(0.7071 -0.7071 0.7071 0.7071 -564.1607 -227.8723)" width="5.8" height="502.5"/>
				</g>
			</g>
			<g>
				<g>
					<rect x="-560" y="295.3" transform="matrix(0.7071 -0.7071 0.7071 0.7071 -549.6498 -233.8829)" width="5.8" height="502.5"/>
				</g>
			</g>
			<g>
				<g>
					<rect x="-560" y="274.8" transform="matrix(0.7071 -0.7071 0.7071 0.7071 -535.1396 -239.8932)" width="5.8" height="502.5"/>
				</g>
			</g>
			<g>
				<g>
					<rect x="-560" y="254.2" transform="matrix(0.7071 -0.7071 0.7071 0.7071 -520.6288 -245.9038)" width="5.8" height="502.5"/>
				</g>
			</g>
			<g>
				<g>
					<rect x="-560" y="233.7" transform="matrix(0.7071 -0.7071 0.7071 0.7071 -506.118 -251.9144)" width="5.8" height="502.5"/>
				</g>
			</g>
			<g>
				<g>
					<rect x="-560" y="213.2" transform="matrix(0.7071 -0.7071 0.7071 0.7071 -491.6078 -257.9247)" width="5.8" height="502.5"/>
				</g>
			</g>
			<g>
				<g>
					<rect x="-560" y="192.7" transform="matrix(0.7071 -0.7071 0.7071 0.7071 -477.0969 -263.9352)" width="5.8" height="502.5"/>
				</g>
			</g>
			<g>
				<g>
					<rect x="-560" y="172.2" transform="matrix(0.7071 -0.7071 0.7071 0.7071 -462.5855 -269.9455)" width="5.8" height="502.5"/>
				</g>
			</g>
		</g>
	</g>
	<g>
		<defs>
			<path id="SVGID_7_" d="M-522.4,386.4h-53.3l0.1-99.8c0-29.4,23.8-53.2,53.1-53.2c7,0,13.7,1.3,19.8,3.8c0,0-19.5,22.1-19.5,47.3
				C-522.2,309.7-522.4,386.4-522.4,386.4z"/>
		</defs>
		<clipPath id="SVGID_8_">
			<use xlink:href="#SVGID_7_"  style="overflow:visible;"/>
		</clipPath>
		<g class="st4">
			<g>
				<g>

						<rect x="-551.5" y="-113.1" transform="matrix(0.7071 -0.7071 0.7071 0.7071 -258.3731 -347.4768)" width="5.8" height="502.5"/>
				</g>
			</g>
			<g>
				<g>

						<rect x="-551.5" y="-133.6" transform="matrix(0.7071 -0.7071 0.7071 0.7071 -243.8615 -353.4867)" width="5.8" height="502.5"/>
				</g>
			</g>
			<g>
				<g>

						<rect x="-551.5" y="-154.2" transform="matrix(0.7071 -0.7071 0.7071 0.7071 -229.3516 -359.4975)" width="5.8" height="502.5"/>
				</g>
			</g>
			<g>
				<g>

						<rect x="-551.5" y="-174.7" transform="matrix(0.7071 -0.7071 0.7071 0.7071 -214.8413 -365.5082)" width="5.8" height="502.5"/>
				</g>
			</g>
			<g>
				<g>

						<rect x="-551.5" y="-195.2" transform="matrix(0.7071 -0.7071 0.7071 0.7071 -200.3308 -371.5187)" width="5.8" height="502.5"/>
				</g>
			</g>
			<g>
				<g>

						<rect x="-551.5" y="-215.7" transform="matrix(0.7071 -0.7071 0.7071 0.7071 -185.8202 -377.5291)" width="5.8" height="502.5"/>
				</g>
			</g>
			<g>
				<g>

						<rect x="-551.5" y="-236.2" transform="matrix(0.7071 -0.7071 0.7071 0.7071 -171.3094 -383.5397)" width="5.8" height="502.5"/>
				</g>
			</g>
			<g>
				<g>

						<rect x="-551.5" y="-256.8" transform="matrix(0.7071 -0.7071 0.7071 0.7071 -156.7988 -389.5502)" width="5.8" height="502.5"/>
				</g>
			</g>
			<g>
				<g>
					<rect x="-551.5" y="51" transform="matrix(0.7071 -0.7071 0.7071 0.7071 -374.4574 -299.3928)" width="5.8" height="502.5"/>
				</g>
			</g>
			<g>
				<g>
					<rect x="-551.5" y="30.5" transform="matrix(0.7071 -0.7071 0.7071 0.7071 -359.9461 -305.403)" width="5.8" height="502.5"/>
				</g>
			</g>
			<g>
				<g>
					<rect x="-551.5" y="10" transform="matrix(0.7071 -0.7071 0.7071 0.7071 -345.4364 -311.4137)" width="5.8" height="502.5"/>
				</g>
			</g>
			<g>
				<g>

						<rect x="-551.5" y="-10.5" transform="matrix(0.7071 -0.7071 0.7071 0.7071 -330.9261 -317.4244)" width="5.8" height="502.5"/>
				</g>
			</g>
			<g>
				<g>
					<rect x="-551.5" y="-31" transform="matrix(0.7071 -0.7071 0.7071 0.7071 -316.4143 -323.4344)" width="5.8" height="502.5"/>
				</g>
			</g>
			<g>
				<g>

						<rect x="-551.5" y="-51.6" transform="matrix(0.7071 -0.7071 0.7071 0.7071 -301.9045 -329.4452)" width="5.8" height="502.5"/>
				</g>
			</g>
			<g>
				<g>

						<rect x="-551.5" y="-72.1" transform="matrix(0.7071 -0.7071 0.7071 0.7071 -287.3933 -335.4553)" width="5.8" height="502.5"/>
				</g>
			</g>
			<g>
				<g>

						<rect x="-551.5" y="-92.6" transform="matrix(0.7071 -0.7071 0.7071 0.7071 -272.8835 -341.4661)" width="5.8" height="502.5"/>
				</g>
			</g>
			<g>
				<g>

						<rect x="-551.5" y="215.2" transform="matrix(0.7071 -0.7071 0.7071 0.7071 -490.5422 -251.3091)" width="5.8" height="502.5"/>
				</g>
			</g>
			<g>
				<g>

						<rect x="-551.5" y="194.7" transform="matrix(0.7071 -0.7071 0.7071 0.7071 -476.0313 -257.3196)" width="5.8" height="502.5"/>
				</g>
			</g>
			<g>
				<g>

						<rect x="-551.5" y="174.2" transform="matrix(0.7071 -0.7071 0.7071 0.7071 -461.5199 -263.3299)" width="5.8" height="502.5"/>
				</g>
			</g>
			<g>
				<g>

						<rect x="-551.5" y="153.7" transform="matrix(0.7071 -0.7071 0.7071 0.7071 -447.0104 -269.3405)" width="5.8" height="502.5"/>
				</g>
			</g>
			<g>
				<g>

						<rect x="-551.5" y="133.1" transform="matrix(0.7071 -0.7071 0.7071 0.7071 -432.4989 -275.3508)" width="5.8" height="502.5"/>
				</g>
			</g>
			<g>
				<g>

						<rect x="-551.5" y="112.6" transform="matrix(0.7071 -0.7071 0.7071 0.7071 -417.9893 -281.3614)" width="5.8" height="502.5"/>
				</g>
			</g>
			<g>
				<g>
					<rect x="-551.5" y="92.1" transform="matrix(0.7071 -0.7071 0.7071 0.7071 -403.4791 -287.372)" width="5.8" height="502.5"/>
				</g>
			</g>
			<g>
				<g>
					<rect x="-551.5" y="71.6" transform="matrix(0.7071 -0.7071 0.7071 0.7071 -388.9671 -293.3822)" width="5.8" height="502.5"/>
				</g>
			</g>
			<g>
				<g>
					<rect x="-551.5" y="379.4" transform="matrix(0.7071 -0.7071 0.7071 0.7071 -606.627 -203.2253)" width="5.8" height="502.5"/>
				</g>
			</g>
			<g>
				<g>

						<rect x="-551.5" y="358.9" transform="matrix(0.7071 -0.7071 0.7071 0.7071 -592.1161 -209.2358)" width="5.8" height="502.5"/>
				</g>
			</g>
			<g>
				<g>
					<rect x="-551.5" y="338.3" transform="matrix(0.7071 -0.7071 0.7071 0.7071 -577.606 -215.2461)" width="5.8" height="502.5"/>
				</g>
			</g>
			<g>
				<g>

						<rect x="-551.5" y="317.8" transform="matrix(0.7071 -0.7071 0.7071 0.7071 -563.0951 -221.2567)" width="5.8" height="502.5"/>
				</g>
			</g>
			<g>
				<g>

						<rect x="-551.5" y="297.3" transform="matrix(0.7071 -0.7071 0.7071 0.7071 -548.5842 -227.2673)" width="5.8" height="502.5"/>
				</g>
			</g>
			<g>
				<g>
					<rect x="-551.5" y="276.8" transform="matrix(0.7071 -0.7071 0.7071 0.7071 -534.074 -233.2776)" width="5.8" height="502.5"/>
				</g>
			</g>
			<g>
				<g>

						<rect x="-551.5" y="256.3" transform="matrix(0.7071 -0.7071 0.7071 0.7071 -519.5632 -239.2882)" width="5.8" height="502.5"/>
				</g>
			</g>
			<g>
				<g>
					<rect x="-551.5" y="235.7" transform="matrix(0.7071 -0.7071 0.7071 0.7071 -505.053 -245.2985)" width="5.8" height="502.5"/>
				</g>
			</g>
		</g>
	</g>
</g>
<g>
	<g>
		<path d="M-536.8,810.8l53-133l-36.5-0.4l170.7-174.8L-405,638l38.9-0.1L-536.8,810.8z M-493.2,666.2l26.4,0.3l-38.1,95.7
			l111.1-112.6l-28.4,0.1l39.5-96.5L-493.2,666.2z"/>
	</g>
	<g>
		<path d="M-528.7,733.3l8.3-105.3l-25.8,7.7l83.5-162.9l-9.6,107.7l27.3-8.5L-528.7,733.3z M-507.5,612.2l-5.2,65.3l44.7-86.2
			l-17.3,5.4l5.9-65.9l-44.2,86.2L-507.5,612.2z"/>
	</g>
	<g>
		<defs>
			<polygon id="SVGID_9_" points="-471,500.3 -482.9,523.5 -529.4,614.2 -534.9,624.8 -523.5,621.4 -513.9,618.6 -518.7,678.9
				-520.7,703.9 -509.1,681.6 -462,591 -456.4,580.1 -468,583.8 -478.7,587.1 -473.3,526.3 			"/>
		</defs>
		<clipPath id="SVGID_10_">
			<use xlink:href="#SVGID_9_"  style="overflow:visible;"/>
		</clipPath>
		<g class="st5">
			<g>
				<rect x="-737.4" y="413.9" transform="matrix(0.7071 -0.7071 0.7071 0.7071 -437.101 -221.7055)" width="502.5" height="5.8"/>
			</g>
			<g>
				<rect x="-737.4" y="393.4" transform="matrix(0.7071 -0.7071 0.7071 0.7071 -422.5905 -227.716)" width="502.5" height="5.8"/>
			</g>
			<g>
				<rect x="-737.4" y="372.8" transform="matrix(0.7071 -0.7071 0.7071 0.7071 -408.08 -233.7264)" width="502.5" height="5.8"/>
			</g>
			<g>
				<rect x="-737.4" y="352.3" transform="matrix(0.7071 -0.7071 0.7071 0.7071 -393.5695 -239.7369)" width="502.5" height="5.8"/>
			</g>
			<g>
				<rect x="-737.4" y="331.8" transform="matrix(0.7071 -0.7071 0.7071 0.7071 -379.0589 -245.7473)" width="502.5" height="5.8"/>
			</g>
			<g>
				<rect x="-737.4" y="311.3" transform="matrix(0.7071 -0.7071 0.7071 0.7071 -364.548 -251.7579)" width="502.5" height="5.8"/>
			</g>
			<g>
				<rect x="-737.4" y="290.8" transform="matrix(0.7071 -0.7071 0.7071 0.7071 -350.0375 -257.7684)" width="502.5" height="5.8"/>
			</g>
			<g>
				<rect x="-737.4" y="270.2" transform="matrix(0.7071 -0.7071 0.7071 0.7071 -335.5269 -263.7789)" width="502.5" height="5.8"/>
			</g>
			<g>
				<rect x="-737.4" y="578.1" transform="matrix(0.7071 -0.7071 0.7071 0.7071 -553.1411 -173.6255)" width="502.5" height="5.8"/>
			</g>
			<g>
				<rect x="-737.4" y="557.5" transform="matrix(0.7071 -0.7071 0.7071 0.7071 -538.6314 -179.6351)" width="502.5" height="5.8"/>
			</g>
			<g>
				<rect x="-737.4" y="537" transform="matrix(0.7071 -0.7071 0.7071 0.7071 -524.1215 -185.6447)" width="502.5" height="5.8"/>
			</g>
			<g>
				<rect x="-737.4" y="516.5" transform="matrix(0.7071 -0.7071 0.7071 0.7071 -509.6117 -191.6544)" width="502.5" height="5.8"/>
			</g>
			<g>
				<rect x="-737.4" y="496" transform="matrix(0.7071 -0.7071 0.7071 0.7071 -495.102 -197.664)" width="502.5" height="5.8"/>
			</g>
			<g>
				<rect x="-737.4" y="475.4" transform="matrix(0.7071 -0.7071 0.7071 0.7071 -480.5923 -203.6736)" width="502.5" height="5.8"/>
			</g>
			<g>
				<rect x="-737.4" y="454.9" transform="matrix(0.7071 -0.7071 0.7071 0.7071 -466.1225 -209.6844)" width="502.5" height="5.8"/>
			</g>
			<g>
				<rect x="-737.4" y="434.4" transform="matrix(0.7071 -0.7071 0.7071 0.7071 -451.6119 -215.6949)" width="502.5" height="5.8"/>
			</g>
			<g>
				<rect x="-737.4" y="742.2" transform="matrix(0.7071 -0.7071 0.7071 0.7071 -669.2189 -125.5485)" width="502.5" height="5.8"/>
			</g>
			<g>
				<rect x="-737.4" y="721.7" transform="matrix(0.7071 -0.7071 0.7071 0.7071 -654.709 -131.5582)" width="502.5" height="5.8"/>
			</g>
			<g>
				<rect x="-737.4" y="701.2" transform="matrix(0.7071 -0.7071 0.7071 0.7071 -640.1994 -137.5678)" width="502.5" height="5.8"/>
			</g>
			<g>
				<rect x="-737.4" y="680.7" transform="matrix(0.7071 -0.7071 0.7071 0.7071 -625.6898 -143.5774)" width="502.5" height="5.8"/>
			</g>
			<g>
				<rect x="-737.4" y="660.1" transform="matrix(0.7071 -0.7071 0.7071 0.7071 -611.1801 -149.587)" width="502.5" height="5.8"/>
			</g>
			<g>
				<rect x="-737.4" y="639.6" transform="matrix(0.7071 -0.7071 0.7071 0.7071 -596.6702 -155.5966)" width="502.5" height="5.8"/>
			</g>
			<g>
				<rect x="-737.4" y="619.1" transform="matrix(0.7071 -0.7071 0.7071 0.7071 -582.1604 -161.6063)" width="502.5" height="5.8"/>
			</g>
			<g>
				<rect x="-737.4" y="598.6" transform="matrix(0.7071 -0.7071 0.7071 0.7071 -567.6507 -167.6159)" width="502.5" height="5.8"/>
			</g>
			<g>
				<rect x="-737.4" y="906.4" transform="matrix(0.7071 -0.7071 0.7071 0.7071 -785.2967 -77.4716)" width="502.5" height="5.8"/>
			</g>
			<g>
				<rect x="-737.4" y="885.9" transform="matrix(0.7071 -0.7071 0.7071 0.7071 -770.7874 -83.481)" width="502.5" height="5.8"/>
			</g>
			<g>
				<rect x="-737.4" y="865.3" transform="matrix(0.7071 -0.7071 0.7071 0.7071 -756.2773 -89.4908)" width="502.5" height="5.8"/>
			</g>
			<g>
				<rect x="-737.4" y="844.8" transform="matrix(0.7071 -0.7071 0.7071 0.7071 -741.7673 -95.5005)" width="502.5" height="5.8"/>
			</g>
			<g>
				<rect x="-737.4" y="824.3" transform="matrix(0.7071 -0.7071 0.7071 0.7071 -727.258 -101.51)" width="502.5" height="5.8"/>
			</g>
			<g>
				<rect x="-737.4" y="803.8" transform="matrix(0.7071 -0.7071 0.7071 0.7071 -712.7481 -107.5197)" width="502.5" height="5.8"/>
			</g>
			<g>
				<rect x="-737.4" y="783.3" transform="matrix(0.7071 -0.7071 0.7071 0.7071 -698.2384 -113.5293)" width="502.5" height="5.8"/>
			</g>
			<g>
				<rect x="-737.4" y="762.7" transform="matrix(0.7071 -0.7071 0.7071 0.7071 -683.7288 -119.5389)" width="502.5" height="5.8"/>
			</g>
		</g>
	</g>
</g>
<g>
	<path class="st0" d="M112.3,361.2L112.3,361.2c-2.1-2.1-3.3-4.9-3.3-7.9V67.2c0,0,171.3,0,204,0c3,0,5.8,1.2,7.9,3.3l0,0
		c2.1,2.1,3.3,4.9,3.3,7.9v286.1c0,0-171.3,0-204,0C117.2,364.4,114.4,363.2,112.3,361.2z"/>
	<circle class="st0" cx="216.6" cy="247.9" r="67.4"/>
	<circle cx="291.8" cy="97.1" r="7.6"/>
	<circle cx="253.9" cy="97.1" r="7.6"/>
	<circle cx="214.4" cy="97.1" r="7.6"/>
	<line class="st0" x1="109.7" y1="126.5" x2="324.5" y2="126.5"/>
	<line class="st0" x1="178.8" y1="127.1" x2="178.8" y2="67.2"/>
	<g>
		<defs>
			<rect id="SVGID_11_" x="107.6" y="67.2" width="69.7" height="59.6"/>
		</defs>
		<clipPath id="SVGID_12_">
			<use xlink:href="#SVGID_11_"  style="overflow:visible;"/>
		</clipPath>
		<g class="st6">
			<line class="st7" x1="-6.8" y1="154.9" x2="348.5" y2="-200.5"/>
			<line class="st7" x1="-6.8" y1="134.3" x2="348.5" y2="-221"/>
			<line class="st7" x1="-6.8" y1="113.8" x2="348.5" y2="-241.5"/>
			<line class="st7" x1="-6.8" y1="93.3" x2="348.5" y2="-262.1"/>
			<line class="st7" x1="-6.8" y1="72.8" x2="348.5" y2="-282.6"/>
			<line class="st7" x1="-6.8" y1="52.2" x2="348.5" y2="-303.1"/>
			<line class="st7" x1="-6.8" y1="31.7" x2="348.5" y2="-323.6"/>
			<line class="st7" x1="-6.8" y1="11.2" x2="348.5" y2="-344.1"/>
			<line class="st7" x1="-6.8" y1="319" x2="348.5" y2="-36.3"/>
			<line class="st7" x1="-6.8" y1="298.5" x2="348.5" y2="-56.8"/>
			<line class="st7" x1="-6.8" y1="278" x2="348.5" y2="-77.4"/>
			<line class="st7" x1="-6.8" y1="257.5" x2="348.5" y2="-97.9"/>
			<line class="st7" x1="-6.8" y1="236.9" x2="348.5" y2="-118.4"/>
			<line class="st7" x1="-6.8" y1="216.4" x2="348.5" y2="-138.9"/>
			<line class="st7" x1="-6.8" y1="195.9" x2="348.5" y2="-159.4"/>
			<line class="st7" x1="-6.8" y1="175.4" x2="348.5" y2="-180"/>
			<line class="st7" x1="-6.8" y1="483.2" x2="348.5" y2="127.8"/>
			<line class="st7" x1="-6.8" y1="462.7" x2="348.5" y2="107.3"/>
			<line class="st7" x1="-6.8" y1="442.2" x2="348.5" y2="86.8"/>
			<line class="st7" x1="-6.8" y1="421.6" x2="348.5" y2="66.3"/>
			<line class="st7" x1="-6.8" y1="401.1" x2="348.5" y2="45.8"/>
			<line class="st7" x1="-6.8" y1="380.6" x2="348.5" y2="25.2"/>
			<line class="st7" x1="-6.8" y1="360.1" x2="348.5" y2="4.7"/>
			<line class="st7" x1="-6.8" y1="339.5" x2="348.5" y2="-15.8"/>
			<line class="st7" x1="-6.8" y1="647.4" x2="348.5" y2="292"/>
			<line class="st7" x1="-6.8" y1="626.8" x2="348.5" y2="271.5"/>
			<line class="st7" x1="-6.8" y1="606.3" x2="348.5" y2="251"/>
			<line class="st7" x1="-6.8" y1="585.8" x2="348.5" y2="230.5"/>
			<line class="st7" x1="-6.8" y1="565.3" x2="348.5" y2="209.9"/>
			<line class="st7" x1="-6.8" y1="544.8" x2="348.5" y2="189.4"/>
			<line class="st7" x1="-6.8" y1="524.2" x2="348.5" y2="168.9"/>
			<line class="st7" x1="-6.8" y1="503.7" x2="348.5" y2="148.4"/>
		</g>
	</g>
	<g>
		<defs>
			<circle id="SVGID_13_" cx="215.8" cy="248.8" r="67.4"/>
		</defs>
		<clipPath id="SVGID_14_">
			<use xlink:href="#SVGID_13_"  style="overflow:visible;"/>
		</clipPath>
		<g class="st8">
			<line class="st7" x1="90.7" y1="179.2" x2="446" y2="-176.2"/>
			<line class="st7" x1="90.7" y1="158.6" x2="446" y2="-196.7"/>
			<line class="st7" x1="90.7" y1="138.1" x2="446" y2="-217.2"/>
			<line class="st7" x1="90.7" y1="117.6" x2="446" y2="-237.7"/>
			<line class="st7" x1="90.7" y1="97.1" x2="446" y2="-258.3"/>
			<line class="st7" x1="90.7" y1="76.6" x2="446" y2="-278.8"/>
			<line class="st7" x1="90.7" y1="56" x2="446" y2="-299.3"/>
			<line class="st7" x1="90.7" y1="35.5" x2="446" y2="-319.8"/>
			<line class="st7" x1="90.7" y1="343.3" x2="446" y2="-12"/>
			<line class="st7" x1="90.7" y1="322.8" x2="446" y2="-32.5"/>
			<line class="st7" x1="90.7" y1="302.3" x2="446" y2="-53.1"/>
			<line class="st7" x1="90.7" y1="281.8" x2="446" y2="-73.6"/>
			<line class="st7" x1="90.7" y1="261.2" x2="446" y2="-94.1"/>
			<line class="st7" x1="90.7" y1="240.7" x2="446" y2="-114.6"/>
			<line class="st7" x1="90.7" y1="220.2" x2="446" y2="-135.1"/>
			<line class="st7" x1="90.7" y1="199.7" x2="446" y2="-155.7"/>
			<line class="st7" x1="90.7" y1="507.5" x2="446" y2="152.2"/>
			<line class="st7" x1="90.7" y1="487" x2="446" y2="131.6"/>
			<line class="st7" x1="90.7" y1="466.5" x2="446" y2="111.1"/>
			<line class="st7" x1="90.7" y1="445.9" x2="446" y2="90.6"/>
			<line class="st7" x1="90.7" y1="425.4" x2="446" y2="70.1"/>
			<line class="st7" x1="90.7" y1="404.9" x2="446" y2="49.5"/>
			<line class="st7" x1="90.7" y1="384.4" x2="446" y2="29"/>
			<line class="st7" x1="90.7" y1="363.8" x2="446" y2="8.5"/>
			<line class="st7" x1="90.7" y1="671.7" x2="446" y2="316.3"/>
			<line class="st7" x1="90.7" y1="651.1" x2="446" y2="295.8"/>
			<line class="st7" x1="90.7" y1="630.6" x2="446" y2="275.3"/>
			<line class="st7" x1="90.7" y1="610.1" x2="446" y2="254.8"/>
			<line class="st7" x1="90.7" y1="589.6" x2="446" y2="234.2"/>
			<line class="st7" x1="90.7" y1="569.1" x2="446" y2="213.7"/>
			<line class="st7" x1="90.7" y1="548.5" x2="446" y2="193.2"/>
			<line class="st7" x1="90.7" y1="528" x2="446" y2="172.7"/>
		</g>
	</g>
</g>
<g>
	<path class="st0" d="M1124.2,787.4c0,0-27.5-53-33.6-71.1s-3-58,24.4-84.8c26.6-26,55.2-29.9,88.5-21.3
		c33.3,8.6,51.9,34.3,57.2,56.7c3.9,16.4,6.9,45.7-8.5,74.6c-15.4,29-25.1,42.4-26.7,61.2c-1.5,18.2-5.7,22.1-12.9,27.2
		c-0.4,0.3-0.7,0.8-0.7,1.4v55c0,0.7-0.6,1.3-1.3,1.3h-1.9c-0.5,0-0.9,0.2-1.3,0.5l-15.9,16.3c-1.1,1.1-2.6,1.8-4.2,1.8h-20.5
		c-1.5,0-2.9-0.6-4-1.5l-18.2-16.6c-0.3-0.3-0.8-0.5-1.2-0.5h-1.5c-0.7,0-1.3-0.6-1.3-1.3v-51.8c0-0.6-0.3-1.1-0.8-1.4
		c-2.8-1.7-11.8-8.2-12.5-24C1126.3,790.6,1124.2,787.4,1124.2,787.4z"/>
	<path class="st0" d="M1140.5,860v-16.4c0-5.5,4.5-10,10-10h51.5c5.5,0,10,4.5,10,10V860"/>
	<path class="st0" d="M1189.5,838.9v-54.7c0-3.6,0.8-7.2,2.2-10.6c2.9-6.6,9.5-22.5,24.6-61.1c0.3-0.8,0.1-1.8-0.6-2.4
		c-5.8-4.9-14.8-8.1-22.8-1.2c-1.2,1-3,1-4.1-0.1c-7.1-6.3-16.3-7.6-25,0.5c-1.1,1-2.6,1.1-3.9,0.4c-11.7-7.4-20.4-2.1-23.5,0.4
		c-0.7,0.6-1,1.6-0.6,2.4l24.9,62c1,2.5,1.5,5.1,1.5,7.7v8.2v48.4"/>
	<g>
		<defs>
			<path id="SVGID_15_" d="M1189.4,783.1c0-3.6,11.7-33.1,26.9-71.6c0.3-0.8,0.1-1.8-0.6-2.4c-5.8-4.9-14.8-8.1-22.8-1.2
				c-1.2,1-3,1-4.1-0.1c-7.1-6.4-16.3-7.6-25,0.5c-1.1,1-2.6,1.1-3.9,0.3c-11.7-7.4-20.4-2.1-23.5,0.3c-0.7,0.6-1,1.6-0.6,2.4
				l26.2,69.8c1,2.5,0-2.6,0,0L1189.4,783.1z"/>
		</defs>
		<clipPath id="SVGID_16_">
			<use xlink:href="#SVGID_15_"  style="overflow:visible;"/>
		</clipPath>
		<g class="st9">
			<line class="st7" x1="1132.6" y1="684.4" x2="1488" y2="329.1"/>
			<line class="st7" x1="1132.6" y1="663.9" x2="1488" y2="308.6"/>
			<line class="st7" x1="1132.6" y1="643.4" x2="1488" y2="288"/>
			<line class="st7" x1="1132.6" y1="622.9" x2="1488" y2="267.5"/>
			<line class="st7" x1="1132.6" y1="602.4" x2="1488" y2="247"/>
			<line class="st7" x1="1132.6" y1="581.8" x2="1488" y2="226.5"/>
			<line class="st7" x1="1132.6" y1="561.3" x2="1488" y2="206"/>
			<line class="st7" x1="1132.6" y1="540.8" x2="1488" y2="185.4"/>
			<line class="st7" x1="1132.6" y1="848.6" x2="1488" y2="493.3"/>
			<line class="st7" x1="1132.6" y1="828.1" x2="1488" y2="472.7"/>
			<line class="st7" x1="1132.6" y1="807.6" x2="1488" y2="452.2"/>
			<line class="st7" x1="1132.6" y1="787" x2="1488" y2="431.7"/>
			<line class="st7" x1="1132.6" y1="766.5" x2="1488" y2="411.2"/>
			<line class="st7" x1="1132.6" y1="746" x2="1488" y2="390.7"/>
			<line class="st7" x1="1132.6" y1="725.5" x2="1488" y2="370.1"/>
			<line class="st7" x1="1132.6" y1="705" x2="1488" y2="349.6"/>
			<line class="st7" x1="1132.6" y1="1012.8" x2="1488" y2="657.4"/>
			<line class="st7" x1="1132.6" y1="992.3" x2="1488" y2="636.9"/>
			<line class="st7" x1="1132.6" y1="971.7" x2="1488" y2="616.4"/>
			<line class="st7" x1="1132.6" y1="951.2" x2="1488" y2="595.9"/>
			<line class="st7" x1="1132.6" y1="930.7" x2="1488" y2="575.3"/>
			<line class="st7" x1="1132.6" y1="910.2" x2="1488" y2="554.8"/>
			<line class="st7" x1="1132.6" y1="889.6" x2="1488" y2="534.3"/>
			<line class="st7" x1="1132.6" y1="869.1" x2="1488" y2="513.8"/>
			<line class="st7" x1="1132.6" y1="1176.9" x2="1488" y2="821.6"/>
			<line class="st7" x1="1132.6" y1="1156.4" x2="1488" y2="801.1"/>
			<line class="st7" x1="1132.6" y1="1135.9" x2="1488" y2="780.6"/>
			<line class="st7" x1="1132.6" y1="1115.4" x2="1488" y2="760"/>
			<line class="st7" x1="1132.6" y1="1094.9" x2="1488" y2="739.5"/>
			<line class="st7" x1="1132.6" y1="1074.3" x2="1488" y2="719"/>
			<line class="st7" x1="1132.6" y1="1053.8" x2="1488" y2="698.5"/>
			<line class="st7" x1="1132.6" y1="1033.3" x2="1488" y2="677.9"/>
		</g>
	</g>
	<path class="st0" d="M1189.5,804.3v-8.2c0-7.6-6.2-13.8-13.8-13.8h0c-7.6,0-13.8,6.2-13.8,13.8v8"/>
	<g>
		<defs>
			<polygon id="SVGID_17_" points="1140.2,835.3 1140.2,887.9 1161.8,908 1189.5,908 1211.7,887.9 1211.7,833.5 			"/>
		</defs>
		<clipPath id="SVGID_18_">
			<use xlink:href="#SVGID_17_"  style="overflow:visible;"/>
		</clipPath>
		<g class="st10">
			<line class="st7" x1="1068" y1="757.9" x2="1423.3" y2="402.6"/>
			<line class="st7" x1="1068" y1="737.4" x2="1423.3" y2="382"/>
			<line class="st7" x1="1068" y1="716.9" x2="1423.3" y2="361.5"/>
			<line class="st7" x1="1068" y1="696.3" x2="1423.3" y2="341"/>
			<line class="st7" x1="1068" y1="675.8" x2="1423.3" y2="320.5"/>
			<line class="st7" x1="1068" y1="655.3" x2="1423.3" y2="300"/>
			<line class="st7" x1="1068" y1="634.8" x2="1423.3" y2="279.4"/>
			<line class="st7" x1="1068" y1="614.3" x2="1423.3" y2="258.9"/>
			<line class="st7" x1="1068" y1="922.1" x2="1423.3" y2="566.7"/>
			<line class="st7" x1="1068" y1="901.6" x2="1423.3" y2="546.2"/>
			<line class="st7" x1="1068" y1="881" x2="1423.3" y2="525.7"/>
			<line class="st7" x1="1068" y1="860.5" x2="1423.3" y2="505.2"/>
			<line class="st7" x1="1068" y1="840" x2="1423.3" y2="484.6"/>
			<line class="st7" x1="1068" y1="819.5" x2="1423.3" y2="464.1"/>
			<line class="st7" x1="1068" y1="799" x2="1423.3" y2="443.6"/>
			<line class="st7" x1="1068" y1="778.4" x2="1423.3" y2="423.1"/>
			<line class="st7" x1="1068" y1="1086.2" x2="1423.3" y2="730.9"/>
			<line class="st7" x1="1068" y1="1065.7" x2="1423.3" y2="710.4"/>
			<line class="st7" x1="1068" y1="1045.2" x2="1423.3" y2="689.9"/>
			<line class="st7" x1="1068" y1="1024.7" x2="1423.3" y2="669.3"/>
			<line class="st7" x1="1068" y1="1004.2" x2="1423.3" y2="648.8"/>
			<line class="st7" x1="1068" y1="983.6" x2="1423.3" y2="628.3"/>
			<line class="st7" x1="1068" y1="963.1" x2="1423.3" y2="607.8"/>
			<line class="st7" x1="1068" y1="942.6" x2="1423.3" y2="587.3"/>
			<line class="st7" x1="1068" y1="1250.4" x2="1423.3" y2="895.1"/>
			<line class="st7" x1="1068" y1="1229.9" x2="1423.3" y2="874.5"/>
			<line class="st7" x1="1068" y1="1209.4" x2="1423.3" y2="854"/>
			<line class="st7" x1="1068" y1="1188.9" x2="1423.3" y2="833.5"/>
			<line class="st7" x1="1068" y1="1168.3" x2="1423.3" y2="813"/>
			<line class="st7" x1="1068" y1="1147.8" x2="1423.3" y2="792.5"/>
			<line class="st7" x1="1068" y1="1127.3" x2="1423.3" y2="771.9"/>
			<line class="st7" x1="1068" y1="1106.8" x2="1423.3" y2="751.4"/>
		</g>
	</g>
</g>
</svg>
